SplineFontDB: 3.2
FontName: applause-Regular
FullName: applause Regular
FamilyName: applause
Weight: Regular
Copyright: 
Version: 001.001
ItalicAngle: 0
UnderlinePosition: -100
UnderlineWidth: 50
Ascent: 800
Descent: 200
InvalidEm: 0
sfntRevision: 0x00010000
LayerCount: 2
Layer: 0 0 "Back" 1
Layer: 1 0 "Fore" 0
XUID: [1021 796 -163880829 8174809]
StyleMap: 0x0040
FSType: 4
OS2Version: 3
OS2_WeightWidthSlopeOnly: 0
OS2_UseTypoMetrics: 0
CreationTime: 1464040505
ModificationTime: 1616452443
PfmFamily: 81
TTFWeight: 400
TTFWidth: 5
LineGap: 63
VLineGap: 0
Panose: 0 0 0 0 0 0 0 0 0 0
OS2TypoAscent: 737
OS2TypoAOffset: 0
OS2TypoDescent: -170
OS2TypoDOffset: 0
OS2TypoLinegap: 63
OS2WinAscent: 1013
OS2WinAOffset: 0
OS2WinDescent: 170
OS2WinDOffset: 0
HheadAscent: 737
HheadAOffset: 0
HheadDescent: -170
HheadDOffset: 0
OS2SubXSize: 700
OS2SubYSize: 650
OS2SubXOff: 0
OS2SubYOff: 140
OS2SupXSize: 700
OS2SupYSize: 650
OS2SupXOff: 0
OS2SupYOff: 477
OS2StrikeYSize: 50
OS2StrikeYPos: 250
OS2CapHeight: 737
OS2XHeight: 566
OS2FamilyClass: 2048
OS2Vendor: 'PYRS'
OS2CodePages: 00000001.00000000
OS2UnicodeRanges: 80000027.00000040.00000000.00000000
Lookup: 258 0 0 "'kern' Horizontal Kerning lookup 0" { "'kern' Horizontal Kerning lookup 0 subtable"  } ['kern' ('DFLT' <'dflt' > ) ]
MarkAttachClasses: 1
DEI: 91125
LangName: 1033
Encoding: UnicodeBmp
UnicodeInterp: none
NameList: AGL For New Fonts
DisplaySize: -48
AntiAlias: 1
FitToEm: 0
WinInfo: 198 22 5
BeginPrivate: 5
BlueValues 21 [0 0 567 567 737 737]
OtherBlues 11 [-170 -170]
StdHW 5 [113]
StdVW 5 [113]
StemSnapV 9 [113 136]
EndPrivate
BeginChars: 65537 173

StartChar: exclam
Encoding: 33 33 4
Width: 253
Flags: HMW
LayerCount: 2
UndoRedoHistory
Layer: 1
Undoes
UndoOperation
Index: 0
Type: 3
WasModified: 0
WasOrder2: 0
Layer: 2
EndUndoOperation
EndUndoes
Redoes
EndRedoes
EndUndoRedoHistory
Fore
SplineSet
88 126 m 0
 55 126 23 98 15 63 c 0
 7 28 26 0 59 0 c 0
 92 0 124 28 132 63 c 0
 140 98 121 126 88 126 c 0
203 737 m 2
 255 737 l 2
 263 737 268 729 266 720 c 2
 124 233 l 2
 121 226 117 221 110 221 c 0
 103 221 99 226 100 233 c 2
 184 720 l 2
 186 729 195 737 203 737 c 2
EndSplineSet
EndChar

StartChar: quotedbl
Encoding: 34 34 5
Width: 288
Flags: HMW
LayerCount: 2
UndoRedoHistory
Layer: 1
Undoes
UndoOperation
Index: 0
Type: 3
WasModified: 0
WasOrder2: 0
Layer: 2
EndUndoOperation
EndUndoes
Redoes
EndRedoes
EndUndoRedoHistory
Fore
SplineSet
197 599 m 2
 195 591 188 585 181 585 c 2
 148 585 l 2
 141 585 136 591 138 599 c 2
 167 723 l 2
 169 731 176 737 183 737 c 2
 216 737 l 2
 223 737 228 731 226 723 c 2
 197 599 l 2
290 599 m 2
 288 591 281 585 274 585 c 2
 241 585 l 2
 234 585 229 591 231 599 c 2
 260 723 l 2
 262 731 269 737 276 737 c 2
 309 737 l 2
 316 737 321 731 319 723 c 2
 290 599 l 2
EndSplineSet
EndChar

StartChar: numbersign
Encoding: 35 35 6
Width: 713
Flags: HMW
LayerCount: 2
UndoRedoHistory
Layer: 1
Undoes
UndoOperation
Index: 0
Type: 3
WasModified: 0
WasOrder2: 0
Layer: 2
EndUndoOperation
EndUndoes
Redoes
EndRedoes
EndUndoRedoHistory
Fore
SplineSet
328 18 m 2
 406 214 l 1
 216 214 l 1
 142 26 l 2
 136 11 121 0 107 0 c 2
 91 0 l 2
 82 0 77 9 81 18 c 2
 158 214 l 1
 64 214 l 2
 56 214 51 221 53 229 c 2
 60 261 l 2
 62 270 71 277 79 277 c 2
 183 277 l 1
 263 479 l 1
 169 479 l 2
 161 479 156 486 158 495 c 2
 165 526 l 2
 167 535 176 542 184 542 c 2
 288 542 l 1
 356 711 l 2
 361 726 376 737 391 737 c 2
 406 737 l 2
 414 737 420 728 416 718 c 2
 346 542 l 1
 535 542 l 1
 602 711 l 2
 608 726 623 737 637 737 c 2
 653 737 l 2
 662 737 666 728 663 718 c 2
 593 542 l 1
 687 542 l 2
 695 542 700 535 698 526 c 2
 691 495 l 2
 689 486 680 479 672 479 c 2
 567 479 l 1
 488 277 l 1
 582 277 l 2
 589 277 594 270 592 261 c 2
 585 229 l 2
 583 221 574 214 567 214 c 2
 463 214 l 1
 389 26 l 2
 383 11 368 0 354 0 c 2
 339 0 l 2
 330 0 325 9 328 18 c 2
241 277 m 1
 430 277 l 1
 510 479 l 1
 321 479 l 1
 241 277 l 1
EndSplineSet
EndChar

StartChar: dollar
Encoding: 36 36 7
Width: 489
Flags: HMW
LayerCount: 2
UndoRedoHistory
Layer: 1
Undoes
UndoOperation
Index: 0
Type: 3
WasModified: 0
WasOrder2: 0
Layer: 2
EndUndoOperation
EndUndoes
Redoes
EndRedoes
EndUndoRedoHistory
Fore
SplineSet
145 16 m 2xaa
 165 101 l 1
 50 101 l 2
 43 101 38 108 40 116 c 2x6e
 43 132 l 2
 47 150 64 164 80 164 c 2
 242 164 l 2
 264 164 289 173 309 189 c 0
 331 206 346 229 352 253 c 0
 359 280 356 304 344 323 c 0
 332 342 311 353 287 353 c 2
 232 353 l 2
 192 353 157 370 135 401 c 0
 114 432 108 471 119 513 c 0
 128 549 148 584 176 611 c 0
 204 639 238 657 272 665 c 2
 296 670 l 1
 308 721 l 2
 310 730 318 737 326 737 c 2
 355 737 l 2
 363 737 368 730 366 721 c 2xaf
 354 668 l 1
 433 668 l 2
 441 668 446 661 444 652 c 2xb3
 441 636 l 2
 437 619 421 605 404 605 c 2
 288 605 l 2
 266 605 243 596 222 579 c 0
 200 562 185 540 178 515 c 0
 171 489 174 464 186 445 c 0
 198 426 220 416 243 416 c 2
 302 416 l 2
 341 416 373 400 394 370 c 0
 414 341 422 302 413 261 c 0
 405 223 383 186 352 156 c 0
 322 127 285 108 249 103 c 2
 223 99 l 1x6f
 204 16 l 2
 202 7 193 0 185 0 c 2
 156 0 l 2
 148 0 143 7 145 16 c 2xaa
EndSplineSet
EndChar

StartChar: percent
Encoding: 37 37 8
Width: 622
Flags: HMW
LayerCount: 2
UndoRedoHistory
Layer: 1
Undoes
UndoOperation
Index: 0
Type: 3
WasModified: 0
WasOrder2: 0
Layer: 2
EndUndoOperation
EndUndoes
Redoes
EndRedoes
EndUndoRedoHistory
Fore
SplineSet
365 617 m 0
 350 551 288 498 227 498 c 0
 166 498 127 551 142 617 c 0
 157 683 221 737 282 737 c 0
 343 737 380 683 365 617 c 0
181 617 m 0
 171 574 195 539 236 539 c 0
 276 539 317 574 327 617 c 0
 337 661 312 696 272 696 c 0
 231 696 191 661 181 617 c 0
430 239 m 0
 491 239 529 186 514 120 c 0
 499 54 436 0 375 0 c 0
 314 0 276 54 291 120 c 0
 306 186 369 239 430 239 c 0
384 41 m 0
 425 41 466 76 476 120 c 0
 486 163 462 198 421 198 c 0
 381 198 339 163 329 120 c 0
 319 76 344 41 384 41 c 0
549 737 m 2
 559 737 564 726 558 716 c 2
 155 10 l 2
 152 4 146 0 139 0 c 2
 108 0 l 2
 98 0 93 11 99 21 c 2
 502 727 l 2
 505 733 511 737 517 737 c 2
 549 737 l 2
EndSplineSet
EndChar

StartChar: ampersand
Encoding: 38 38 9
Width: 641
Flags: HMW
LayerCount: 2
UndoRedoHistory
Layer: 1
Undoes
UndoOperation
Index: 0
Type: 3
WasModified: 0
WasOrder2: 0
Layer: 2
EndUndoOperation
EndUndoes
Redoes
EndRedoes
EndUndoRedoHistory
Fore
SplineSet
520 428 m 1
 589 428 l 2
 597 428 602 421 600 413 c 2
 593 381 l 2
 591 372 582 365 574 365 c 2
 506 365 l 1
 463 182 l 2
 440 82 346 0 252 0 c 2
 170 0 l 2
 76 0 19 82 42 183 c 2
 57 246 l 2
 68 292 100 337 146 373 c 2
 177 397 l 1
 157 421 l 2
 127 456 116 502 127 548 c 2
 128 554 l 2
 151 655 246 737 340 737 c 2
 459 737 l 2
 467 737 473 730 471 721 c 2
 467 705 l 2
 463 688 446 674 430 674 c 2
 326 674 l 2
 265 674 201 620 186 554 c 2
 185 548 l 2
 170 482 208 428 269 428 c 2
 462 428 l 1
 475 485 l 2
 479 502 496 517 512 517 c 2
 527 517 l 2
 534 517 539 509 537 501 c 2
 520 428 l 1
405 182 m 2
 447 365 l 1
 254 365 l 2
 193 365 130 312 115 246 c 2
 101 183 l 2
 86 117 124 63 185 63 c 2
 267 63 l 2
 328 63 390 117 405 182 c 2
EndSplineSet
EndChar

StartChar: quotesingle
Encoding: 39 39 10
Width: 195
Flags: HMW
LayerCount: 2
UndoRedoHistory
Layer: 1
Undoes
UndoOperation
Index: 0
Type: 3
WasModified: 0
WasOrder2: 0
Layer: 2
EndUndoOperation
EndUndoes
Redoes
EndRedoes
EndUndoRedoHistory
Fore
SplineSet
197 599 m 2
 195 591 188 585 181 585 c 2
 148 585 l 2
 141 585 136 591 138 599 c 2
 167 723 l 2
 169 731 176 737 183 737 c 2
 216 737 l 2
 223 737 228 731 226 723 c 2
 197 599 l 2
EndSplineSet
EndChar

StartChar: parenleft
Encoding: 40 40 11
Width: 349
Flags: HMW
LayerCount: 2
UndoRedoHistory
Layer: 1
Undoes
UndoOperation
Index: 0
Type: 3
WasModified: 0
WasOrder2: 0
Layer: 2
EndUndoOperation
EndUndoes
Redoes
EndRedoes
EndUndoRedoHistory
Fore
SplineSet
319 726 m 0
 279 680 244 626 214 566 c 0
 183 504 160 437 144 368 c 0
 128 300 121 233 123 171 c 0
 125 111 135 57 154 11 c 0
 165 -16 178 -40 194 -60 c 0
 200 -69 191 -85 179 -85 c 2
 139 -85 l 2
 132 -85 126 -82 122 -76 c 0
 113 -60 105 -43 97 -24 c 0
 55 81 51 221 85 368 c 0
 119 516 188 656 278 761 c 0
 294 780 310 797 327 813 c 0
 334 819 342 822 349 822 c 2
 389 822 l 2
 401 822 402 806 392 797 c 0
 367 777 342 753 319 726 c 0
EndSplineSet
EndChar

StartChar: parenright
Encoding: 41 41 12
Width: 349
Flags: HMW
LayerCount: 2
UndoRedoHistory
Layer: 1
Undoes
UndoOperation
Index: 0
Type: 3
WasModified: 0
WasOrder2: 0
Layer: 2
EndUndoOperation
EndUndoes
Redoes
EndRedoes
EndUndoRedoHistory
Fore
SplineSet
229 726 m 0
 218 753 205 777 189 797 c 0
 183 806 192 822 204 822 c 2
 244 822 l 2
 251 822 257 819 261 813 c 0
 270 797 278 780 286 761 c 0
 328 656 332 516 298 368 c 0
 264 221 195 81 105 -24 c 0
 89 -43 73 -60 56 -76 c 0
 49 -82 41 -85 34 -85 c 2
 -6 -85 l 2
 -18 -85 -19 -69 -9 -60 c 0
 16 -40 41 -16 64 11 c 0
 104 57 139 111 169 171 c 0
 200 233 223 300 239 368 c 0
 255 437 262 504 260 566 c 0
 258 626 248 680 229 726 c 0
EndSplineSet
EndChar

StartChar: asterisk
Encoding: 42 42 13
Width: 431
Flags: HMW
LayerCount: 2
UndoRedoHistory
Layer: 1
Undoes
UndoOperation
Index: 0
Type: 3
WasModified: 0
WasOrder2: 0
Layer: 2
EndUndoOperation
EndUndoes
Redoes
EndRedoes
EndUndoRedoHistory
Fore
SplineSet
436 614 m 2
 436 604 429 594 420 591 c 2
 337 564 l 2
 329 562 325 553 327 547 c 2
 358 476 l 2
 362 468 358 457 349 451 c 2
 328 437 l 2
 319 431 309 433 305 441 c 2
 274 512 l 2
 271 518 263 518 258 512 c 2
 193 441 l 2
 186 433 175 431 169 437 c 2
 154 451 l 2
 148 457 149 468 156 476 c 2
 220 547 l 2
 225 553 226 562 219 564 c 2
 148 591 l 2
 140 594 138 604 143 614 c 2
 154 636 l 2
 159 646 169 651 178 648 c 2
 249 621 l 2
 255 619 264 624 266 632 c 2
 286 719 l 2
 288 729 298 737 307 737 c 2
 328 737 l 2
 337 737 344 729 342 719 c 2
 322 632 l 2
 320 624 325 619 332 621 c 2
 416 648 l 2
 426 651 434 646 434 636 c 2
 436 614 l 2
EndSplineSet
EndChar

StartChar: plus
Encoding: 43 43 14
Width: 663
Flags: HMW
LayerCount: 2
UndoRedoHistory
Layer: 1
Undoes
UndoOperation
Index: 0
Type: 3
WasModified: 0
WasOrder2: 0
Layer: 2
EndUndoOperation
EndUndoes
Redoes
EndRedoes
EndUndoRedoHistory
Fore
SplineSet
587 315 m 2
 594 315 599 309 597 301 c 2
 589 266 l 2
 587 258 579 252 572 252 c 2
 351 252 l 1
 296 14 l 2
 294 6 287 0 280 0 c 2
 247 0 l 2
 240 0 236 6 238 14 c 2
 293 252 l 1
 71 252 l 2
 64 252 59 258 61 266 c 2
 69 301 l 2
 71 309 79 315 86 315 c 2
 307 315 l 1
 362 553 l 2
 364 561 371 567 378 567 c 2
 411 567 l 2
 418 567 423 561 421 553 c 2
 366 315 l 1
 587 315 l 2
EndSplineSet
EndChar

StartChar: comma
Encoding: 44 44 15
Width: 218
Flags: HMW
LayerCount: 2
UndoRedoHistory
Layer: 1
Undoes
UndoOperation
Index: 0
Type: 3
WasModified: 0
WasOrder2: 0
Layer: 2
EndUndoOperation
EndUndoes
Redoes
EndRedoes
EndUndoRedoHistory
Fore
SplineSet
89 32 m 0
 84 10 75 -19 38 -62 c 1
 27 -53 l 1
 27 -53 43 -27 49 0 c 1
 46 0 44 0 41 0 c 0
 19 0 4 19 10 44 c 0
 16 68 39 88 61 88 c 0
 83 88 97 67 89 32 c 0
EndSplineSet
EndChar

StartChar: hyphen
Encoding: 45 45 16
Width: 445
Flags: HMW
LayerCount: 2
UndoRedoHistory
Layer: 1
Undoes
UndoOperation
Index: 0
Type: 3
WasModified: 0
WasOrder2: 0
Layer: 2
EndUndoOperation
EndUndoes
Redoes
EndRedoes
EndUndoRedoHistory
Fore
SplineSet
374 281 m 2
 368 258 l 2
 365 247 355 238 345 238 c 2
 74 238 l 2
 64 238 57 247 60 258 c 2
 65 281 l 2
 68 292 78 301 88 301 c 2
 360 301 l 2
 370 301 377 292 374 281 c 2
EndSplineSet
EndChar

StartChar: period
Encoding: 46 46 17
Width: 218
Flags: HMW
LayerCount: 2
UndoRedoHistory
Layer: 1
Undoes
UndoOperation
Index: 0
Type: 3
WasModified: 0
WasOrder2: 0
Layer: 2
EndUndoOperation
EndUndoes
Redoes
EndRedoes
EndUndoRedoHistory
Fore
SplineSet
41 0 m 0
 19 0 4 19 10 44 c 0
 16 68 39 88 61 88 c 0
 83 88 98 68 92 44 c 0
 86 19 63 0 41 0 c 0
EndSplineSet
EndChar

StartChar: slash
Encoding: 47 47 18
Width: 438
Flags: HMW
LayerCount: 2
UndoRedoHistory
Layer: 1
Undoes
UndoOperation
Index: 0
Type: 3
WasModified: 0
WasOrder2: 0
Layer: 2
EndUndoOperation
EndUndoes
Redoes
EndRedoes
EndUndoRedoHistory
Fore
SplineSet
14 0 m 6
 5 0 0 10 6 19 c 6
 410 728 l 6
 413 733 418 737 424 737 c 6
 458 737 l 6
 467 737 472 727 466 718 c 6
 63 9 l 6
 60 4 54 0 48 0 c 6
 14 0 l 6
EndSplineSet
EndChar

StartChar: zero
Encoding: 48 48 19
Width: 569
Flags: HMW
LayerCount: 2
UndoRedoHistory
Layer: 1
Undoes
UndoOperation
Index: 0
Type: 3
WasModified: 1
WasOrder2: 0
Layer: 2
EndUndoOperation
EndUndoes
Redoes
EndRedoes
EndUndoRedoHistory
Fore
SplineSet
72 0 m 6
 63 0 58 10 64 19 c 6
 468 728 l 6
 471 733 476 737 482 737 c 6
 516 737 l 6
 525 737 530 727 524 718 c 6
 120 9 l 6
 117 4 112 0 106 0 c 6
 72 0 l 6
205 0 m 2
 92 0 23 99 51 220 c 2
 119 516 l 2
 147 638 262 737 375 737 c 2
 399 737 l 2
 512 737 581 638 553 516 c 2
 484 220 l 2
 456 99 342 0 229 0 c 2
 205 0 l 2
360 674 m 2
 280 674 198 603 178 516 c 2
 109 220 l 2
 89 134 139 63 219 63 c 2
 243 63 l 2
 323 63 406 134 426 220 c 2
 494 516 l 2
 514 603 464 674 384 674 c 2
 360 674 l 2
EndSplineSet
EndChar

StartChar: one
Encoding: 49 49 20
Width: 339
Flags: HMW
LayerCount: 2
UndoRedoHistory
Layer: 1
Undoes
UndoOperation
Index: 0
Type: 3
WasModified: 0
WasOrder2: 0
Layer: 2
EndUndoOperation
EndUndoes
Redoes
EndRedoes
EndUndoRedoHistory
Fore
SplineSet
148 16 m 2xb0
 299 669 l 1xb0
 190 581 l 2
 184 575 175 572 168 572 c 1
 168 572 l 1
 160 572 153 576 149 582 c 2
 142 594 l 2
 138 600 141 610 148 616 c 2xd0
 286 729 l 2
 293 734 301 737 308 737 c 2
 358 737 l 2
 366 737 371 730 369 721 c 2
 206 16 l 2
 204 7 196 0 188 0 c 2
 159 0 l 2
 151 0 146 7 148 16 c 2xb0
EndSplineSet
EndChar

StartChar: two
Encoding: 50 50 21
Width: 569
Flags: HMW
LayerCount: 2
UndoRedoHistory
Layer: 1
Undoes
UndoOperation
Index: 0
Type: 3
WasModified: 0
WasOrder2: 0
Layer: 2
EndUndoOperation
EndUndoes
Redoes
EndRedoes
EndUndoRedoHistory
Fore
SplineSet
29 0 m 2
 13 0 3 14 7 31 c 2
 48 208 l 2
 71 309 166 391 260 391 c 2
 353 391 l 2
 415 391 478 444 493 510 c 2
 503 554 l 2
 518 620 481 674 419 674 c 2
 326 674 l 2
 265 674 201 620 186 554 c 0
 182 537 167 523 150 523 c 2
 136 523 l 2
 128 523 122 530 124 539 c 2
 128 554 l 2
 151 655 246 737 340 737 c 2
 433 737 l 2
 527 737 584 655 561 554 c 2
 551 510 l 2
 528 409 433 328 339 328 c 2
 246 328 l 2
 185 328 122 274 107 208 c 2
 73 63 l 1
 419 63 l 2
 435 63 445 49 441 31 c 2
 437 16 l 2
 435 7 426 0 418 0 c 2
 29 0 l 2
EndSplineSet
EndChar

StartChar: three
Encoding: 51 51 22
Width: 547
Flags: HMW
LayerCount: 2
UndoRedoHistory
Layer: 1
Undoes
UndoOperation
Index: 0
Type: 3
WasModified: 0
WasOrder2: 0
Layer: 2
EndUndoOperation
EndUndoes
Redoes
EndRedoes
EndUndoRedoHistory
Fore
SplineSet
417 397 m 1xf4
 463 378 481 306 467 246 c 2
 453 183 l 2
 430 82 334 0 240 0 c 2
 147 0 l 2
 53 0 -4 82 19 183 c 2
 23 198 l 2
 25 207 34 214 42 214 c 2
 55 214 l 2
 72 214 82 200 78 182 c 0xf4
 63 117 101 63 162 63 c 2
 255 63 l 2
 317 63 379 117 394 183 c 2
 409 246 l 2
 424 312 387 365 325 365 c 2
 275 365 l 2
 267 365 262 372 264 381 c 2
 268 397 l 2
 272 414 288 428 305 428 c 2
 339 428 l 2
 401 428 459 463 474 529 c 2
 480 554 l 2
 495 620 458 674 396 674 c 2
 314 674 l 2
 251 674 186 617 174 548 c 1
 174 544 l 2
 172 536 163 529 155 529 c 2
 125 529 l 2
 118 529 113 536 115 545 c 2
 117 554 l 2xec
 140 655 235 737 329 737 c 2
 411 737 l 2
 505 737 562 655 539 554 c 2
 533 529 l 2
 522 483 471 412 417 397 c 1xf4
EndSplineSet
EndChar

StartChar: four
Encoding: 52 52 23
Width: 559
Flags: HMW
LayerCount: 2
UndoRedoHistory
Layer: 1
Undoes
UndoOperation
Index: 0
Type: 3
WasModified: 1
WasOrder2: 0
Layer: 2
EndUndoOperation
EndUndoes
Redoes
EndRedoes
EndUndoRedoHistory
Fore
SplineSet
472 277 m 2
 480 277 485 270 483 261 c 2
 476 230 l 2
 474 221 465 214 457 214 c 2
 389 214 l 1
 344 16 l 2
 342 7 333 0 326 0 c 2
 296 0 l 2
 288 0 283 7 285 16 c 2
 331 214 l 1
 73 214 l 2
 41 214 27 248 46 281 c 2
 170 717 l 2
 177 729 190 737 202 737 c 2
 224 737 l 2
 234 737 238 726 232 716 c 2
 106 277 l 1
 345 277 l 1
 404 532 l 6
 408 549 424 563 441 563 c 6
 456 563 l 6
 463 563 468 556 466 548 c 6
 404 277 l 1
 472 277 l 2
EndSplineSet
EndChar

StartChar: five
Encoding: 53 53 24
Width: 569
Flags: HMW
LayerCount: 2
UndoRedoHistory
Layer: 1
Undoes
UndoOperation
Index: 0
Type: 3
WasModified: 0
WasOrder2: 0
Layer: 2
EndUndoOperation
EndUndoes
Redoes
EndRedoes
EndUndoRedoHistory
Fore
SplineSet
170 0 m 2
 76 0 19 82 42 183 c 2
 46 198 l 2
 48 207 56 214 64 214 c 2
 78 214 l 2
 95 214 105 200 101 182 c 0
 86 117 124 63 185 63 c 2
 278 63 l 2
 340 63 402 117 417 183 c 2
 437 271 l 2
 452 337 415 391 353 391 c 2
 149 391 l 2
 116 391 97 419 105 453 c 2
 163 705 l 2
 167 723 183 737 199 737 c 2
 554 737 l 2
 561 737 566 730 564 721 c 2
 561 705 l 2
 557 688 541 674 525 674 c 2
 214 674 l 1
 163 453 l 1
 368 453 l 2
 462 453 519 372 496 271 c 2
 476 183 l 2
 453 82 357 0 263 0 c 2
 170 0 l 2
EndSplineSet
EndChar

StartChar: six
Encoding: 54 54 25
Width: 569
Flags: HMW
LayerCount: 2
UndoRedoHistory
Layer: 1
Undoes
UndoOperation
Index: 0
Type: 3
WasModified: 0
WasOrder2: 0
Layer: 2
EndUndoOperation
EndUndoes
Redoes
EndRedoes
EndUndoRedoHistory
Fore
SplineSet
170 0 m 2xf4
 76 0 19 82 42 183 c 2
 125 542 l 2
 137 596 167 645 207 681 c 0
 247 717 294 737 340 737 c 2
 410 737 l 2
 504 737 561 655 538 554 c 2
 537 551 l 2
 535 542 527 535 519 535 c 2
 493 535 l 2
 483 535 477 544 479 554 c 0xf8
 494 620 457 674 396 674 c 2
 326 674 l 2
 294 674 262 660 236 635 c 0
 211 611 192 578 184 542 c 2
 151 399 l 1
 151 399 201 453 275 453 c 2
 368 453 l 2
 462 453 519 372 496 271 c 2
 476 183 l 2
 453 82 357 0 263 0 c 2
 170 0 l 2xf4
260 391 m 2
 199 391 136 337 121 271 c 2
 101 183 l 2
 86 117 124 63 185 63 c 2
 278 63 l 2
 339 63 402 117 417 183 c 2
 437 271 l 2
 452 337 414 391 353 391 c 2
 260 391 l 2
EndSplineSet
EndChar

StartChar: seven
Encoding: 55 55 26
Width: 456
Flags: HMW
LayerCount: 2
UndoRedoHistory
Layer: 1
Undoes
UndoOperation
Index: 0
Type: 3
WasModified: 1
WasOrder2: 0
Layer: 2
EndUndoOperation
EndUndoes
Redoes
EndRedoes
EndUndoRedoHistory
Fore
SplineSet
410 342 m 2
 128 344 l 6
 120 344 115 351 117 360 c 6
 121 375 l 6
 125 393 141 407 157 407 c 6
 430 407 l 2
 446 407 445 379 434 368 c 2
 426 350 l 2
 425 349 414 342 410 342 c 2
57 22 m 2
 467 674 l 1
 102 674 l 2
 94 674 89 681 91 690 c 2
 95 705 l 2
 99 723 115 737 131 737 c 2
 506 737 l 2
 522 737 532 723 528 705 c 2
 516 655 l 2
 515 651 514 647 512 643 c 2
 118 19 l 2
 111 8 99 0 87 0 c 2
 65 0 l 2
 55 0 50 11 57 22 c 2
EndSplineSet
EndChar

StartChar: eight
Encoding: 56 56 27
Width: 569
Flags: HMW
LayerCount: 2
UndoRedoHistory
Layer: 1
Undoes
UndoOperation
Index: 0
Type: 3
WasModified: 0
WasOrder2: 0
Layer: 2
EndUndoOperation
EndUndoes
Redoes
EndRedoes
EndUndoRedoHistory
Fore
SplineSet
415 405 m 1xf2
 461 405 514 352 490 246 c 2
 471 165 l 2
 450 74 365 0 280 0 c 2
 153 0 l 2
 68 0 17 74 38 165 c 2
 57 246 l 2xf2
 81 352 159 405 205 405 c 1
 160 417 131 465 150 548 c 2
 151 554 l 2
 174 655 270 737 364 737 c 2
 410 737 l 2
 504 737 561 655 538 554 c 2
 537 548 l 2xec
 518 465 465 417 415 405 c 1xf2
208 548 m 2xec
 193 482 231 428 292 428 c 2
 339 428 l 2
 400 428 463 482 478 548 c 2
 479 554 l 2
 494 620 457 674 396 674 c 2
 349 674 l 2
 288 674 225 620 210 554 c 2
 208 548 l 2xec
414 172 m 2xf2
 432 246 l 2
 447 312 408 365 347 365 c 2
 254 365 l 2
 193 365 130 312 115 246 c 2
 98 172 l 2
 84 112 119 63 175 63 c 2
 288 63 l 2
 344 63 400 112 414 172 c 2xf2
EndSplineSet
EndChar

StartChar: nine
Encoding: 57 57 28
Width: 569
Flags: HMW
LayerCount: 2
UndoRedoHistory
Layer: 1
Undoes
UndoOperation
Index: 0
Type: 3
WasModified: 0
WasOrder2: 0
Layer: 2
EndUndoOperation
EndUndoes
Redoes
EndRedoes
EndUndoRedoHistory
Fore
SplineSet
433 737 m 2xf4
 527 737 584 655 561 554 c 2
 478 195 l 2
 466 141 437 92 397 56 c 0
 357 20 309 0 263 0 c 2
 193 0 l 2
 99 0 42 82 65 183 c 2
 66 186 l 2
 68 194 77 202 85 202 c 2
 111 202 l 2
 121 202 126 193 124 183 c 0xec
 109 117 147 63 208 63 c 2
 278 63 l 2
 310 63 342 77 368 102 c 0
 393 126 412 159 420 195 c 2
 457 357 l 1
 457 357 407 302 333 302 c 2
 240 302 l 2
 146 302 89 384 112 485 c 2
 128 554 l 2
 151 655 246 737 340 737 c 2
 433 737 l 2xf4
347 365 m 2
 408 365 472 419 487 485 c 2
 503 554 l 2
 518 620 480 674 419 674 c 2
 326 674 l 2
 265 674 201 620 186 554 c 2
 171 485 l 2
 156 419 193 365 254 365 c 2
 347 365 l 2
EndSplineSet
EndChar

StartChar: colon
Encoding: 58 58 29
Width: 218
Flags: HMW
LayerCount: 2
UndoRedoHistory
Layer: 1
Undoes
UndoOperation
Index: 0
Type: 3
WasModified: 0
WasOrder2: 0
Layer: 2
EndUndoOperation
EndUndoes
Redoes
EndRedoes
EndUndoRedoHistory
Fore
SplineSet
80 170 m 0
 58 170 43 189 49 214 c 0
 55 238 78 258 100 258 c 0
 122 258 137 238 131 214 c 0
 125 189 102 170 80 170 c 0
41 1 m 0
 19 1 4 20 10 45 c 0
 16 69 39 89 61 89 c 0
 83 89 98 69 92 45 c 0
 86 20 63 1 41 1 c 0
EndSplineSet
EndChar

StartChar: semicolon
Encoding: 59 59 30
Width: 218
Flags: HMW
LayerCount: 2
UndoRedoHistory
Layer: 1
Undoes
UndoOperation
Index: 0
Type: 3
WasModified: 0
WasOrder2: 0
Layer: 2
EndUndoOperation
EndUndoes
Redoes
EndRedoes
EndUndoRedoHistory
Fore
SplineSet
89 32 m 0
 84 10 75 -19 38 -62 c 1
 27 -53 l 1
 27 -53 43 -27 49 0 c 1
 46 0 44 0 41 0 c 0
 19 0 4 19 10 44 c 0
 16 68 39 88 61 88 c 0
 83 88 97 67 89 32 c 0
80 170 m 0
 58 170 43 189 49 214 c 0
 55 238 78 258 100 258 c 0
 122 258 137 238 131 214 c 0
 125 189 102 170 80 170 c 0
EndSplineSet
EndChar

StartChar: less
Encoding: 60 60 31
Width: 610
Flags: HMW
LayerCount: 2
UndoRedoHistory
Layer: 1
Undoes
UndoOperation
Index: 0
Type: 3
WasModified: 0
WasOrder2: 0
Layer: 2
EndUndoOperation
EndUndoes
Redoes
EndRedoes
EndUndoRedoHistory
Fore
SplineSet
439 20 m 2
 94 335 l 2
 77 352 85 385 110 402 c 2
 600 717 l 2
 607 722 615 720 618 714 c 2
 630 686 l 2
 632 679 629 670 622 666 c 2
 160 368 l 1
 484 71 l 2
 490 67 488 58 483 51 c 2
 458 23 l 2
 452 17 443 15 439 20 c 2
EndSplineSet
EndChar

StartChar: equal
Encoding: 61 61 32
Width: 495
Flags: HMW
LayerCount: 2
UndoRedoHistory
Layer: 1
Undoes
UndoOperation
Index: 0
Type: 3
WasModified: 0
WasOrder2: 0
Layer: 2
EndUndoOperation
EndUndoes
Redoes
EndRedoes
EndUndoRedoHistory
Fore
SplineSet
399 230 m 2
 406 230 411 224 409 216 c 2
 401 182 l 2
 399 174 392 167 385 167 c 2
 52 167 l 2
 45 167 40 174 42 182 c 2
 50 216 l 2
 52 224 59 230 66 230 c 2
 399 230 l 2
438 399 m 2
 445 399 450 393 448 385 c 2
 440 351 l 2
 438 343 431 336 424 336 c 2
 91 336 l 2
 84 336 79 343 81 351 c 2
 89 385 l 2
 91 393 98 399 105 399 c 2
 438 399 l 2
EndSplineSet
EndChar

StartChar: greater
Encoding: 62 62 33
Width: 610
Flags: HMW
LayerCount: 2
UndoRedoHistory
Layer: 1
Undoes
UndoOperation
Index: 0
Type: 3
WasModified: 0
WasOrder2: 0
Layer: 2
EndUndoOperation
EndUndoes
Redoes
EndRedoes
EndUndoRedoHistory
Fore
SplineSet
535 335 m 2
 45 20 l 2
 38 15 30 17 27 23 c 2
 15 51 l 2
 13 58 16 67 23 71 c 2
 484 368 l 1
 160 666 l 2
 154 670 156 679 161 686 c 2
 186 714 l 2
 192 720 202 722 206 717 c 2
 550 402 l 2
 567 385 560 352 535 335 c 2
EndSplineSet
EndChar

StartChar: question
Encoding: 63 63 34
Width: 535
Flags: HMW
LayerCount: 2
UndoRedoHistory
Layer: 1
Undoes
UndoOperation
Index: 0
Type: 3
WasModified: 0
WasOrder2: 0
Layer: 2
EndUndoOperation
EndUndoes
Redoes
EndRedoes
EndUndoRedoHistory
Fore
SplineSet
181 0 m 0xfa
 148 0 129 28 137 63 c 0
 145 98 177 126 210 126 c 0
 243 126 262 98 254 63 c 0
 246 28 214 0 181 0 c 0xfa
204 224 m 2xf6
 234 355 l 2
 238 371 253 384 268 384 c 2
 291 384 l 2
 327 384 367 400 400 429 c 0
 431 456 454 493 462 532 c 0
 471 570 464 605 445 632 c 0
 426 659 396 674 360 674 c 2
 349 674 l 2
 275 674 199 609 181 529 c 2
 178 517 l 2
 174 500 159 486 142 485 c 0
 126 484 115 499 119 516 c 2
 122 529 l 2
 149 644 257 737 364 737 c 2
 371 737 l 2
 479 737 546 645 521 532 c 0
 500 437 422 353 332 329 c 2
 285 318 l 1
 263 224 l 2
 261 215 252 208 244 208 c 2
 214 208 l 2
 207 208 202 215 204 224 c 2xf6
EndSplineSet
EndChar

StartChar: at
Encoding: 64 64 35
Width: 793
Flags: HMW
LayerCount: 2
UndoRedoHistory
Layer: 1
Undoes
UndoOperation
Index: 0
Type: 3
WasModified: 0
WasOrder2: 0
Layer: 2
EndUndoOperation
EndUndoes
Redoes
EndRedoes
EndUndoRedoHistory
Fore
SplineSet
340 0 m 2
 294 0 252 10 214 29 c 0
 178 48 147 74 124 108 c 0
 100 142 86 182 79 226 c 0
 72 271 74 319 86 369 c 0
 109 466 167 557 248 625 c 0
 287 658 330 684 375 702 c 0
 421 721 468 731 514 731 c 2
 621 731 l 2
 734 731 802 632 774 510 c 2
 704 205 l 2
 700 189 686 176 671 176 c 2
 381 176 l 2
 334 176 294 196 269 233 c 0
 245 270 237 318 250 369 c 0
 262 419 292 465 334 500 c 0
 376 535 426 554 472 554 c 2
 597 554 l 2
 611 554 618 543 615 529 c 2
 542 214 l 1
 672 214 l 1
 740 510 l 2
 763 611 706 693 612 693 c 2
 500 693 l 2
 459 693 416 684 375 667 c 0
 334 650 296 626 261 595 c 0
 226 564 195 529 171 489 c 0
 146 448 128 405 119 360 c 0
 100 273 114 192 159 131 c 0
 203 71 273 38 354 38 c 2
 590 38 l 2
 606 38 615 24 611 6 c 1
 611 6 l 1
 610 3 607 0 604 0 c 2
 340 0 l 2
459 516 m 2
 382 516 303 449 284 365 c 0
 265 282 313 214 390 214 c 2
 507 214 l 1
 577 516 l 1
 459 516 l 2
EndSplineSet
EndChar

StartChar: A
Encoding: 65 65 36
Width: 569
Flags: HMW
LayerCount: 2
UndoRedoHistory
Layer: 1
Undoes
UndoOperation
Index: 0
Type: 3
WasModified: 0
WasOrder2: 0
Layer: 2
EndUndoOperation
EndUndoes
Redoes
EndRedoes
EndUndoRedoHistory
Fore
SplineSet
405 0 m 2
 388 0 378 14 382 31 c 2
 442 290 l 1
 126 290 l 1
 66 31 l 2
 62 14 46 0 29 0 c 2
 15 0 l 2
 7 0 2 7 4 16 c 2
 134 579 l 2
 154 666 235 737 316 737 c 2
 458 737 l 2
 539 737 587 666 567 579 c 2
 437 16 l 2
 435 7 426 0 418 0 c 2
 405 0 l 2
302 674 m 2
 254 674 204 632 192 579 c 2
 140 353 l 1
 456 353 l 1
 508 579 l 2
 520 632 491 674 443 674 c 2
 302 674 l 2
EndSplineSet
EndChar

StartChar: B
Encoding: 66 66 37
Width: 580
Flags: HMW
LayerCount: 2
UndoRedoHistory
Layer: 1
Undoes
UndoOperation
Index: 0
Type: 3
WasModified: 0
WasOrder2: 0
Layer: 2
EndUndoOperation
EndUndoes
Redoes
EndRedoes
EndUndoRedoHistory
Fore
SplineSet
446 397 m 1xf4
 504 364 534 291 515 208 c 0xf4
 488 93 380 0 273 0 c 2
 29 0 l 2
 13 0 3 14 7 31 c 2
 163 706 l 2
 167 723 183 737 199 737 c 2
 414 737 l 2
 463 737 505 721 532 692 c 0
 562 658 572 609 559 554 c 0xf8
 544 491 501 434 446 397 c 1xf4
214 674 m 1
 155 416 l 1
 340 416 l 2
 412 416 483 478 501 554 c 0xf8
 519 631 471 674 399 674 c 2
 214 674 l 1
288 63 m 2
 362 63 438 128 456 208 c 0
 474 288 429 353 355 353 c 2
 140 353 l 1
 73 63 l 1
 288 63 l 2
EndSplineSet
EndChar

StartChar: C
Encoding: 67 67 38
Width: 547
Flags: HMW
LayerCount: 2
UndoRedoHistory
Layer: 1
Undoes
UndoOperation
Index: 0
Type: 3
WasModified: 0
WasOrder2: 0
Layer: 2
EndUndoOperation
EndUndoes
Redoes
EndRedoes
EndUndoRedoHistory
Fore
SplineSet
146 0 m 2
 65 0 16 70 36 157 c 2
 134 579 l 2
 154 666 235 737 316 737 c 2
 458 737 l 2
 539 737 587 666 567 579 c 2
 564 564 l 2
 562 555 553 548 545 548 c 2
 516 548 l 2
 508 548 503 555 505 564 c 2
 508 579 l 2
 520 632 491 674 443 674 c 2
 302 674 l 2
 254 674 204 632 192 579 c 2
 95 157 l 2
 83 105 113 63 161 63 c 2
 302 63 l 2
 350 63 399 105 411 157 c 2
 420 195 l 2
 424 213 440 227 457 227 c 2
 471 227 l 2
 479 227 484 220 482 211 c 2
 470 157 l 2
 450 70 368 0 287 0 c 2
 146 0 l 2
EndSplineSet
EndChar

StartChar: D
Encoding: 68 68 39
Width: 569
Flags: HMW
LayerCount: 2
UndoRedoHistory
Layer: 1
Undoes
UndoOperation
Index: 0
Type: 3
WasModified: 0
WasOrder2: 0
Layer: 2
EndUndoOperation
EndUndoes
Redoes
EndRedoes
EndUndoRedoHistory
Fore
SplineSet
29 0 m 2
 13 0 3 14 7 31 c 2
 163 705 l 2
 167 723 183 737 199 737 c 2
 458 737 l 2
 538 737 587 666 567 579 c 2
 470 157 l 2
 450 71 367 0 287 0 c 2
 29 0 l 2
73 63 m 1
 302 63 l 2
 350 63 399 105 411 157 c 2
 508 579 l 2
 520 632 491 674 443 674 c 2
 214 674 l 1
 73 63 l 1
EndSplineSet
EndChar

StartChar: E
Encoding: 69 69 40
Width: 551
Flags: HMW
LayerCount: 2
UndoRedoHistory
Layer: 1
Undoes
UndoOperation
Index: 0
Type: 3
WasModified: 0
WasOrder2: 0
Layer: 2
EndUndoOperation
EndUndoes
Redoes
EndRedoes
EndUndoRedoHistory
Fore
SplineSet
29 0 m 2
 13 0 3 14 7 31 c 2
 163 705 l 2
 167 723 183 737 199 737 c 2
 589 737 l 2
 597 737 602 730 600 721 c 2
 596 705 l 2
 592 688 576 674 560 674 c 2
 214 674 l 1
 155 416 l 1
 430 416 l 2
 446 416 456 402 452 384 c 2
 449 368 l 2
 447 360 437 353 430 353 c 2
 140 353 l 1
 73 63 l 1
 419 63 l 2
 435 63 445 49 441 31 c 2
 437 16 l 2
 435 7 426 0 418 0 c 2
 29 0 l 2
EndSplineSet
EndChar

StartChar: F
Encoding: 70 70 41
Width: 515
Flags: HMW
LayerCount: 2
UndoRedoHistory
Layer: 1
Undoes
UndoOperation
Index: 0
Type: 3
WasModified: 0
WasOrder2: 0
Layer: 2
EndUndoOperation
EndUndoes
Redoes
EndRedoes
EndUndoRedoHistory
Fore
SplineSet
4 16 m 2
 163 705 l 2
 167 723 183 737 199 737 c 2
 589 737 l 2
 597 737 602 730 600 721 c 2
 596 705 l 2
 592 688 576 674 560 674 c 2
 214 674 l 1
 155 416 l 1
 430 416 l 2
 446 416 456 402 452 384 c 2
 449 368 l 2
 447 360 437 353 430 353 c 2
 140 353 l 1
 62 16 l 2
 60 7 52 0 44 0 c 2
 15 0 l 2
 7 0 2 7 4 16 c 2
EndSplineSet
EndChar

StartChar: G
Encoding: 71 71 42
Width: 569
Flags: HMW
LayerCount: 2
UndoRedoHistory
Layer: 1
Undoes
UndoOperation
Index: 0
Type: 3
WasModified: 0
WasOrder2: 0
Layer: 2
EndUndoOperation
EndUndoes
Redoes
EndRedoes
EndUndoRedoHistory
Fore
SplineSet
146 0 m 2
 65 0 16 70 36 157 c 2
 134 579 l 2
 154 666 235 737 316 737 c 2
 458 737 l 2
 539 737 587 666 567 579 c 2
 565 570 l 2
 563 561 554 554 546 554 c 2
 518 554 l 2
 510 554 504 561 506 570 c 2
 508 579 l 2
 520 632 491 674 443 674 c 2
 302 674 l 2
 254 674 204 632 192 579 c 2
 95 157 l 2
 83 105 113 63 161 63 c 2
 302 63 l 2
 350 63 399 105 411 157 c 2
 456 353 l 1
 345 353 l 2
 329 353 319 367 323 384 c 2
 327 400 l 2
 329 409 337 416 345 416 c 2
 501 416 l 2
 517 416 526 402 522 384 c 2
 470 157 l 2
 450 70 368 0 287 0 c 2
 146 0 l 2
EndSplineSet
EndChar

StartChar: H
Encoding: 72 72 43
Width: 569
Flags: HMW
LayerCount: 2
UndoRedoHistory
Layer: 1
Undoes
UndoOperation
Index: 0
Type: 3
WasModified: 0
WasOrder2: 0
Layer: 2
EndUndoOperation
EndUndoes
Redoes
EndRedoes
EndUndoRedoHistory
Fore
SplineSet
405 0 m 2
 388 0 378 14 382 31 c 2
 456 353 l 1
 140 353 l 1
 66 31 l 2
 62 14 46 0 29 0 c 2
 15 0 l 2
 7 0 2 7 4 16 c 2
 166 721 l 2
 168 730 177 737 185 737 c 2
 199 737 l 2
 216 737 225 723 221 705 c 2
 155 416 l 1
 471 416 l 1
 538 705 l 2
 542 723 558 737 575 737 c 2
 589 737 l 2
 597 737 602 730 600 721 c 2
 437 16 l 2
 435 7 426 0 418 0 c 2
 405 0 l 2
EndSplineSet
EndChar

StartChar: I
Encoding: 73 73 44
Width: 195
Flags: HMW
LayerCount: 2
UndoRedoHistory
Layer: 1
Undoes
UndoOperation
Index: 0
Type: 3
WasModified: 0
WasOrder2: 0
Layer: 2
EndUndoOperation
EndUndoes
Redoes
EndRedoes
EndUndoRedoHistory
Fore
SplineSet
4 16 m 2
 166 721 l 2
 168 730 177 737 185 737 c 2
 199 737 l 2
 216 737 225 723 221 705 c 2
 62 16 l 2
 60 7 52 0 44 0 c 2
 15 0 l 2
 7 0 2 7 4 16 c 2
EndSplineSet
EndChar

StartChar: J
Encoding: 74 74 45
Width: 524
Flags: HMW
LayerCount: 2
UndoRedoHistory
Layer: 1
Undoes
UndoOperation
Index: 0
Type: 3
WasModified: 0
WasOrder2: 0
Layer: 2
EndUndoOperation
EndUndoes
Redoes
EndRedoes
EndUndoRedoHistory
Fore
SplineSet
101 0 m 2
 20 0 -29 70 -9 157 c 2
 9 236 l 2
 11 245 20 252 28 252 c 2
 42 252 l 2
 59 252 68 238 64 220 c 2
 49 157 l 2
 37 105 67 63 115 63 c 2
 256 63 l 2
 304 63 354 105 366 157 c 2
 485 674 l 1
 350 674 l 2
 334 674 324 688 328 705 c 2
 332 721 l 2
 334 730 343 737 350 737 c 2
 529 737 l 2
 545 737 555 723 551 705 c 2
 424 157 l 2
 404 70 323 0 242 0 c 2
 101 0 l 2
EndSplineSet
EndChar

StartChar: K
Encoding: 75 75 46
Width: 564
Flags: HMW
LayerCount: 2
UndoRedoHistory
Layer: 1
Undoes
UndoOperation
Index: 0
Type: 3
WasModified: 0
WasOrder2: 0
Layer: 2
EndUndoOperation
EndUndoes
Redoes
EndRedoes
EndUndoRedoHistory
Fore
SplineSet
430 0 m 2
 421 0 413 5 409 13 c 2
 277 322 l 2
 271 337 257 346 240 346 c 2
 138 346 l 1
 66 31 l 2
 62 14 46 0 29 0 c 2
 15 0 l 2
 7 0 2 7 4 16 c 2
 166 721 l 2
 168 730 177 737 185 737 c 2
 199 737 l 2
 216 737 225 723 221 705 c 2
 153 409 l 1
 246 409 l 2
 264 409 281 418 294 433 c 2
 552 724 l 2
 559 732 570 737 579 737 c 2
 607 737 l 2
 619 737 624 723 614 712 c 2
 323 384 l 1
 476 25 l 2
 480 14 470 0 458 0 c 2
 430 0 l 2
EndSplineSet
EndChar

StartChar: L
Encoding: 76 76 47
Width: 450
Flags: HMW
LayerCount: 2
UndoRedoHistory
Layer: 1
Undoes
UndoOperation
Index: 0
Type: 3
WasModified: 0
WasOrder2: 0
Layer: 2
EndUndoOperation
EndUndoes
Redoes
EndRedoes
EndUndoRedoHistory
Fore
SplineSet
29 0 m 2
 13 0 3 14 7 31 c 2
 166 721 l 2
 168 730 177 737 185 737 c 2
 199 737 l 2
 216 737 225 723 221 705 c 2
 73 63 l 1
 372 63 l 2
 389 63 398 49 394 31 c 2
 391 16 l 2
 389 7 380 0 372 0 c 2
 29 0 l 2
EndSplineSet
EndChar

StartChar: M
Encoding: 77 77 48
Width: 687
Flags: HMW
LayerCount: 2
UndoRedoHistory
Layer: 1
Undoes
UndoOperation
Index: 0
Type: 3
WasModified: 0
WasOrder2: 0
Layer: 2
EndUndoOperation
EndUndoes
Redoes
EndRedoes
EndUndoRedoHistory
Fore
SplineSet
671 737 m 2
 706 737 l 2
 714 737 719 730 717 721 c 2
 554 16 l 2
 552 7 544 0 536 0 c 2
 522 0 l 2
 505 0 495 14 499 31 c 2
 633 612 l 1
 382 275 l 2
 375 264 363 258 352 258 c 2
 318 258 l 2
 307 258 298 264 296 275 c 2
 200 612 l 1
 66 31 l 2
 62 14 46 0 29 0 c 2
 15 0 l 2
 7 0 2 7 4 16 c 2
 166 721 l 2
 168 730 177 737 185 737 c 2
 219 737 l 2
 230 737 240 730 242 720 c 2
 351 329 l 1
 641 720 l 2
 648 730 660 737 671 737 c 2
EndSplineSet
EndChar

StartChar: N
Encoding: 78 78 49
Width: 569
Flags: HMW
LayerCount: 2
UndoRedoHistory
Layer: 1
Undoes
UndoOperation
Index: 0
Type: 3
WasModified: 0
WasOrder2: 0
Layer: 2
EndUndoOperation
EndUndoes
Redoes
EndRedoes
EndUndoRedoHistory
Fore
SplineSet
384 0 m 2
 373 0 364 6 362 17 c 2
 200 612 l 1
 66 31 l 2
 62 14 46 0 29 0 c 2
 15 0 l 2
 7 0 2 7 4 16 c 2
 166 721 l 2
 168 730 177 737 185 737 c 2
 219 737 l 2
 230 737 240 730 242 720 c 2
 404 125 l 1
 538 705 l 2
 542 723 558 737 575 737 c 2
 589 737 l 2
 597 737 602 730 600 721 c 2
 437 16 l 2
 435 7 426 0 418 0 c 2
 384 0 l 2
EndSplineSet
EndChar

StartChar: O
Encoding: 79 79 50
Width: 569
Flags: HMW
LayerCount: 2
UndoRedoHistory
Layer: 1
Undoes
UndoOperation
Index: 0
Type: 3
WasModified: 0
WasOrder2: 0
Layer: 2
EndUndoOperation
EndUndoes
Redoes
EndRedoes
EndUndoRedoHistory
Fore
SplineSet
146 0 m 2
 66 0 16 71 36 157 c 2
 134 579 l 2
 154 666 236 737 316 737 c 2
 458 737 l 2
 538 737 587 666 567 579 c 2
 470 157 l 2
 450 71 367 0 287 0 c 2
 146 0 l 2
302 674 m 2
 254 674 204 632 192 579 c 2
 95 157 l 2
 83 105 113 63 161 63 c 2
 302 63 l 2
 350 63 399 105 411 157 c 2
 508 579 l 2
 520 632 491 674 443 674 c 2
 302 674 l 2
EndSplineSet
EndChar

StartChar: P
Encoding: 80 80 51
Width: 547
Flags: HMW
LayerCount: 2
UndoRedoHistory
Layer: 1
Undoes
UndoOperation
Index: 0
Type: 3
WasModified: 0
WasOrder2: 0
Layer: 2
EndUndoOperation
EndUndoes
Redoes
EndRedoes
EndUndoRedoHistory
Fore
SplineSet
4 16 m 2
 163 705 l 2
 167 723 183 737 199 737 c 2
 458 737 l 2
 539 737 587 666 567 579 c 2
 537 447 l 2
 517 360 435 290 354 290 c 2
 126 290 l 1
 66 31 l 2
 62 14 46 0 29 0 c 2
 15 0 l 2
 7 0 2 7 4 16 c 2
140 353 m 1
 369 353 l 2
 417 353 466 395 478 447 c 2
 508 579 l 2
 520 632 491 674 443 674 c 2
 214 674 l 1
 140 353 l 1
EndSplineSet
EndChar

StartChar: Q
Encoding: 81 81 52
Width: 569
Flags: HMW
LayerCount: 2
UndoRedoHistory
Layer: 1
Undoes
UndoOperation
Index: 0
Type: 3
WasModified: 0
WasOrder2: 0
Layer: 2
EndUndoOperation
EndUndoes
Redoes
EndRedoes
EndUndoRedoHistory
Fore
SplineSet
168 -85 m 2
 188 0 l 1
 146 0 l 2
 65 0 16 70 36 157 c 2
 134 579 l 2
 154 666 235 737 316 737 c 2
 458 737 l 2
 539 737 587 666 567 579 c 2
 470 157 l 2
 450 70 368 0 287 0 c 2
 246 0 l 1
 231 -69 l 2
 227 -87 209 -101 193 -101 c 2
 178 -101 l 2
 171 -101 166 -94 168 -85 c 2
261 63 m 1
 302 63 l 2
 350 63 399 105 411 157 c 2
 508 579 l 2
 520 632 491 674 443 674 c 2
 302 674 l 2
 254 674 204 632 192 579 c 2
 95 157 l 2
 83 105 113 63 161 63 c 2
 202 63 l 1
 218 132 l 2
 222 150 239 164 255 164 c 2
 269 164 l 2
 276 164 283 157 281 148 c 2
 261 63 l 1
EndSplineSet
EndChar

StartChar: R
Encoding: 82 82 53
Width: 551
Flags: HMW
LayerCount: 2
UndoRedoHistory
Layer: 1
Undoes
UndoOperation
Index: 0
Type: 3
WasModified: 0
WasOrder2: 0
Layer: 2
EndUndoOperation
EndUndoes
Redoes
EndRedoes
EndUndoRedoHistory
Fore
SplineSet
388 0 m 2
 377 0 368 6 366 17 c 2
 298 290 l 1
 126 290 l 1
 66 31 l 2
 62 14 46 0 29 0 c 2
 15 0 l 2
 7 0 2 7 4 16 c 2
 163 705 l 2
 167 723 183 737 199 737 c 2
 458 737 l 2
 539 737 587 666 567 579 c 2
 537 447 l 2
 529 413 511 381 486 353 c 0
 462 327 432 307 401 297 c 2
 365 286 l 1
 430 23 l 2
 432 12 422 0 412 0 c 2
 388 0 l 2
140 353 m 1
 369 353 l 2
 417 353 466 395 478 447 c 2
 508 579 l 2
 520 632 491 674 443 674 c 2
 214 674 l 1
 140 353 l 1
EndSplineSet
EndChar

StartChar: S
Encoding: 83 83 54
Width: 560
Flags: HMW
LayerCount: 2
UndoRedoHistory
Layer: 1
Undoes
UndoOperation
Index: 0
Type: 3
WasModified: 0
WasOrder2: 0
Layer: 2
EndUndoOperation
EndUndoes
Redoes
EndRedoes
EndUndoRedoHistory
Fore
SplineSet
137 0 m 2xf4
 56 0 7 70 27 157 c 2
 40 211 l 2
 42 220 50 227 58 227 c 2
 72 227 l 2
 89 227 99 213 95 195 c 2
 86 157 l 2
 74 105 103 63 151 63 c 2
 293 63 l 2
 341 63 390 105 402 157 c 2
 425 258 l 2
 437 310 408 353 360 353 c 2xf4
 218 353 l 2
 137 353 89 423 109 510 c 2
 125 579 l 2
 145 666 226 737 307 737 c 2
 424 737 l 2
 505 737 555 666 535 579 c 2
 531 564 l 2
 529 555 521 548 513 548 c 2
 484 548 l 2
 476 548 471 555 473 564 c 2
 476 579 l 2
 488 632 459 674 410 674 c 2xf8
 293 674 l 2
 245 674 195 632 183 579 c 2
 167 510 l 2
 155 458 185 416 233 416 c 2
 374 416 l 2
 455 416 504 345 484 258 c 2
 461 157 l 2
 441 70 359 0 278 0 c 2
 137 0 l 2xf4
EndSplineSet
EndChar

StartChar: T
Encoding: 84 84 55
Width: 516
Flags: HMW
LayerCount: 2
UndoRedoHistory
Layer: 1
Undoes
UndoOperation
Index: 0
Type: 3
WasModified: 0
WasOrder2: 0
Layer: 2
EndUndoOperation
EndUndoes
Redoes
EndRedoes
EndUndoRedoHistory
Fore
SplineSet
156 16 m 2
 308 674 l 1
 121 674 l 2
 105 674 95 688 99 705 c 2
 103 721 l 2
 105 730 113 737 121 737 c 2
 581 737 l 2
 589 737 594 730 592 721 c 2
 588 705 l 2
 584 688 568 674 552 674 c 2
 366 674 l 1
 214 16 l 2
 212 7 203 0 196 0 c 2
 166 0 l 2
 159 0 154 7 156 16 c 2
EndSplineSet
EndChar

StartChar: U
Encoding: 85 85 56
Width: 569
Flags: HMW
LayerCount: 2
UndoRedoHistory
Layer: 1
Undoes
UndoOperation
Index: 0
Type: 3
WasModified: 0
WasOrder2: 0
Layer: 2
EndUndoOperation
EndUndoes
Redoes
EndRedoes
EndUndoRedoHistory
Fore
SplineSet
146 0 m 2
 65 0 16 70 36 157 c 2
 166 721 l 2
 168 730 177 737 185 737 c 2
 199 737 l 2
 216 737 225 723 221 705 c 2
 95 157 l 2
 83 105 113 63 161 63 c 2
 302 63 l 2
 350 63 399 105 411 157 c 2
 538 705 l 2
 542 723 558 737 575 737 c 2
 589 737 l 2
 597 737 602 730 600 721 c 2
 470 157 l 2
 450 70 368 0 287 0 c 2
 146 0 l 2
EndSplineSet
EndChar

StartChar: V
Encoding: 86 86 57
Width: 572
Flags: HMW
LayerCount: 2
UndoRedoHistory
Layer: 1
Undoes
UndoOperation
Index: 0
Type: 3
WasModified: 0
WasOrder2: 0
Layer: 2
EndUndoOperation
EndUndoes
Redoes
EndRedoes
EndUndoRedoHistory
Fore
SplineSet
198 0 m 2xb0
 185 0 176 9 175 22 c 2
 144 717 l 2
 144 727 152 737 162 737 c 2
 182 737 l 2
 195 737 204 728 204 714 c 2
 234 68 l 1x70
 562 714 l 2
 569 728 582 737 595 737 c 2
 614 737 l 2
 624 737 629 727 624 717 c 2
 272 22 l 2
 265 9 252 0 239 0 c 2
 198 0 l 2xb0
EndSplineSet
EndChar

StartChar: W
Encoding: 87 87 58
Width: 837
Flags: HMW
LayerCount: 2
UndoRedoHistory
Layer: 1
Undoes
UndoOperation
Index: 0
Type: 3
WasModified: 0
WasOrder2: 0
Layer: 2
EndUndoOperation
EndUndoes
Redoes
EndRedoes
EndUndoRedoHistory
Fore
SplineSet
832 715 m 2
 838 728 850 737 863 737 c 2
 885 737 l 2
 893 737 898 728 894 720 c 2
 581 22 l 2
 575 9 562 0 550 0 c 2
 527 0 l 2
 515 0 506 8 506 20 c 2
 485 581 l 1
 204 20 l 2
 198 8 186 0 174 0 c 2
 151 0 l 2
 139 0 130 9 130 22 c 2
 140 720 l 2
 140 728 149 737 157 737 c 2
 179 737 l 2
 192 737 200 728 200 715 c 2
 192 117 l 1
 471 674 l 2
 477 686 488 695 500 695 c 2
 522 695 l 2
 534 695 542 686 542 674 c 2
 563 117 l 1
 832 715 l 2
EndSplineSet
EndChar

StartChar: X
Encoding: 88 88 59
Width: 557
Flags: HMW
LayerCount: 2
UndoRedoHistory
Layer: 1
Undoes
UndoOperation
Index: 0
Type: 3
WasModified: 0
WasOrder2: 0
Layer: 2
EndUndoOperation
EndUndoes
Redoes
EndRedoes
EndUndoRedoHistory
Fore
SplineSet
469 22 m 2
 473 13 464 0 454 0 c 2
 422 0 l 2
 413 0 406 5 403 13 c 2
 287 311 l 1
 34 13 l 2
 27 5 18 0 9 0 c 2
 -22 0 l 2
 -32 0 -37 13 -29 22 c 2
 265 368 l 1
 131 715 l 2
 127 724 138 737 148 737 c 2
 179 737 l 2
 188 737 195 732 199 724 c 2
 314 425 l 1
 567 724 l 2
 573 732 583 737 592 737 c 2
 624 737 l 2
 634 737 638 724 629 715 c 2
 336 368 l 1
 469 22 l 2
EndSplineSet
EndChar

StartChar: Y
Encoding: 89 89 60
Width: 507
Flags: HMW
LayerCount: 2
UndoRedoHistory
Layer: 1
Undoes
UndoOperation
Index: 0
Type: 3
WasModified: 0
WasOrder2: 0
Layer: 2
EndUndoOperation
EndUndoes
Redoes
EndRedoes
EndUndoRedoHistory
Fore
SplineSet
598 716 m 2
 277 271 l 1
 218 16 l 2
 216 7 207 0 199 0 c 2
 170 0 l 2
 163 0 157 7 159 16 c 2
 218 271 l 1
 103 716 l 2
 101 726 109 737 119 737 c 2
 148 737 l 2
 157 737 165 731 168 722 c 2
 265 346 l 1
 536 722 l 2
 543 731 554 737 563 737 c 2
 592 737 l 2
 601 737 605 726 598 716 c 2
EndSplineSet
EndChar

StartChar: Z
Encoding: 90 90 61
Width: 524
Flags: HMW
LayerCount: 2
UndoRedoHistory
Layer: 1
Undoes
UndoOperation
Index: 0
Type: 3
WasModified: 1
WasOrder2: 0
Layer: 2
EndUndoOperation
UndoOperation
Index: 1
Type: 1
WasModified: 1
WasOrder2: 0
Layer: 2
Width: 566
VWidth: 1000
LBearingChange: 0
UnicodeEnc: 0
InstructionsLength: 0
SplineSet
324 344 m 2
 50 344 l 6
 49.3212890625 344 51 362.63671875 51 375 c 6
 51 391 l 6
 51 400 58 407 67 407 c 6
 354 407 l 2
 394 407 385 375 385 375 c 2
 386 393 l 2
 386 393 420.36328125 344 324 344 c 2
-9 0 m 2
 -18 0 -25 7 -25 16 c 2
 -25 57 l 2
 -25 76 -20 94 -9 109 c 2
 380 674 l 1
 32 674 l 2
 14 674 0 688 0 705 c 2
 0 721 l 2
 0 730 7 737 16 737 c 2
 410 737 l 2
 427 737 441 723 441 705 c 2
 441 681 l 2
 441 662 436 644 425 628 c 2
 36 63 l 1
 410 63 l 2
 427 63 441 49 441 31 c 2
 441 16 l 2
 441 7 434 0 425 0 c 2
 -9 0 l 2
EndSplineSet
EndUndoOperation
UndoOperation
Index: 2
Type: 1
WasModified: 1
WasOrder2: 0
Layer: 2
Width: 566
VWidth: 1000
LBearingChange: 0
UnicodeEnc: 0
InstructionsLength: 0
SplineSet
324 344 m 2
 49 344 l 6
 48.3212890625 344 50 362.63671875 50 375 c 6
 50 391 l 6
 50 400 57 407 66 407 c 6
 354 407 l 2
 394 407 385 375 385 375 c 2
 386 393 l 2
 386 393 420.36328125 344 324 344 c 2
-9 0 m 2
 -18 0 -25 7 -25 16 c 2
 -25 57 l 2
 -25 76 -20 94 -9 109 c 2
 380 674 l 1
 32 674 l 2
 14 674 0 688 0 705 c 2
 0 721 l 2
 0 730 7 737 16 737 c 2
 410 737 l 2
 427 737 441 723 441 705 c 2
 441 681 l 2
 441 662 436 644 425 628 c 2
 36 63 l 1
 410 63 l 2
 427 63 441 49 441 31 c 2
 441 16 l 2
 441 7 434 0 425 0 c 2
 -9 0 l 2
EndSplineSet
EndUndoOperation
UndoOperation
Index: 3
Type: 1
WasModified: 1
WasOrder2: 0
Layer: 2
Width: 566
VWidth: 1000
LBearingChange: 0
UnicodeEnc: 0
InstructionsLength: 0
SplineSet
324 344 m 2
 48 344 l 6
 47.3212890625 344 49 362.63671875 49 375 c 6
 49 391 l 6
 49 400 56 407 65 407 c 6
 354 407 l 2
 394 407 385 375 385 375 c 2
 386 393 l 2
 386 393 420.36328125 344 324 344 c 2
-9 0 m 2
 -18 0 -25 7 -25 16 c 2
 -25 57 l 2
 -25 76 -20 94 -9 109 c 2
 380 674 l 1
 32 674 l 2
 14 674 0 688 0 705 c 2
 0 721 l 2
 0 730 7 737 16 737 c 2
 410 737 l 2
 427 737 441 723 441 705 c 2
 441 681 l 2
 441 662 436 644 425 628 c 2
 36 63 l 1
 410 63 l 2
 427 63 441 49 441 31 c 2
 441 16 l 2
 441 7 434 0 425 0 c 2
 -9 0 l 2
EndSplineSet
EndUndoOperation
UndoOperation
Index: 4
Type: 1
WasModified: 1
WasOrder2: 0
Layer: 2
Width: 566
VWidth: 1000
LBearingChange: 0
UnicodeEnc: 0
InstructionsLength: 0
SplineSet
324 344 m 2
 47 344 l 6
 46.3212890625 344 48 362.63671875 48 375 c 6
 48 391 l 6
 48 400 55 407 64 407 c 6
 354 407 l 2
 394 407 385 375 385 375 c 2
 386 393 l 2
 386 393 420.36328125 344 324 344 c 2
-9 0 m 2
 -18 0 -25 7 -25 16 c 2
 -25 57 l 2
 -25 76 -20 94 -9 109 c 2
 380 674 l 1
 32 674 l 2
 14 674 0 688 0 705 c 2
 0 721 l 2
 0 730 7 737 16 737 c 2
 410 737 l 2
 427 737 441 723 441 705 c 2
 441 681 l 2
 441 662 436 644 425 628 c 2
 36 63 l 1
 410 63 l 2
 427 63 441 49 441 31 c 2
 441 16 l 2
 441 7 434 0 425 0 c 2
 -9 0 l 2
EndSplineSet
EndUndoOperation
UndoOperation
Index: 5
Type: 1
WasModified: 1
WasOrder2: 0
Layer: 2
Width: 566
VWidth: 1000
LBearingChange: 0
UnicodeEnc: 0
InstructionsLength: 0
SplineSet
324 344 m 2
 46 344 l 6
 45.3212890625 344 47 362.63671875 47 375 c 6
 47 391 l 6
 47 400 54 407 63 407 c 6
 354 407 l 2
 394 407 385 375 385 375 c 2
 386 393 l 2
 386 393 420.36328125 344 324 344 c 2
-9 0 m 2
 -18 0 -25 7 -25 16 c 2
 -25 57 l 2
 -25 76 -20 94 -9 109 c 2
 380 674 l 1
 32 674 l 2
 14 674 0 688 0 705 c 2
 0 721 l 2
 0 730 7 737 16 737 c 2
 410 737 l 2
 427 737 441 723 441 705 c 2
 441 681 l 2
 441 662 436 644 425 628 c 2
 36 63 l 1
 410 63 l 2
 427 63 441 49 441 31 c 2
 441 16 l 2
 441 7 434 0 425 0 c 2
 -9 0 l 2
EndSplineSet
EndUndoOperation
UndoOperation
Index: 6
Type: 1
WasModified: 1
WasOrder2: 0
Layer: 2
Width: 566
VWidth: 1000
LBearingChange: 0
UnicodeEnc: 0
InstructionsLength: 0
SplineSet
324 344 m 2
 45 344 l 6
 44.3212890625 344 46 362.63671875 46 375 c 6
 46 391 l 6
 46 400 53 407 62 407 c 6
 354 407 l 2
 394 407 385 375 385 375 c 2
 386 393 l 2
 386 393 420.36328125 344 324 344 c 2
-9 0 m 2
 -18 0 -25 7 -25 16 c 2
 -25 57 l 2
 -25 76 -20 94 -9 109 c 2
 380 674 l 1
 32 674 l 2
 14 674 0 688 0 705 c 2
 0 721 l 2
 0 730 7 737 16 737 c 2
 410 737 l 2
 427 737 441 723 441 705 c 2
 441 681 l 2
 441 662 436 644 425 628 c 2
 36 63 l 1
 410 63 l 2
 427 63 441 49 441 31 c 2
 441 16 l 2
 441 7 434 0 425 0 c 2
 -9 0 l 2
EndSplineSet
EndUndoOperation
UndoOperation
Index: 7
Type: 1
WasModified: 1
WasOrder2: 0
Layer: 2
Width: 566
VWidth: 1000
LBearingChange: 0
UnicodeEnc: 0
InstructionsLength: 0
SplineSet
324 344 m 2
 44 344 l 6
 43.3212890625 344 45 362.63671875 45 375 c 6
 45 391 l 6
 45 400 52 407 61 407 c 6
 354 407 l 2
 394 407 385 375 385 375 c 2
 386 393 l 2
 386 393 420.36328125 344 324 344 c 2
-9 0 m 2
 -18 0 -25 7 -25 16 c 2
 -25 57 l 2
 -25 76 -20 94 -9 109 c 2
 380 674 l 1
 32 674 l 2
 14 674 0 688 0 705 c 2
 0 721 l 2
 0 730 7 737 16 737 c 2
 410 737 l 2
 427 737 441 723 441 705 c 2
 441 681 l 2
 441 662 436 644 425 628 c 2
 36 63 l 1
 410 63 l 2
 427 63 441 49 441 31 c 2
 441 16 l 2
 441 7 434 0 425 0 c 2
 -9 0 l 2
EndSplineSet
EndUndoOperation
UndoOperation
Index: 8
Type: 1
WasModified: 1
WasOrder2: 0
Layer: 2
Width: 566
VWidth: 1000
LBearingChange: 0
UnicodeEnc: 0
InstructionsLength: 0
SplineSet
324 344 m 2
 43 344 l 6
 42.3212890625 344 44 362.63671875 44 375 c 6
 44 391 l 6
 44 400 51 407 60 407 c 6
 354 407 l 2
 394 407 385 375 385 375 c 2
 386 393 l 2
 386 393 420.36328125 344 324 344 c 2
-9 0 m 2
 -18 0 -25 7 -25 16 c 2
 -25 57 l 2
 -25 76 -20 94 -9 109 c 2
 380 674 l 1
 32 674 l 2
 14 674 0 688 0 705 c 2
 0 721 l 2
 0 730 7 737 16 737 c 2
 410 737 l 2
 427 737 441 723 441 705 c 2
 441 681 l 2
 441 662 436 644 425 628 c 2
 36 63 l 1
 410 63 l 2
 427 63 441 49 441 31 c 2
 441 16 l 2
 441 7 434 0 425 0 c 2
 -9 0 l 2
EndSplineSet
EndUndoOperation
UndoOperation
Index: 9
Type: 1
WasModified: 1
WasOrder2: 0
Layer: 2
Width: 566
VWidth: 1000
LBearingChange: 0
UnicodeEnc: 0
InstructionsLength: 0
SplineSet
324 344 m 2
 42 344 l 6
 41.3212890625 344 43 362.63671875 43 375 c 6
 43 391 l 6
 43 400 50 407 59 407 c 6
 354 407 l 2
 394 407 385 375 385 375 c 2
 386 393 l 2
 386 393 420.36328125 344 324 344 c 2
-9 0 m 2
 -18 0 -25 7 -25 16 c 2
 -25 57 l 2
 -25 76 -20 94 -9 109 c 2
 380 674 l 1
 32 674 l 2
 14 674 0 688 0 705 c 2
 0 721 l 2
 0 730 7 737 16 737 c 2
 410 737 l 2
 427 737 441 723 441 705 c 2
 441 681 l 2
 441 662 436 644 425 628 c 2
 36 63 l 1
 410 63 l 2
 427 63 441 49 441 31 c 2
 441 16 l 2
 441 7 434 0 425 0 c 2
 -9 0 l 2
EndSplineSet
EndUndoOperation
UndoOperation
Index: 10
Type: 1
WasModified: 1
WasOrder2: 0
Layer: 2
Width: 566
VWidth: 1000
LBearingChange: 0
UnicodeEnc: 0
InstructionsLength: 0
SplineSet
324 344 m 2
 41 344 l 6
 40.3212890625 344 42 362.63671875 42 375 c 6
 42 391 l 6
 42 400 49 407 58 407 c 6
 354 407 l 2
 394 407 385 375 385 375 c 2
 386 393 l 2
 386 393 420.36328125 344 324 344 c 2
-9 0 m 2
 -18 0 -25 7 -25 16 c 2
 -25 57 l 2
 -25 76 -20 94 -9 109 c 2
 380 674 l 1
 32 674 l 2
 14 674 0 688 0 705 c 2
 0 721 l 2
 0 730 7 737 16 737 c 2
 410 737 l 2
 427 737 441 723 441 705 c 2
 441 681 l 2
 441 662 436 644 425 628 c 2
 36 63 l 1
 410 63 l 2
 427 63 441 49 441 31 c 2
 441 16 l 2
 441 7 434 0 425 0 c 2
 -9 0 l 2
EndSplineSet
EndUndoOperation
UndoOperation
Index: 11
Type: 1
WasModified: 1
WasOrder2: 0
Layer: 2
Width: 566
VWidth: 1000
LBearingChange: 0
UnicodeEnc: 0
InstructionsLength: 0
SplineSet
324 344 m 2
 40 344 l 6
 39.3212890625 344 41 362.63671875 41 375 c 6
 41 391 l 6
 41 400 48 407 57 407 c 6
 354 407 l 2
 394 407 385 375 385 375 c 2
 386 393 l 2
 386 393 420.36328125 344 324 344 c 2
-9 0 m 2
 -18 0 -25 7 -25 16 c 2
 -25 57 l 2
 -25 76 -20 94 -9 109 c 2
 380 674 l 1
 32 674 l 2
 14 674 0 688 0 705 c 2
 0 721 l 2
 0 730 7 737 16 737 c 2
 410 737 l 2
 427 737 441 723 441 705 c 2
 441 681 l 2
 441 662 436 644 425 628 c 2
 36 63 l 1
 410 63 l 2
 427 63 441 49 441 31 c 2
 441 16 l 2
 441 7 434 0 425 0 c 2
 -9 0 l 2
EndSplineSet
EndUndoOperation
UndoOperation
Index: 12
Type: 1
WasModified: 1
WasOrder2: 0
Layer: 2
Width: 566
VWidth: 1000
LBearingChange: 0
UnicodeEnc: 0
InstructionsLength: 0
SplineSet
324 344 m 2
 39 344 l 6
 38.3212890625 344 40 362.63671875 40 375 c 6
 40 391 l 6
 40 400 47 407 56 407 c 6
 354 407 l 2
 394 407 385 375 385 375 c 2
 386 393 l 2
 386 393 420.36328125 344 324 344 c 2
-9 0 m 2
 -18 0 -25 7 -25 16 c 2
 -25 57 l 2
 -25 76 -20 94 -9 109 c 2
 380 674 l 1
 32 674 l 2
 14 674 0 688 0 705 c 2
 0 721 l 2
 0 730 7 737 16 737 c 2
 410 737 l 2
 427 737 441 723 441 705 c 2
 441 681 l 2
 441 662 436 644 425 628 c 2
 36 63 l 1
 410 63 l 2
 427 63 441 49 441 31 c 2
 441 16 l 2
 441 7 434 0 425 0 c 2
 -9 0 l 2
EndSplineSet
EndUndoOperation
UndoOperation
Index: 13
Type: 1
WasModified: 1
WasOrder2: 0
Layer: 2
Width: 566
VWidth: 1000
LBearingChange: 0
UnicodeEnc: 0
InstructionsLength: 0
SplineSet
324 344 m 2
 38 344 l 6
 37.3212890625 344 39 362.63671875 39 375 c 6
 39 391 l 6
 39 400 46 407 55 407 c 6
 354 407 l 2
 394 407 385 375 385 375 c 2
 386 393 l 2
 386 393 420.36328125 344 324 344 c 2
-9 0 m 2
 -18 0 -25 7 -25 16 c 2
 -25 57 l 2
 -25 76 -20 94 -9 109 c 2
 380 674 l 1
 32 674 l 2
 14 674 0 688 0 705 c 2
 0 721 l 2
 0 730 7 737 16 737 c 2
 410 737 l 2
 427 737 441 723 441 705 c 2
 441 681 l 2
 441 662 436 644 425 628 c 2
 36 63 l 1
 410 63 l 2
 427 63 441 49 441 31 c 2
 441 16 l 2
 441 7 434 0 425 0 c 2
 -9 0 l 2
EndSplineSet
EndUndoOperation
UndoOperation
Index: 14
Type: 1
WasModified: 1
WasOrder2: 0
Layer: 2
Width: 566
VWidth: 1000
LBearingChange: 0
UnicodeEnc: 0
InstructionsLength: 0
SplineSet
324 344 m 2
 37 344 l 6
 36.3212890625 344 38 362.63671875 38 375 c 6
 38 391 l 6
 38 400 45 407 54 407 c 6
 354 407 l 2
 394 407 385 375 385 375 c 2
 386 393 l 2
 386 393 420.36328125 344 324 344 c 2
-9 0 m 2
 -18 0 -25 7 -25 16 c 2
 -25 57 l 2
 -25 76 -20 94 -9 109 c 2
 380 674 l 1
 32 674 l 2
 14 674 0 688 0 705 c 2
 0 721 l 2
 0 730 7 737 16 737 c 2
 410 737 l 2
 427 737 441 723 441 705 c 2
 441 681 l 2
 441 662 436 644 425 628 c 2
 36 63 l 1
 410 63 l 2
 427 63 441 49 441 31 c 2
 441 16 l 2
 441 7 434 0 425 0 c 2
 -9 0 l 2
EndSplineSet
EndUndoOperation
UndoOperation
Index: 15
Type: 1
WasModified: 1
WasOrder2: 0
Layer: 2
Width: 566
VWidth: 1000
LBearingChange: 0
UnicodeEnc: 0
InstructionsLength: 0
SplineSet
324 344 m 2
 36 344 l 6
 35.3212890625 344 37 362.63671875 37 375 c 6
 37 391 l 6
 37 400 44 407 53 407 c 6
 354 407 l 2
 394 407 385 375 385 375 c 2
 386 393 l 2
 386 393 420.36328125 344 324 344 c 2
-9 0 m 2
 -18 0 -25 7 -25 16 c 2
 -25 57 l 2
 -25 76 -20 94 -9 109 c 2
 380 674 l 1
 32 674 l 2
 14 674 0 688 0 705 c 2
 0 721 l 2
 0 730 7 737 16 737 c 2
 410 737 l 2
 427 737 441 723 441 705 c 2
 441 681 l 2
 441 662 436 644 425 628 c 2
 36 63 l 1
 410 63 l 2
 427 63 441 49 441 31 c 2
 441 16 l 2
 441 7 434 0 425 0 c 2
 -9 0 l 2
EndSplineSet
EndUndoOperation
UndoOperation
Index: 16
Type: 1
WasModified: 1
WasOrder2: 0
Layer: 2
Width: 566
VWidth: 1000
LBearingChange: 0
UnicodeEnc: 0
InstructionsLength: 0
SplineSet
324 344 m 2
 35 344 l 6
 34.3212890625 344 36 362.63671875 36 375 c 6
 36 391 l 6
 36 400 43 407 52 407 c 6
 354 407 l 2
 394 407 385 375 385 375 c 2
 386 393 l 2
 386 393 420.36328125 344 324 344 c 2
-9 0 m 2
 -18 0 -25 7 -25 16 c 2
 -25 57 l 2
 -25 76 -20 94 -9 109 c 2
 380 674 l 1
 32 674 l 2
 14 674 0 688 0 705 c 2
 0 721 l 2
 0 730 7 737 16 737 c 2
 410 737 l 2
 427 737 441 723 441 705 c 2
 441 681 l 2
 441 662 436 644 425 628 c 2
 36 63 l 1
 410 63 l 2
 427 63 441 49 441 31 c 2
 441 16 l 2
 441 7 434 0 425 0 c 2
 -9 0 l 2
EndSplineSet
EndUndoOperation
UndoOperation
Index: 17
Type: 1
WasModified: 1
WasOrder2: 0
Layer: 2
Width: 566
VWidth: 1000
LBearingChange: 0
UnicodeEnc: 0
InstructionsLength: 0
SplineSet
324 344 m 2
 34 344 l 6
 33.3212890625 344 35 362.63671875 35 375 c 6
 35 391 l 6
 35 400 42 407 51 407 c 6
 354 407 l 2
 394 407 385 375 385 375 c 2
 386 393 l 2
 386 393 420.36328125 344 324 344 c 2
-9 0 m 2
 -18 0 -25 7 -25 16 c 2
 -25 57 l 2
 -25 76 -20 94 -9 109 c 2
 380 674 l 1
 32 674 l 2
 14 674 0 688 0 705 c 2
 0 721 l 2
 0 730 7 737 16 737 c 2
 410 737 l 2
 427 737 441 723 441 705 c 2
 441 681 l 2
 441 662 436 644 425 628 c 2
 36 63 l 1
 410 63 l 2
 427 63 441 49 441 31 c 2
 441 16 l 2
 441 7 434 0 425 0 c 2
 -9 0 l 2
EndSplineSet
EndUndoOperation
UndoOperation
Index: 18
Type: 1
WasModified: 1
WasOrder2: 0
Layer: 2
Width: 566
VWidth: 1000
LBearingChange: 0
UnicodeEnc: 0
InstructionsLength: 0
SplineSet
324 344 m 2
 33 344 l 6
 32.3212890625 344 34 362.63671875 34 375 c 6
 34 391 l 6
 34 400 41 407 50 407 c 6
 354 407 l 2
 394 407 385 375 385 375 c 2
 386 393 l 2
 386 393 420.36328125 344 324 344 c 2
-9 0 m 2
 -18 0 -25 7 -25 16 c 2
 -25 57 l 2
 -25 76 -20 94 -9 109 c 2
 380 674 l 1
 32 674 l 2
 14 674 0 688 0 705 c 2
 0 721 l 2
 0 730 7 737 16 737 c 2
 410 737 l 2
 427 737 441 723 441 705 c 2
 441 681 l 2
 441 662 436 644 425 628 c 2
 36 63 l 1
 410 63 l 2
 427 63 441 49 441 31 c 2
 441 16 l 2
 441 7 434 0 425 0 c 2
 -9 0 l 2
EndSplineSet
EndUndoOperation
UndoOperation
Index: 19
Type: 1
WasModified: 1
WasOrder2: 0
Layer: 2
Width: 566
VWidth: 1000
LBearingChange: 0
UnicodeEnc: 0
InstructionsLength: 0
SplineSet
324 344 m 2
 32 344 l 6
 31.3215015541 344 33 362.636587702 33 375 c 6
 33 391 l 6
 33 400 40 407 49 407 c 6
 354 407 l 2
 394 407 385 375 385 375 c 2
 386 393 l 2
 386 393 420.36328125 344 324 344 c 2
-9 0 m 2
 -18 0 -25 7 -25 16 c 2
 -25 57 l 2
 -25 76 -20 94 -9 109 c 2
 380 674 l 1
 32 674 l 2
 14 674 0 688 0 705 c 2
 0 721 l 2
 0 730 7 737 16 737 c 2
 410 737 l 2
 427 737 441 723 441 705 c 2
 441 681 l 2
 441 662 436 644 425 628 c 2
 36 63 l 1
 410 63 l 2
 427 63 441 49 441 31 c 2
 441 16 l 2
 441 7 434 0 425 0 c 2
 -9 0 l 2
EndSplineSet
EndUndoOperation
UndoOperation
Index: 20
Type: 1
WasModified: 1
WasOrder2: 0
Layer: 2
Width: 566
VWidth: 1000
LBearingChange: 0
UnicodeEnc: 0
InstructionsLength: 0
SplineSet
325 344 m 6
 32 344 l 2
 31.3215015541 344 33 362.636587702 33 375 c 2
 33 391 l 2
 33 400 40 407 49 407 c 2
 355 407 l 6
 395 407 386 375 386 375 c 6
 387 393 l 6
 387 393 421.36328125 344 325 344 c 6
-9 0 m 2
 -18 0 -25 7 -25 16 c 2
 -25 57 l 2
 -25 76 -20 94 -9 109 c 2
 380 674 l 1
 32 674 l 2
 14 674 0 688 0 705 c 2
 0 721 l 2
 0 730 7 737 16 737 c 2
 410 737 l 2
 427 737 441 723 441 705 c 2
 441 681 l 2
 441 662 436 644 425 628 c 2
 36 63 l 1
 410 63 l 2
 427 63 441 49 441 31 c 2
 441 16 l 2
 441 7 434 0 425 0 c 2
 -9 0 l 2
EndSplineSet
EndUndoOperation
UndoOperation
Index: 21
Type: 1
WasModified: 1
WasOrder2: 0
Layer: 2
Width: 566
VWidth: 1000
LBearingChange: 0
UnicodeEnc: 0
InstructionsLength: 0
SplineSet
326 344 m 6
 32 344 l 2
 31.3215015541 344 33 362.636587702 33 375 c 2
 33 391 l 2
 33 400 40 407 49 407 c 2
 356 407 l 6
 396 407 387 375 387 375 c 6
 388 393 l 6
 388 393 422.36328125 344 326 344 c 6
-9 0 m 2
 -18 0 -25 7 -25 16 c 2
 -25 57 l 2
 -25 76 -20 94 -9 109 c 2
 380 674 l 1
 32 674 l 2
 14 674 0 688 0 705 c 2
 0 721 l 2
 0 730 7 737 16 737 c 2
 410 737 l 2
 427 737 441 723 441 705 c 2
 441 681 l 2
 441 662 436 644 425 628 c 2
 36 63 l 1
 410 63 l 2
 427 63 441 49 441 31 c 2
 441 16 l 2
 441 7 434 0 425 0 c 2
 -9 0 l 2
EndSplineSet
EndUndoOperation
UndoOperation
Index: 22
Type: 1
WasModified: 1
WasOrder2: 0
Layer: 2
Width: 566
VWidth: 1000
LBearingChange: 0
UnicodeEnc: 0
InstructionsLength: 0
SplineSet
327 344 m 6
 32 344 l 2
 31.3215015541 344 33 362.636587702 33 375 c 2
 33 391 l 2
 33 400 40 407 49 407 c 2
 357 407 l 6
 397 407 388 375 388 375 c 6
 389 393 l 6
 389 393 423.36328125 344 327 344 c 6
-9 0 m 2
 -18 0 -25 7 -25 16 c 2
 -25 57 l 2
 -25 76 -20 94 -9 109 c 2
 380 674 l 1
 32 674 l 2
 14 674 0 688 0 705 c 2
 0 721 l 2
 0 730 7 737 16 737 c 2
 410 737 l 2
 427 737 441 723 441 705 c 2
 441 681 l 2
 441 662 436 644 425 628 c 2
 36 63 l 1
 410 63 l 2
 427 63 441 49 441 31 c 2
 441 16 l 2
 441 7 434 0 425 0 c 2
 -9 0 l 2
EndSplineSet
EndUndoOperation
UndoOperation
Index: 23
Type: 1
WasModified: 1
WasOrder2: 0
Layer: 2
Width: 566
VWidth: 1000
LBearingChange: 0
UnicodeEnc: 0
InstructionsLength: 0
SplineSet
328 344 m 6
 32 344 l 2
 31.3215015541 344 33 362.636587702 33 375 c 2
 33 391 l 2
 33 400 40 407 49 407 c 2
 358 407 l 6
 398 407 389 375 389 375 c 6
 390 393 l 6
 390 393 424.36328125 344 328 344 c 6
-9 0 m 2
 -18 0 -25 7 -25 16 c 2
 -25 57 l 2
 -25 76 -20 94 -9 109 c 2
 380 674 l 1
 32 674 l 2
 14 674 0 688 0 705 c 2
 0 721 l 2
 0 730 7 737 16 737 c 2
 410 737 l 2
 427 737 441 723 441 705 c 2
 441 681 l 2
 441 662 436 644 425 628 c 2
 36 63 l 1
 410 63 l 2
 427 63 441 49 441 31 c 2
 441 16 l 2
 441 7 434 0 425 0 c 2
 -9 0 l 2
EndSplineSet
EndUndoOperation
UndoOperation
Index: 24
Type: 1
WasModified: 1
WasOrder2: 0
Layer: 2
Width: 566
VWidth: 1000
LBearingChange: 0
UnicodeEnc: 0
InstructionsLength: 0
SplineSet
329 344 m 6
 32 344 l 2
 31.3215015541 344 33 362.636587702 33 375 c 2
 33 391 l 2
 33 400 40 407 49 407 c 2
 359 407 l 6
 399 407 390 375 390 375 c 6
 391 393 l 6
 391 393 425.36328125 344 329 344 c 6
-9 0 m 2
 -18 0 -25 7 -25 16 c 2
 -25 57 l 2
 -25 76 -20 94 -9 109 c 2
 380 674 l 1
 32 674 l 2
 14 674 0 688 0 705 c 2
 0 721 l 2
 0 730 7 737 16 737 c 2
 410 737 l 2
 427 737 441 723 441 705 c 2
 441 681 l 2
 441 662 436 644 425 628 c 2
 36 63 l 1
 410 63 l 2
 427 63 441 49 441 31 c 2
 441 16 l 2
 441 7 434 0 425 0 c 2
 -9 0 l 2
EndSplineSet
EndUndoOperation
UndoOperation
Index: 25
Type: 1
WasModified: 1
WasOrder2: 0
Layer: 2
Width: 566
VWidth: 1000
LBearingChange: 0
UnicodeEnc: 0
InstructionsLength: 0
SplineSet
330 344 m 6
 32 344 l 2
 31.3215015541 344 33 362.636587702 33 375 c 2
 33 391 l 2
 33 400 40 407 49 407 c 2
 360 407 l 6
 400 407 391 375 391 375 c 6
 392 393 l 6
 392 393 426.36328125 344 330 344 c 6
-9 0 m 2
 -18 0 -25 7 -25 16 c 2
 -25 57 l 2
 -25 76 -20 94 -9 109 c 2
 380 674 l 1
 32 674 l 2
 14 674 0 688 0 705 c 2
 0 721 l 2
 0 730 7 737 16 737 c 2
 410 737 l 2
 427 737 441 723 441 705 c 2
 441 681 l 2
 441 662 436 644 425 628 c 2
 36 63 l 1
 410 63 l 2
 427 63 441 49 441 31 c 2
 441 16 l 2
 441 7 434 0 425 0 c 2
 -9 0 l 2
EndSplineSet
EndUndoOperation
UndoOperation
Index: 26
Type: 1
WasModified: 1
WasOrder2: 0
Layer: 2
Width: 566
VWidth: 1000
LBearingChange: 0
UnicodeEnc: 0
InstructionsLength: 0
SplineSet
331 344 m 6
 32 344 l 2
 31.3215015541 344 33 362.636587702 33 375 c 2
 33 391 l 2
 33 400 40 407 49 407 c 2
 361 407 l 6
 401 407 392 375 392 375 c 6
 393 393 l 6
 393 393 427.36328125 344 331 344 c 6
-9 0 m 2
 -18 0 -25 7 -25 16 c 2
 -25 57 l 2
 -25 76 -20 94 -9 109 c 2
 380 674 l 1
 32 674 l 2
 14 674 0 688 0 705 c 2
 0 721 l 2
 0 730 7 737 16 737 c 2
 410 737 l 2
 427 737 441 723 441 705 c 2
 441 681 l 2
 441 662 436 644 425 628 c 2
 36 63 l 1
 410 63 l 2
 427 63 441 49 441 31 c 2
 441 16 l 2
 441 7 434 0 425 0 c 2
 -9 0 l 2
EndSplineSet
EndUndoOperation
UndoOperation
Index: 27
Type: 1
WasModified: 1
WasOrder2: 0
Layer: 2
Width: 566
VWidth: 1000
LBearingChange: 0
UnicodeEnc: 0
InstructionsLength: 0
SplineSet
332 344 m 6
 32 344 l 2
 31.3215015541 344 33 362.636587702 33 375 c 2
 33 391 l 2
 33 400 40 407 49 407 c 2
 362 407 l 6
 402 407 393 375 393 375 c 6
 394 393 l 6
 394 393 428.36328125 344 332 344 c 6
-9 0 m 2
 -18 0 -25 7 -25 16 c 2
 -25 57 l 2
 -25 76 -20 94 -9 109 c 2
 380 674 l 1
 32 674 l 2
 14 674 0 688 0 705 c 2
 0 721 l 2
 0 730 7 737 16 737 c 2
 410 737 l 2
 427 737 441 723 441 705 c 2
 441 681 l 2
 441 662 436 644 425 628 c 2
 36 63 l 1
 410 63 l 2
 427 63 441 49 441 31 c 2
 441 16 l 2
 441 7 434 0 425 0 c 2
 -9 0 l 2
EndSplineSet
EndUndoOperation
UndoOperation
Index: 28
Type: 1
WasModified: 1
WasOrder2: 0
Layer: 2
Width: 566
VWidth: 1000
LBearingChange: 0
UnicodeEnc: 0
InstructionsLength: 0
SplineSet
333 344 m 6
 32 344 l 2
 31.3215015541 344 33 362.636587702 33 375 c 2
 33 391 l 2
 33 400 40 407 49 407 c 2
 363 407 l 6
 403 407 394 375 394 375 c 6
 395 393 l 6
 395 393 429.36328125 344 333 344 c 6
-9 0 m 2
 -18 0 -25 7 -25 16 c 2
 -25 57 l 2
 -25 76 -20 94 -9 109 c 2
 380 674 l 1
 32 674 l 2
 14 674 0 688 0 705 c 2
 0 721 l 2
 0 730 7 737 16 737 c 2
 410 737 l 2
 427 737 441 723 441 705 c 2
 441 681 l 2
 441 662 436 644 425 628 c 2
 36 63 l 1
 410 63 l 2
 427 63 441 49 441 31 c 2
 441 16 l 2
 441 7 434 0 425 0 c 2
 -9 0 l 2
EndSplineSet
EndUndoOperation
UndoOperation
Index: 29
Type: 1
WasModified: 1
WasOrder2: 0
Layer: 2
Width: 566
VWidth: 1000
LBearingChange: 0
UnicodeEnc: 0
InstructionsLength: 0
SplineSet
334 344 m 6
 32 344 l 2
 31.3215015541 344 33 362.636587702 33 375 c 2
 33 391 l 2
 33 400 40 407 49 407 c 2
 364 407 l 6
 404 407 395 375 395 375 c 6
 396 393 l 6
 396 393 430.36328125 344 334 344 c 6
-9 0 m 2
 -18 0 -25 7 -25 16 c 2
 -25 57 l 2
 -25 76 -20 94 -9 109 c 2
 380 674 l 1
 32 674 l 2
 14 674 0 688 0 705 c 2
 0 721 l 2
 0 730 7 737 16 737 c 2
 410 737 l 2
 427 737 441 723 441 705 c 2
 441 681 l 2
 441 662 436 644 425 628 c 2
 36 63 l 1
 410 63 l 2
 427 63 441 49 441 31 c 2
 441 16 l 2
 441 7 434 0 425 0 c 2
 -9 0 l 2
EndSplineSet
EndUndoOperation
UndoOperation
Index: 30
Type: 1
WasModified: 1
WasOrder2: 0
Layer: 2
Width: 566
VWidth: 1000
LBearingChange: 0
UnicodeEnc: 0
InstructionsLength: 0
SplineSet
335 344 m 6
 32 344 l 2
 31.3215015541 344 33 362.636587702 33 375 c 2
 33 391 l 2
 33 400 40 407 49 407 c 2
 365 407 l 6
 405 407 396 375 396 375 c 6
 397 393 l 6
 397 393 431.36328125 344 335 344 c 6
-9 0 m 2
 -18 0 -25 7 -25 16 c 2
 -25 57 l 2
 -25 76 -20 94 -9 109 c 2
 380 674 l 1
 32 674 l 2
 14 674 0 688 0 705 c 2
 0 721 l 2
 0 730 7 737 16 737 c 2
 410 737 l 2
 427 737 441 723 441 705 c 2
 441 681 l 2
 441 662 436 644 425 628 c 2
 36 63 l 1
 410 63 l 2
 427 63 441 49 441 31 c 2
 441 16 l 2
 441 7 434 0 425 0 c 2
 -9 0 l 2
EndSplineSet
EndUndoOperation
UndoOperation
Index: 31
Type: 1
WasModified: 1
WasOrder2: 0
Layer: 2
Width: 566
VWidth: 1000
LBearingChange: 0
UnicodeEnc: 0
InstructionsLength: 0
SplineSet
336 344 m 6
 32 344 l 2
 31.3215015541 344 33 362.636587702 33 375 c 2
 33 391 l 2
 33 400 40 407 49 407 c 2
 366 407 l 6
 406 407 397 375 397 375 c 6
 398 393 l 6
 398 393 432.36328125 344 336 344 c 6
-9 0 m 2
 -18 0 -25 7 -25 16 c 2
 -25 57 l 2
 -25 76 -20 94 -9 109 c 2
 380 674 l 1
 32 674 l 2
 14 674 0 688 0 705 c 2
 0 721 l 2
 0 730 7 737 16 737 c 2
 410 737 l 2
 427 737 441 723 441 705 c 2
 441 681 l 2
 441 662 436 644 425 628 c 2
 36 63 l 1
 410 63 l 2
 427 63 441 49 441 31 c 2
 441 16 l 2
 441 7 434 0 425 0 c 2
 -9 0 l 2
EndSplineSet
EndUndoOperation
UndoOperation
Index: 32
Type: 1
WasModified: 1
WasOrder2: 0
Layer: 2
Width: 566
VWidth: 1000
LBearingChange: 0
UnicodeEnc: 0
InstructionsLength: 0
SplineSet
337 344 m 6
 32 344 l 2
 31.3215015541 344 33 362.636587702 33 375 c 2
 33 391 l 2
 33 400 40 407 49 407 c 2
 367 407 l 6
 407 407 398 375 398 375 c 6
 399 393 l 6
 399 393 433.36328125 344 337 344 c 6
-9 0 m 2
 -18 0 -25 7 -25 16 c 2
 -25 57 l 2
 -25 76 -20 94 -9 109 c 2
 380 674 l 1
 32 674 l 2
 14 674 0 688 0 705 c 2
 0 721 l 2
 0 730 7 737 16 737 c 2
 410 737 l 2
 427 737 441 723 441 705 c 2
 441 681 l 2
 441 662 436 644 425 628 c 2
 36 63 l 1
 410 63 l 2
 427 63 441 49 441 31 c 2
 441 16 l 2
 441 7 434 0 425 0 c 2
 -9 0 l 2
EndSplineSet
EndUndoOperation
UndoOperation
Index: 33
Type: 1
WasModified: 1
WasOrder2: 0
Layer: 2
Width: 566
VWidth: 1000
LBearingChange: 0
UnicodeEnc: 0
InstructionsLength: 0
SplineSet
337 344 m 2
 32 344 l 6
 14 344 33 358 33 375 c 6
 33 391 l 2
 33 400 40 407 49 407 c 2
 367 407 l 2
 407 407 398 375 398 375 c 2
 399 393 l 2
 399 393 433.36328125 344 337 344 c 2
-9 0 m 2
 -18 0 -25 7 -25 16 c 2
 -25 57 l 2
 -25 76 -20 94 -9 109 c 2
 380 674 l 1
 32 674 l 2
 14 674 0 688 0 705 c 2
 0 721 l 2
 0 730 7 737 16 737 c 2
 410 737 l 2
 427 737 441 723 441 705 c 2
 441 681 l 2
 441 662 436 644 425 628 c 2
 36 63 l 1
 410 63 l 2
 427 63 441 49 441 31 c 2
 441 16 l 2
 441 7 434 0 425 0 c 2
 -9 0 l 2
EndSplineSet
EndUndoOperation
UndoOperation
Index: 34
Type: 1
WasModified: 1
WasOrder2: 0
Layer: 2
Width: 566
VWidth: 1000
LBearingChange: 0
UnicodeEnc: 0
InstructionsLength: 0
SplineSet
338 344 m 6
 32 344 l 2
 14 344 33 358 33 375 c 2
 33 391 l 2
 33 400 40 407 49 407 c 2
 368 407 l 6
 408 407 399 375 399 375 c 6
 400 393 l 6
 400 393 434.36328125 344 338 344 c 6
-9 0 m 2
 -18 0 -25 7 -25 16 c 2
 -25 57 l 2
 -25 76 -20 94 -9 109 c 2
 380 674 l 1
 32 674 l 2
 14 674 0 688 0 705 c 2
 0 721 l 2
 0 730 7 737 16 737 c 2
 410 737 l 2
 427 737 441 723 441 705 c 2
 441 681 l 2
 441 662 436 644 425 628 c 2
 36 63 l 1
 410 63 l 2
 427 63 441 49 441 31 c 2
 441 16 l 2
 441 7 434 0 425 0 c 2
 -9 0 l 2
EndSplineSet
EndUndoOperation
UndoOperation
Index: 35
Type: 1
WasModified: 1
WasOrder2: 0
Layer: 2
Width: 566
VWidth: 1000
LBearingChange: 0
UnicodeEnc: 0
InstructionsLength: 0
SplineSet
339 344 m 6
 32 344 l 2
 14 344 33 358 33 375 c 2
 33 391 l 2
 33 400 40 407 49 407 c 2
 369 407 l 6
 409 407 400 375 400 375 c 6
 401 393 l 6
 401 393 435.36328125 344 339 344 c 6
-9 0 m 2
 -18 0 -25 7 -25 16 c 2
 -25 57 l 2
 -25 76 -20 94 -9 109 c 2
 380 674 l 1
 32 674 l 2
 14 674 0 688 0 705 c 2
 0 721 l 2
 0 730 7 737 16 737 c 2
 410 737 l 2
 427 737 441 723 441 705 c 2
 441 681 l 2
 441 662 436 644 425 628 c 2
 36 63 l 1
 410 63 l 2
 427 63 441 49 441 31 c 2
 441 16 l 2
 441 7 434 0 425 0 c 2
 -9 0 l 2
EndSplineSet
EndUndoOperation
UndoOperation
Index: 36
Type: 1
WasModified: 1
WasOrder2: 0
Layer: 2
Width: 566
VWidth: 1000
LBearingChange: 0
UnicodeEnc: 0
InstructionsLength: 0
SplineSet
340 344 m 6
 32 344 l 2
 14 344 33 358 33 375 c 2
 33 391 l 2
 33 400 40 407 49 407 c 2
 370 407 l 6
 410 407 401 375 401 375 c 6
 402 393 l 6
 402 393 436.36328125 344 340 344 c 6
-9 0 m 2
 -18 0 -25 7 -25 16 c 2
 -25 57 l 2
 -25 76 -20 94 -9 109 c 2
 380 674 l 1
 32 674 l 2
 14 674 0 688 0 705 c 2
 0 721 l 2
 0 730 7 737 16 737 c 2
 410 737 l 2
 427 737 441 723 441 705 c 2
 441 681 l 2
 441 662 436 644 425 628 c 2
 36 63 l 1
 410 63 l 2
 427 63 441 49 441 31 c 2
 441 16 l 2
 441 7 434 0 425 0 c 2
 -9 0 l 2
EndSplineSet
EndUndoOperation
UndoOperation
Index: 37
Type: 1
WasModified: 1
WasOrder2: 0
Layer: 2
Width: 566
VWidth: 1000
LBearingChange: 0
UnicodeEnc: 0
InstructionsLength: 0
SplineSet
341 344 m 6
 32 344 l 2
 14 344 33 358 33 375 c 2
 33 391 l 2
 33 400 40 407 49 407 c 2
 371 407 l 6
 411 407 402 375 402 375 c 6
 403 393 l 6
 403 393 437.36328125 344 341 344 c 6
-9 0 m 2
 -18 0 -25 7 -25 16 c 2
 -25 57 l 2
 -25 76 -20 94 -9 109 c 2
 380 674 l 1
 32 674 l 2
 14 674 0 688 0 705 c 2
 0 721 l 2
 0 730 7 737 16 737 c 2
 410 737 l 2
 427 737 441 723 441 705 c 2
 441 681 l 2
 441 662 436 644 425 628 c 2
 36 63 l 1
 410 63 l 2
 427 63 441 49 441 31 c 2
 441 16 l 2
 441 7 434 0 425 0 c 2
 -9 0 l 2
EndSplineSet
EndUndoOperation
UndoOperation
Index: 38
Type: 1
WasModified: 1
WasOrder2: 0
Layer: 2
Width: 566
VWidth: 1000
LBearingChange: 0
UnicodeEnc: 0
InstructionsLength: 0
SplineSet
342 344 m 6
 32 344 l 2
 14 344 33 358 33 375 c 2
 33 391 l 2
 33 400 40 407 49 407 c 2
 372 407 l 6
 412 407 403 375 403 375 c 6
 404 393 l 6
 404 393 438.36328125 344 342 344 c 6
-9 0 m 2
 -18 0 -25 7 -25 16 c 2
 -25 57 l 2
 -25 76 -20 94 -9 109 c 2
 380 674 l 1
 32 674 l 2
 14 674 0 688 0 705 c 2
 0 721 l 2
 0 730 7 737 16 737 c 2
 410 737 l 2
 427 737 441 723 441 705 c 2
 441 681 l 2
 441 662 436 644 425 628 c 2
 36 63 l 1
 410 63 l 2
 427 63 441 49 441 31 c 2
 441 16 l 2
 441 7 434 0 425 0 c 2
 -9 0 l 2
EndSplineSet
EndUndoOperation
UndoOperation
Index: 39
Type: 1
WasModified: 1
WasOrder2: 0
Layer: 2
Width: 566
VWidth: 1000
LBearingChange: 0
UnicodeEnc: 0
InstructionsLength: 0
SplineSet
343 344 m 6
 32 344 l 2
 14 344 33 358 33 375 c 2
 33 391 l 2
 33 400 40 407 49 407 c 2
 373 407 l 6
 413 407 404 375 404 375 c 6
 405 393 l 6
 405 393 439.36328125 344 343 344 c 6
-9 0 m 2
 -18 0 -25 7 -25 16 c 2
 -25 57 l 2
 -25 76 -20 94 -9 109 c 2
 380 674 l 1
 32 674 l 2
 14 674 0 688 0 705 c 2
 0 721 l 2
 0 730 7 737 16 737 c 2
 410 737 l 2
 427 737 441 723 441 705 c 2
 441 681 l 2
 441 662 436 644 425 628 c 2
 36 63 l 1
 410 63 l 2
 427 63 441 49 441 31 c 2
 441 16 l 2
 441 7 434 0 425 0 c 2
 -9 0 l 2
EndSplineSet
EndUndoOperation
UndoOperation
Index: 40
Type: 1
WasModified: 1
WasOrder2: 0
Layer: 2
Width: 566
VWidth: 1000
LBearingChange: 0
UnicodeEnc: 0
InstructionsLength: 0
SplineSet
344 344 m 6
 32 344 l 2
 14 344 33 358 33 375 c 2
 33 391 l 2
 33 400 40 407 49 407 c 2
 374 407 l 6
 414 407 405 375 405 375 c 6
 406 393 l 6
 406 393 440.36328125 344 344 344 c 6
-9 0 m 2
 -18 0 -25 7 -25 16 c 2
 -25 57 l 2
 -25 76 -20 94 -9 109 c 2
 380 674 l 1
 32 674 l 2
 14 674 0 688 0 705 c 2
 0 721 l 2
 0 730 7 737 16 737 c 2
 410 737 l 2
 427 737 441 723 441 705 c 2
 441 681 l 2
 441 662 436 644 425 628 c 2
 36 63 l 1
 410 63 l 2
 427 63 441 49 441 31 c 2
 441 16 l 2
 441 7 434 0 425 0 c 2
 -9 0 l 2
EndSplineSet
EndUndoOperation
UndoOperation
Index: 41
Type: 1
WasModified: 1
WasOrder2: 0
Layer: 2
Width: 566
VWidth: 1000
LBearingChange: 0
UnicodeEnc: 0
InstructionsLength: 0
SplineSet
345 344 m 6
 32 344 l 2
 14 344 33 358 33 375 c 2
 33 391 l 2
 33 400 40 407 49 407 c 2
 375 407 l 6
 415 407 406 375 406 375 c 6
 407 393 l 6
 407 393 441.36328125 344 345 344 c 6
-9 0 m 2
 -18 0 -25 7 -25 16 c 2
 -25 57 l 2
 -25 76 -20 94 -9 109 c 2
 380 674 l 1
 32 674 l 2
 14 674 0 688 0 705 c 2
 0 721 l 2
 0 730 7 737 16 737 c 2
 410 737 l 2
 427 737 441 723 441 705 c 2
 441 681 l 2
 441 662 436 644 425 628 c 2
 36 63 l 1
 410 63 l 2
 427 63 441 49 441 31 c 2
 441 16 l 2
 441 7 434 0 425 0 c 2
 -9 0 l 2
EndSplineSet
EndUndoOperation
UndoOperation
Index: 42
Type: 1
WasModified: 1
WasOrder2: 0
Layer: 2
Width: 566
VWidth: 1000
LBearingChange: 0
UnicodeEnc: 0
InstructionsLength: 0
SplineSet
346 344 m 6
 32 344 l 2
 14 344 33 358 33 375 c 2
 33 391 l 2
 33 400 40 407 49 407 c 2
 376 407 l 6
 416 407 407 375 407 375 c 6
 408 393 l 6
 408 393 442.36328125 344 346 344 c 6
-9 0 m 2
 -18 0 -25 7 -25 16 c 2
 -25 57 l 2
 -25 76 -20 94 -9 109 c 2
 380 674 l 1
 32 674 l 2
 14 674 0 688 0 705 c 2
 0 721 l 2
 0 730 7 737 16 737 c 2
 410 737 l 2
 427 737 441 723 441 705 c 2
 441 681 l 2
 441 662 436 644 425 628 c 2
 36 63 l 1
 410 63 l 2
 427 63 441 49 441 31 c 2
 441 16 l 2
 441 7 434 0 425 0 c 2
 -9 0 l 2
EndSplineSet
EndUndoOperation
UndoOperation
Index: 43
Type: 1
WasModified: 1
WasOrder2: 0
Layer: 2
Width: 566
VWidth: 1000
LBearingChange: 0
UnicodeEnc: 0
InstructionsLength: 0
SplineSet
347 344 m 6
 32 344 l 2
 14 344 33 358 33 375 c 2
 33 391 l 2
 33 400 40 407 49 407 c 2
 377 407 l 6
 417 407 408 375 408 375 c 6
 409 393 l 6
 409 393 443.36328125 344 347 344 c 6
-9 0 m 2
 -18 0 -25 7 -25 16 c 2
 -25 57 l 2
 -25 76 -20 94 -9 109 c 2
 380 674 l 1
 32 674 l 2
 14 674 0 688 0 705 c 2
 0 721 l 2
 0 730 7 737 16 737 c 2
 410 737 l 2
 427 737 441 723 441 705 c 2
 441 681 l 2
 441 662 436 644 425 628 c 2
 36 63 l 1
 410 63 l 2
 427 63 441 49 441 31 c 2
 441 16 l 2
 441 7 434 0 425 0 c 2
 -9 0 l 2
EndSplineSet
EndUndoOperation
UndoOperation
Index: 44
Type: 1
WasModified: 1
WasOrder2: 0
Layer: 2
Width: 566
VWidth: 1000
LBearingChange: 0
UnicodeEnc: 0
InstructionsLength: 0
SplineSet
348 344 m 6
 32 344 l 2
 14 344 33 358 33 375 c 2
 33 391 l 2
 33 400 40 407 49 407 c 2
 378 407 l 6
 418 407 409 375 409 375 c 6
 410 393 l 6
 410 393 444.36328125 344 348 344 c 6
-9 0 m 2
 -18 0 -25 7 -25 16 c 2
 -25 57 l 2
 -25 76 -20 94 -9 109 c 2
 380 674 l 1
 32 674 l 2
 14 674 0 688 0 705 c 2
 0 721 l 2
 0 730 7 737 16 737 c 2
 410 737 l 2
 427 737 441 723 441 705 c 2
 441 681 l 2
 441 662 436 644 425 628 c 2
 36 63 l 1
 410 63 l 2
 427 63 441 49 441 31 c 2
 441 16 l 2
 441 7 434 0 425 0 c 2
 -9 0 l 2
EndSplineSet
EndUndoOperation
UndoOperation
Index: 45
Type: 1
WasModified: 1
WasOrder2: 0
Layer: 2
Width: 566
VWidth: 1000
LBearingChange: 0
UnicodeEnc: 0
InstructionsLength: 0
SplineSet
349 344 m 6
 32 344 l 2
 14 344 33 358 33 375 c 2
 33 391 l 2
 33 400 40 407 49 407 c 2
 379 407 l 6
 419 407 410 375 410 375 c 6
 411 393 l 6
 411 393 445.36328125 344 349 344 c 6
-9 0 m 2
 -18 0 -25 7 -25 16 c 2
 -25 57 l 2
 -25 76 -20 94 -9 109 c 2
 380 674 l 1
 32 674 l 2
 14 674 0 688 0 705 c 2
 0 721 l 2
 0 730 7 737 16 737 c 2
 410 737 l 2
 427 737 441 723 441 705 c 2
 441 681 l 2
 441 662 436 644 425 628 c 2
 36 63 l 1
 410 63 l 2
 427 63 441 49 441 31 c 2
 441 16 l 2
 441 7 434 0 425 0 c 2
 -9 0 l 2
EndSplineSet
EndUndoOperation
UndoOperation
Index: 46
Type: 1
WasModified: 1
WasOrder2: 0
Layer: 2
Width: 566
VWidth: 1000
LBearingChange: 0
UnicodeEnc: 0
InstructionsLength: 0
SplineSet
350 344 m 6
 32 344 l 2
 14 344 33 358 33 375 c 2
 33 391 l 2
 33 400 40 407 49 407 c 2
 380 407 l 6
 420 407 411 375 411 375 c 6
 412 393 l 6
 412 393 446.36328125 344 350 344 c 6
-9 0 m 2
 -18 0 -25 7 -25 16 c 2
 -25 57 l 2
 -25 76 -20 94 -9 109 c 2
 380 674 l 1
 32 674 l 2
 14 674 0 688 0 705 c 2
 0 721 l 2
 0 730 7 737 16 737 c 2
 410 737 l 2
 427 737 441 723 441 705 c 2
 441 681 l 2
 441 662 436 644 425 628 c 2
 36 63 l 1
 410 63 l 2
 427 63 441 49 441 31 c 2
 441 16 l 2
 441 7 434 0 425 0 c 2
 -9 0 l 2
EndSplineSet
EndUndoOperation
UndoOperation
Index: 47
Type: 1
WasModified: 1
WasOrder2: 0
Layer: 2
Width: 566
VWidth: 1000
LBearingChange: 0
UnicodeEnc: 0
InstructionsLength: 0
SplineSet
351 344 m 6
 32 344 l 2
 14 344 33 358 33 375 c 2
 33 391 l 2
 33 400 40 407 49 407 c 2
 381 407 l 6
 421 407 412 375 412 375 c 6
 413 393 l 6
 413 393 447.36328125 344 351 344 c 6
-9 0 m 2
 -18 0 -25 7 -25 16 c 2
 -25 57 l 2
 -25 76 -20 94 -9 109 c 2
 380 674 l 1
 32 674 l 2
 14 674 0 688 0 705 c 2
 0 721 l 2
 0 730 7 737 16 737 c 2
 410 737 l 2
 427 737 441 723 441 705 c 2
 441 681 l 2
 441 662 436 644 425 628 c 2
 36 63 l 1
 410 63 l 2
 427 63 441 49 441 31 c 2
 441 16 l 2
 441 7 434 0 425 0 c 2
 -9 0 l 2
EndSplineSet
EndUndoOperation
UndoOperation
Index: 48
Type: 1
WasModified: 1
WasOrder2: 0
Layer: 2
Width: 566
VWidth: 1000
LBearingChange: 0
UnicodeEnc: 0
InstructionsLength: 0
SplineSet
352 344 m 6
 32 344 l 2
 14 344 33 358 33 375 c 2
 33 391 l 2
 33 400 40 407 49 407 c 2
 382 407 l 6
 422 407 413 375 413 375 c 6
 414 393 l 6
 414 393 448.36328125 344 352 344 c 6
-9 0 m 2
 -18 0 -25 7 -25 16 c 2
 -25 57 l 2
 -25 76 -20 94 -9 109 c 2
 380 674 l 1
 32 674 l 2
 14 674 0 688 0 705 c 2
 0 721 l 2
 0 730 7 737 16 737 c 2
 410 737 l 2
 427 737 441 723 441 705 c 2
 441 681 l 2
 441 662 436 644 425 628 c 2
 36 63 l 1
 410 63 l 2
 427 63 441 49 441 31 c 2
 441 16 l 2
 441 7 434 0 425 0 c 2
 -9 0 l 2
EndSplineSet
EndUndoOperation
UndoOperation
Index: 49
Type: 1
WasModified: 1
WasOrder2: 0
Layer: 2
Width: 566
VWidth: 1000
LBearingChange: 0
UnicodeEnc: 0
InstructionsLength: 0
SplineSet
353 344 m 6
 32 344 l 2
 14 344 33 358 33 375 c 2
 33 391 l 2
 33 400 40 407 49 407 c 2
 383 407 l 6
 423 407 414 375 414 375 c 6
 415 393 l 6
 415 393 449.36328125 344 353 344 c 6
-9 0 m 2
 -18 0 -25 7 -25 16 c 2
 -25 57 l 2
 -25 76 -20 94 -9 109 c 2
 380 674 l 1
 32 674 l 2
 14 674 0 688 0 705 c 2
 0 721 l 2
 0 730 7 737 16 737 c 2
 410 737 l 2
 427 737 441 723 441 705 c 2
 441 681 l 2
 441 662 436 644 425 628 c 2
 36 63 l 1
 410 63 l 2
 427 63 441 49 441 31 c 2
 441 16 l 2
 441 7 434 0 425 0 c 2
 -9 0 l 2
EndSplineSet
EndUndoOperation
UndoOperation
Index: 50
Type: 1
WasModified: 1
WasOrder2: 0
Layer: 2
Width: 566
VWidth: 1000
LBearingChange: 0
UnicodeEnc: 0
InstructionsLength: 0
SplineSet
354 344 m 6
 32 344 l 2
 14 344 33 358 33 375 c 2
 33 391 l 2
 33 400 40 407 49 407 c 2
 384 407 l 6
 424 407 415 375 415 375 c 6
 416 393 l 6
 416 393 450.36328125 344 354 344 c 6
-9 0 m 2
 -18 0 -25 7 -25 16 c 2
 -25 57 l 2
 -25 76 -20 94 -9 109 c 2
 380 674 l 1
 32 674 l 2
 14 674 0 688 0 705 c 2
 0 721 l 2
 0 730 7 737 16 737 c 2
 410 737 l 2
 427 737 441 723 441 705 c 2
 441 681 l 2
 441 662 436 644 425 628 c 2
 36 63 l 1
 410 63 l 2
 427 63 441 49 441 31 c 2
 441 16 l 2
 441 7 434 0 425 0 c 2
 -9 0 l 2
EndSplineSet
EndUndoOperation
UndoOperation
Index: 51
Type: 1
WasModified: 1
WasOrder2: 0
Layer: 2
Width: 566
VWidth: 1000
LBearingChange: 0
UnicodeEnc: 0
InstructionsLength: 0
SplineSet
355 344 m 6
 32 344 l 2
 14 344 33 358 33 375 c 2
 33 391 l 2
 33 400 40 407 49 407 c 2
 385 407 l 6
 425 407 416 375 416 375 c 6
 417 393 l 6
 417 393 451.36328125 344 355 344 c 6
-9 0 m 2
 -18 0 -25 7 -25 16 c 2
 -25 57 l 2
 -25 76 -20 94 -9 109 c 2
 380 674 l 1
 32 674 l 2
 14 674 0 688 0 705 c 2
 0 721 l 2
 0 730 7 737 16 737 c 2
 410 737 l 2
 427 737 441 723 441 705 c 2
 441 681 l 2
 441 662 436 644 425 628 c 2
 36 63 l 1
 410 63 l 2
 427 63 441 49 441 31 c 2
 441 16 l 2
 441 7 434 0 425 0 c 2
 -9 0 l 2
EndSplineSet
EndUndoOperation
UndoOperation
Index: 52
Type: 1
WasModified: 1
WasOrder2: 0
Layer: 2
Width: 566
VWidth: 1000
LBearingChange: 0
UnicodeEnc: 0
InstructionsLength: 0
SplineSet
356 344 m 6
 32 344 l 2
 14 344 33 358 33 375 c 2
 33 391 l 2
 33 400 40 407 49 407 c 2
 386 407 l 6
 426 407 417 375 417 375 c 6
 418 393 l 6
 418 393 452.36328125 344 356 344 c 6
-9 0 m 2
 -18 0 -25 7 -25 16 c 2
 -25 57 l 2
 -25 76 -20 94 -9 109 c 2
 380 674 l 1
 32 674 l 2
 14 674 0 688 0 705 c 2
 0 721 l 2
 0 730 7 737 16 737 c 2
 410 737 l 2
 427 737 441 723 441 705 c 2
 441 681 l 2
 441 662 436 644 425 628 c 2
 36 63 l 1
 410 63 l 2
 427 63 441 49 441 31 c 2
 441 16 l 2
 441 7 434 0 425 0 c 2
 -9 0 l 2
EndSplineSet
EndUndoOperation
UndoOperation
Index: 53
Type: 1
WasModified: 1
WasOrder2: 0
Layer: 2
Width: 566
VWidth: 1000
LBearingChange: 0
UnicodeEnc: 0
InstructionsLength: 0
SplineSet
357 344 m 6
 32 344 l 2
 14 344 33 358 33 375 c 2
 33 391 l 2
 33 400 40 407 49 407 c 2
 387 407 l 6
 427 407 418 375 418 375 c 6
 419 393 l 6
 419 393 453.36328125 344 357 344 c 6
-9 0 m 2
 -18 0 -25 7 -25 16 c 2
 -25 57 l 2
 -25 76 -20 94 -9 109 c 2
 380 674 l 1
 32 674 l 2
 14 674 0 688 0 705 c 2
 0 721 l 2
 0 730 7 737 16 737 c 2
 410 737 l 2
 427 737 441 723 441 705 c 2
 441 681 l 2
 441 662 436 644 425 628 c 2
 36 63 l 1
 410 63 l 2
 427 63 441 49 441 31 c 2
 441 16 l 2
 441 7 434 0 425 0 c 2
 -9 0 l 2
EndSplineSet
EndUndoOperation
UndoOperation
Index: 54
Type: 1
WasModified: 1
WasOrder2: 0
Layer: 2
Width: 566
VWidth: 1000
LBearingChange: 0
UnicodeEnc: 0
InstructionsLength: 0
SplineSet
358 344 m 6
 32 344 l 2
 14 344 33 358 33 375 c 2
 33 391 l 2
 33 400 40 407 49 407 c 2
 388 407 l 6
 428 407 419 375 419 375 c 6
 420 393 l 6
 420 393 454.36328125 344 358 344 c 6
-9 0 m 2
 -18 0 -25 7 -25 16 c 2
 -25 57 l 2
 -25 76 -20 94 -9 109 c 2
 380 674 l 1
 32 674 l 2
 14 674 0 688 0 705 c 2
 0 721 l 2
 0 730 7 737 16 737 c 2
 410 737 l 2
 427 737 441 723 441 705 c 2
 441 681 l 2
 441 662 436 644 425 628 c 2
 36 63 l 1
 410 63 l 2
 427 63 441 49 441 31 c 2
 441 16 l 2
 441 7 434 0 425 0 c 2
 -9 0 l 2
EndSplineSet
EndUndoOperation
UndoOperation
Index: 55
Type: 1
WasModified: 1
WasOrder2: 0
Layer: 2
Width: 566
VWidth: 1000
LBearingChange: 0
UnicodeEnc: 0
InstructionsLength: 0
SplineSet
359 344 m 6
 32 344 l 2
 14 344 33 358 33 375 c 2
 33 391 l 2
 33 400 40 407 49 407 c 2
 389 407 l 6
 429 407 420 375 420 375 c 6
 421 393 l 6
 421 393 455.36328125 344 359 344 c 6
-9 0 m 2
 -18 0 -25 7 -25 16 c 2
 -25 57 l 2
 -25 76 -20 94 -9 109 c 2
 380 674 l 1
 32 674 l 2
 14 674 0 688 0 705 c 2
 0 721 l 2
 0 730 7 737 16 737 c 2
 410 737 l 2
 427 737 441 723 441 705 c 2
 441 681 l 2
 441 662 436 644 425 628 c 2
 36 63 l 1
 410 63 l 2
 427 63 441 49 441 31 c 2
 441 16 l 2
 441 7 434 0 425 0 c 2
 -9 0 l 2
EndSplineSet
EndUndoOperation
UndoOperation
Index: 56
Type: 1
WasModified: 1
WasOrder2: 0
Layer: 2
Width: 566
VWidth: 1000
LBearingChange: 0
UnicodeEnc: 0
InstructionsLength: 0
SplineSet
360 344 m 6
 32 344 l 2
 14 344 33 358 33 375 c 2
 33 391 l 2
 33 400 40 407 49 407 c 2
 390 407 l 6
 430 407 421 375 421 375 c 6
 422 393 l 6
 422 393 456.36328125 344 360 344 c 6
-9 0 m 2
 -18 0 -25 7 -25 16 c 2
 -25 57 l 2
 -25 76 -20 94 -9 109 c 2
 380 674 l 1
 32 674 l 2
 14 674 0 688 0 705 c 2
 0 721 l 2
 0 730 7 737 16 737 c 2
 410 737 l 2
 427 737 441 723 441 705 c 2
 441 681 l 2
 441 662 436 644 425 628 c 2
 36 63 l 1
 410 63 l 2
 427 63 441 49 441 31 c 2
 441 16 l 2
 441 7 434 0 425 0 c 2
 -9 0 l 2
EndSplineSet
EndUndoOperation
UndoOperation
Index: 57
Type: 1
WasModified: 1
WasOrder2: 0
Layer: 2
Width: 566
VWidth: 1000
LBearingChange: 0
UnicodeEnc: 0
InstructionsLength: 0
SplineSet
361 344 m 6
 32 344 l 2
 14 344 33 358 33 375 c 2
 33 391 l 2
 33 400 40 407 49 407 c 2
 391 407 l 6
 431 407 422 375 422 375 c 6
 423 393 l 6
 423 393 457.36328125 344 361 344 c 6
-9 0 m 2
 -18 0 -25 7 -25 16 c 2
 -25 57 l 2
 -25 76 -20 94 -9 109 c 2
 380 674 l 1
 32 674 l 2
 14 674 0 688 0 705 c 2
 0 721 l 2
 0 730 7 737 16 737 c 2
 410 737 l 2
 427 737 441 723 441 705 c 2
 441 681 l 2
 441 662 436 644 425 628 c 2
 36 63 l 1
 410 63 l 2
 427 63 441 49 441 31 c 2
 441 16 l 2
 441 7 434 0 425 0 c 2
 -9 0 l 2
EndSplineSet
EndUndoOperation
UndoOperation
Index: 58
Type: 1
WasModified: 1
WasOrder2: 0
Layer: 2
Width: 566
VWidth: 1000
LBearingChange: 0
UnicodeEnc: 0
InstructionsLength: 0
SplineSet
362 344 m 6
 32 344 l 2
 14 344 33 358 33 375 c 2
 33 391 l 2
 33 400 40 407 49 407 c 2
 392 407 l 6
 432 407 423 375 423 375 c 6
 424 393 l 6
 424 393 458.36328125 344 362 344 c 6
-9 0 m 2
 -18 0 -25 7 -25 16 c 2
 -25 57 l 2
 -25 76 -20 94 -9 109 c 2
 380 674 l 1
 32 674 l 2
 14 674 0 688 0 705 c 2
 0 721 l 2
 0 730 7 737 16 737 c 2
 410 737 l 2
 427 737 441 723 441 705 c 2
 441 681 l 2
 441 662 436 644 425 628 c 2
 36 63 l 1
 410 63 l 2
 427 63 441 49 441 31 c 2
 441 16 l 2
 441 7 434 0 425 0 c 2
 -9 0 l 2
EndSplineSet
EndUndoOperation
UndoOperation
Index: 59
Type: 1
WasModified: 1
WasOrder2: 0
Layer: 2
Width: 566
VWidth: 1000
LBearingChange: 0
UnicodeEnc: 0
InstructionsLength: 0
SplineSet
363 344 m 6
 32 344 l 2
 14 344 33 358 33 375 c 2
 33 391 l 2
 33 400 40 407 49 407 c 2
 393 407 l 6
 433 407 424 375 424 375 c 6
 425 393 l 6
 425 393 459.36328125 344 363 344 c 6
-9 0 m 2
 -18 0 -25 7 -25 16 c 2
 -25 57 l 2
 -25 76 -20 94 -9 109 c 2
 380 674 l 1
 32 674 l 2
 14 674 0 688 0 705 c 2
 0 721 l 2
 0 730 7 737 16 737 c 2
 410 737 l 2
 427 737 441 723 441 705 c 2
 441 681 l 2
 441 662 436 644 425 628 c 2
 36 63 l 1
 410 63 l 2
 427 63 441 49 441 31 c 2
 441 16 l 2
 441 7 434 0 425 0 c 2
 -9 0 l 2
EndSplineSet
EndUndoOperation
UndoOperation
Index: 60
Type: 1
WasModified: 1
WasOrder2: 0
Layer: 2
Width: 566
VWidth: 1000
LBearingChange: 0
UnicodeEnc: 0
InstructionsLength: 0
SplineSet
364 344 m 6
 32 344 l 2
 14 344 33 358 33 375 c 2
 33 391 l 2
 33 400 40 407 49 407 c 2
 394 407 l 6
 434 407 425 375 425 375 c 6
 426 393 l 6
 426 393 460.36328125 344 364 344 c 6
-9 0 m 2
 -18 0 -25 7 -25 16 c 2
 -25 57 l 2
 -25 76 -20 94 -9 109 c 2
 380 674 l 1
 32 674 l 2
 14 674 0 688 0 705 c 2
 0 721 l 2
 0 730 7 737 16 737 c 2
 410 737 l 2
 427 737 441 723 441 705 c 2
 441 681 l 2
 441 662 436 644 425 628 c 2
 36 63 l 1
 410 63 l 2
 427 63 441 49 441 31 c 2
 441 16 l 2
 441 7 434 0 425 0 c 2
 -9 0 l 2
EndSplineSet
EndUndoOperation
UndoOperation
Index: 61
Type: 1
WasModified: 1
WasOrder2: 0
Layer: 2
Width: 566
VWidth: 1000
LBearingChange: 0
UnicodeEnc: 0
InstructionsLength: 0
SplineSet
365 344 m 6
 32 344 l 2
 14 344 33 358 33 375 c 2
 33 391 l 2
 33 400 40 407 49 407 c 2
 395 407 l 6
 435 407 426 375 426 375 c 6
 427 393 l 6
 427 393 461.36328125 344 365 344 c 6
-9 0 m 2
 -18 0 -25 7 -25 16 c 2
 -25 57 l 2
 -25 76 -20 94 -9 109 c 2
 380 674 l 1
 32 674 l 2
 14 674 0 688 0 705 c 2
 0 721 l 2
 0 730 7 737 16 737 c 2
 410 737 l 2
 427 737 441 723 441 705 c 2
 441 681 l 2
 441 662 436 644 425 628 c 2
 36 63 l 1
 410 63 l 2
 427 63 441 49 441 31 c 2
 441 16 l 2
 441 7 434 0 425 0 c 2
 -9 0 l 2
EndSplineSet
EndUndoOperation
UndoOperation
Index: 62
Type: 1
WasModified: 1
WasOrder2: 0
Layer: 2
Width: 566
VWidth: 1000
LBearingChange: 0
UnicodeEnc: 0
InstructionsLength: 0
SplineSet
366 344 m 6
 32 344 l 2
 14 344 33 358 33 375 c 2
 33 391 l 2
 33 400 40 407 49 407 c 2
 396 407 l 6
 436 407 427 375 427 375 c 6
 428 393 l 6
 428 393 462.36328125 344 366 344 c 6
-9 0 m 2
 -18 0 -25 7 -25 16 c 2
 -25 57 l 2
 -25 76 -20 94 -9 109 c 2
 380 674 l 1
 32 674 l 2
 14 674 0 688 0 705 c 2
 0 721 l 2
 0 730 7 737 16 737 c 2
 410 737 l 2
 427 737 441 723 441 705 c 2
 441 681 l 2
 441 662 436 644 425 628 c 2
 36 63 l 1
 410 63 l 2
 427 63 441 49 441 31 c 2
 441 16 l 2
 441 7 434 0 425 0 c 2
 -9 0 l 2
EndSplineSet
EndUndoOperation
UndoOperation
Index: 63
Type: 1
WasModified: 1
WasOrder2: 0
Layer: 2
Width: 566
VWidth: 1000
LBearingChange: 0
UnicodeEnc: 0
InstructionsLength: 0
SplineSet
367 344 m 6
 32 344 l 2
 14 344 33 358 33 375 c 2
 33 391 l 2
 33 400 40 407 49 407 c 2
 397 407 l 6
 437 407 428 375 428 375 c 6
 429 393 l 6
 429 393 463.36328125 344 367 344 c 6
-9 0 m 2
 -18 0 -25 7 -25 16 c 2
 -25 57 l 2
 -25 76 -20 94 -9 109 c 2
 380 674 l 1
 32 674 l 2
 14 674 0 688 0 705 c 2
 0 721 l 2
 0 730 7 737 16 737 c 2
 410 737 l 2
 427 737 441 723 441 705 c 2
 441 681 l 2
 441 662 436 644 425 628 c 2
 36 63 l 1
 410 63 l 2
 427 63 441 49 441 31 c 2
 441 16 l 2
 441 7 434 0 425 0 c 2
 -9 0 l 2
EndSplineSet
EndUndoOperation
UndoOperation
Index: 64
Type: 1
WasModified: 1
WasOrder2: 0
Layer: 2
Width: 566
VWidth: 1000
LBearingChange: 0
UnicodeEnc: 0
InstructionsLength: 0
SplineSet
368 344 m 6
 32 344 l 2
 14 344 33 358 33 375 c 2
 33 391 l 2
 33 400 40 407 49 407 c 2
 398 407 l 6
 438 407 429 375 429 375 c 6
 430 393 l 6
 430 393 464.36328125 344 368 344 c 6
-9 0 m 2
 -18 0 -25 7 -25 16 c 2
 -25 57 l 2
 -25 76 -20 94 -9 109 c 2
 380 674 l 1
 32 674 l 2
 14 674 0 688 0 705 c 2
 0 721 l 2
 0 730 7 737 16 737 c 2
 410 737 l 2
 427 737 441 723 441 705 c 2
 441 681 l 2
 441 662 436 644 425 628 c 2
 36 63 l 1
 410 63 l 2
 427 63 441 49 441 31 c 2
 441 16 l 2
 441 7 434 0 425 0 c 2
 -9 0 l 2
EndSplineSet
EndUndoOperation
UndoOperation
Index: 65
Type: 1
WasModified: 1
WasOrder2: 0
Layer: 2
Width: 566
VWidth: 1000
LBearingChange: 0
UnicodeEnc: 0
InstructionsLength: 0
SplineSet
369 344 m 6
 32 344 l 2
 14 344 33 358 33 375 c 2
 33 391 l 2
 33 400 40 407 49 407 c 2
 399 407 l 6
 439 407 430 375 430 375 c 6
 431 393 l 6
 431 393 465.36328125 344 369 344 c 6
-9 0 m 2
 -18 0 -25 7 -25 16 c 2
 -25 57 l 2
 -25 76 -20 94 -9 109 c 2
 380 674 l 1
 32 674 l 2
 14 674 0 688 0 705 c 2
 0 721 l 2
 0 730 7 737 16 737 c 2
 410 737 l 2
 427 737 441 723 441 705 c 2
 441 681 l 2
 441 662 436 644 425 628 c 2
 36 63 l 1
 410 63 l 2
 427 63 441 49 441 31 c 2
 441 16 l 2
 441 7 434 0 425 0 c 2
 -9 0 l 2
EndSplineSet
EndUndoOperation
UndoOperation
Index: 66
Type: 1
WasModified: 1
WasOrder2: 0
Layer: 2
Width: 566
VWidth: 1000
LBearingChange: 0
UnicodeEnc: 0
InstructionsLength: 0
SplineSet
370 344 m 6
 32 344 l 2
 14 344 33 358 33 375 c 2
 33 391 l 2
 33 400 40 407 49 407 c 2
 400 407 l 6
 440 407 431 375 431 375 c 6
 432 393 l 6
 432 393 466.36328125 344 370 344 c 6
-9 0 m 2
 -18 0 -25 7 -25 16 c 2
 -25 57 l 2
 -25 76 -20 94 -9 109 c 2
 380 674 l 1
 32 674 l 2
 14 674 0 688 0 705 c 2
 0 721 l 2
 0 730 7 737 16 737 c 2
 410 737 l 2
 427 737 441 723 441 705 c 2
 441 681 l 2
 441 662 436 644 425 628 c 2
 36 63 l 1
 410 63 l 2
 427 63 441 49 441 31 c 2
 441 16 l 2
 441 7 434 0 425 0 c 2
 -9 0 l 2
EndSplineSet
EndUndoOperation
UndoOperation
Index: 67
Type: 1
WasModified: 1
WasOrder2: 0
Layer: 2
Width: 566
VWidth: 1000
LBearingChange: 0
UnicodeEnc: 0
InstructionsLength: 0
SplineSet
371 344 m 6
 32 344 l 2
 14 344 33 358 33 375 c 2
 33 391 l 2
 33 400 40 407 49 407 c 2
 401 407 l 6
 441 407 432 375 432 375 c 6
 433 393 l 6
 433 393 467.36328125 344 371 344 c 6
-9 0 m 2
 -18 0 -25 7 -25 16 c 2
 -25 57 l 2
 -25 76 -20 94 -9 109 c 2
 380 674 l 1
 32 674 l 2
 14 674 0 688 0 705 c 2
 0 721 l 2
 0 730 7 737 16 737 c 2
 410 737 l 2
 427 737 441 723 441 705 c 2
 441 681 l 2
 441 662 436 644 425 628 c 2
 36 63 l 1
 410 63 l 2
 427 63 441 49 441 31 c 2
 441 16 l 2
 441 7 434 0 425 0 c 2
 -9 0 l 2
EndSplineSet
EndUndoOperation
UndoOperation
Index: 68
Type: 1
WasModified: 1
WasOrder2: 0
Layer: 2
Width: 566
VWidth: 1000
LBearingChange: 0
UnicodeEnc: 0
InstructionsLength: 0
SplineSet
372 344 m 6
 32 344 l 2
 14 344 33 358 33 375 c 2
 33 391 l 2
 33 400 40 407 49 407 c 2
 402 407 l 6
 442 407 433 375 433 375 c 6
 434 393 l 6
 434 393 468.36328125 344 372 344 c 6
-9 0 m 2
 -18 0 -25 7 -25 16 c 2
 -25 57 l 2
 -25 76 -20 94 -9 109 c 2
 380 674 l 1
 32 674 l 2
 14 674 0 688 0 705 c 2
 0 721 l 2
 0 730 7 737 16 737 c 2
 410 737 l 2
 427 737 441 723 441 705 c 2
 441 681 l 2
 441 662 436 644 425 628 c 2
 36 63 l 1
 410 63 l 2
 427 63 441 49 441 31 c 2
 441 16 l 2
 441 7 434 0 425 0 c 2
 -9 0 l 2
EndSplineSet
EndUndoOperation
UndoOperation
Index: 69
Type: 1
WasModified: 1
WasOrder2: 0
Layer: 2
Width: 566
VWidth: 1000
LBearingChange: 0
UnicodeEnc: 0
InstructionsLength: 0
SplineSet
373 344 m 6
 32 344 l 2
 14 344 33 358 33 375 c 2
 33 391 l 2
 33 400 40 407 49 407 c 2
 403 407 l 6
 443 407 434 375 434 375 c 6
 435 393 l 6
 435 393 469.36328125 344 373 344 c 6
-9 0 m 2
 -18 0 -25 7 -25 16 c 2
 -25 57 l 2
 -25 76 -20 94 -9 109 c 2
 380 674 l 1
 32 674 l 2
 14 674 0 688 0 705 c 2
 0 721 l 2
 0 730 7 737 16 737 c 2
 410 737 l 2
 427 737 441 723 441 705 c 2
 441 681 l 2
 441 662 436 644 425 628 c 2
 36 63 l 1
 410 63 l 2
 427 63 441 49 441 31 c 2
 441 16 l 2
 441 7 434 0 425 0 c 2
 -9 0 l 2
EndSplineSet
EndUndoOperation
UndoOperation
Index: 70
Type: 1
WasModified: 1
WasOrder2: 0
Layer: 2
Width: 566
VWidth: 1000
LBearingChange: 0
UnicodeEnc: 0
InstructionsLength: 0
SplineSet
374 344 m 6
 32 344 l 2
 14 344 33 358 33 375 c 2
 33 391 l 2
 33 400 40 407 49 407 c 2
 404 407 l 6
 444 407 435 375 435 375 c 6
 436 393 l 6
 436 393 470.36328125 344 374 344 c 6
-9 0 m 2
 -18 0 -25 7 -25 16 c 2
 -25 57 l 2
 -25 76 -20 94 -9 109 c 2
 380 674 l 1
 32 674 l 2
 14 674 0 688 0 705 c 2
 0 721 l 2
 0 730 7 737 16 737 c 2
 410 737 l 2
 427 737 441 723 441 705 c 2
 441 681 l 2
 441 662 436 644 425 628 c 2
 36 63 l 1
 410 63 l 2
 427 63 441 49 441 31 c 2
 441 16 l 2
 441 7 434 0 425 0 c 2
 -9 0 l 2
EndSplineSet
EndUndoOperation
UndoOperation
Index: 71
Type: 1
WasModified: 1
WasOrder2: 0
Layer: 2
Width: 566
VWidth: 1000
LBearingChange: 0
UnicodeEnc: 0
InstructionsLength: 0
SplineSet
375 344 m 6
 32 344 l 2
 14 344 33 358 33 375 c 2
 33 391 l 2
 33 400 40 407 49 407 c 2
 405 407 l 6
 445 407 436 375 436 375 c 6
 437 393 l 6
 437 393 471.36328125 344 375 344 c 6
-9 0 m 2
 -18 0 -25 7 -25 16 c 2
 -25 57 l 2
 -25 76 -20 94 -9 109 c 2
 380 674 l 1
 32 674 l 2
 14 674 0 688 0 705 c 2
 0 721 l 2
 0 730 7 737 16 737 c 2
 410 737 l 2
 427 737 441 723 441 705 c 2
 441 681 l 2
 441 662 436 644 425 628 c 2
 36 63 l 1
 410 63 l 2
 427 63 441 49 441 31 c 2
 441 16 l 2
 441 7 434 0 425 0 c 2
 -9 0 l 2
EndSplineSet
EndUndoOperation
UndoOperation
Index: 72
Type: 1
WasModified: 1
WasOrder2: 0
Layer: 2
Width: 566
VWidth: 1000
LBearingChange: 0
UnicodeEnc: 0
InstructionsLength: 0
SplineSet
376 344 m 6
 32 344 l 2
 14 344 33 358 33 375 c 2
 33 391 l 2
 33 400 40 407 49 407 c 2
 406 407 l 6
 446 407 437 375 437 375 c 6
 438 393 l 6
 438 393 472.36328125 344 376 344 c 6
-9 0 m 2
 -18 0 -25 7 -25 16 c 2
 -25 57 l 2
 -25 76 -20 94 -9 109 c 2
 380 674 l 1
 32 674 l 2
 14 674 0 688 0 705 c 2
 0 721 l 2
 0 730 7 737 16 737 c 2
 410 737 l 2
 427 737 441 723 441 705 c 2
 441 681 l 2
 441 662 436 644 425 628 c 2
 36 63 l 1
 410 63 l 2
 427 63 441 49 441 31 c 2
 441 16 l 2
 441 7 434 0 425 0 c 2
 -9 0 l 2
EndSplineSet
EndUndoOperation
UndoOperation
Index: 73
Type: 1
WasModified: 1
WasOrder2: 0
Layer: 2
Width: 566
VWidth: 1000
LBearingChange: 0
UnicodeEnc: 0
InstructionsLength: 0
SplineSet
377 344 m 6
 32 344 l 2
 14 344 33 358 33 375 c 2
 33 391 l 2
 33 400 40 407 49 407 c 2
 407 407 l 6
 447 407 438 375 438 375 c 6
 439 393 l 6
 439 393 473.36328125 344 377 344 c 6
-9 0 m 2
 -18 0 -25 7 -25 16 c 2
 -25 57 l 2
 -25 76 -20 94 -9 109 c 2
 380 674 l 1
 32 674 l 2
 14 674 0 688 0 705 c 2
 0 721 l 2
 0 730 7 737 16 737 c 2
 410 737 l 2
 427 737 441 723 441 705 c 2
 441 681 l 2
 441 662 436 644 425 628 c 2
 36 63 l 1
 410 63 l 2
 427 63 441 49 441 31 c 2
 441 16 l 2
 441 7 434 0 425 0 c 2
 -9 0 l 2
EndSplineSet
EndUndoOperation
UndoOperation
Index: 74
Type: 1
WasModified: 1
WasOrder2: 0
Layer: 2
Width: 566
VWidth: 1000
LBearingChange: 0
UnicodeEnc: 0
InstructionsLength: 0
SplineSet
378 344 m 6
 32 344 l 2
 14 344 33 358 33 375 c 2
 33 391 l 2
 33 400 40 407 49 407 c 2
 408 407 l 6
 448 407 439 375 439 375 c 6
 440 393 l 6
 440 393 474.36328125 344 378 344 c 6
-9 0 m 2
 -18 0 -25 7 -25 16 c 2
 -25 57 l 2
 -25 76 -20 94 -9 109 c 2
 380 674 l 1
 32 674 l 2
 14 674 0 688 0 705 c 2
 0 721 l 2
 0 730 7 737 16 737 c 2
 410 737 l 2
 427 737 441 723 441 705 c 2
 441 681 l 2
 441 662 436 644 425 628 c 2
 36 63 l 1
 410 63 l 2
 427 63 441 49 441 31 c 2
 441 16 l 2
 441 7 434 0 425 0 c 2
 -9 0 l 2
EndSplineSet
EndUndoOperation
UndoOperation
Index: 75
Type: 1
WasModified: 1
WasOrder2: 0
Layer: 2
Width: 566
VWidth: 1000
LBearingChange: 0
UnicodeEnc: 0
InstructionsLength: 0
SplineSet
379 344 m 6
 32 344 l 2
 14 344 33 358 33 375 c 2
 33 391 l 2
 33 400 40 407 49 407 c 2
 409 407 l 6
 449 407 440 375 440 375 c 6
 441 393 l 6
 441 393 475.36328125 344 379 344 c 6
-9 0 m 2
 -18 0 -25 7 -25 16 c 2
 -25 57 l 2
 -25 76 -20 94 -9 109 c 2
 380 674 l 1
 32 674 l 2
 14 674 0 688 0 705 c 2
 0 721 l 2
 0 730 7 737 16 737 c 2
 410 737 l 2
 427 737 441 723 441 705 c 2
 441 681 l 2
 441 662 436 644 425 628 c 2
 36 63 l 1
 410 63 l 2
 427 63 441 49 441 31 c 2
 441 16 l 2
 441 7 434 0 425 0 c 2
 -9 0 l 2
EndSplineSet
EndUndoOperation
UndoOperation
Index: 76
Type: 1
WasModified: 1
WasOrder2: 0
Layer: 2
Width: 566
VWidth: 1000
LBearingChange: 0
UnicodeEnc: 0
InstructionsLength: 0
SplineSet
380 344 m 6
 32 344 l 2
 14 344 33 358 33 375 c 2
 33 391 l 2
 33 400 40 407 49 407 c 2
 410 407 l 6
 450 407 441 375 441 375 c 6
 442 393 l 6
 442 393 476.363757305 344 380 344 c 6
-9 0 m 2
 -18 0 -25 7 -25 16 c 2
 -25 57 l 2
 -25 76 -20 94 -9 109 c 2
 380 674 l 1
 32 674 l 2
 14 674 0 688 0 705 c 2
 0 721 l 2
 0 730 7 737 16 737 c 2
 410 737 l 2
 427 737 441 723 441 705 c 2
 441 681 l 2
 441 662 436 644 425 628 c 2
 36 63 l 1
 410 63 l 2
 427 63 441 49 441 31 c 2
 441 16 l 2
 441 7 434 0 425 0 c 2
 -9 0 l 2
EndSplineSet
EndUndoOperation
UndoOperation
Index: 77
Type: 1
WasModified: 1
WasOrder2: 0
Layer: 2
Width: 566
VWidth: 1000
LBearingChange: 0
UnicodeEnc: 0
InstructionsLength: 0
SplineSet
380 344 m 2
 32 344 l 2
 14 344 32 358 32 375 c 6
 32 391 l 6
 32 400 39 407 48 407 c 6
 410 407 l 2
 450 407 441 375 441 375 c 2
 442 393 l 2
 442 393 476.363757305 344 380 344 c 2
-9 0 m 2
 -18 0 -25 7 -25 16 c 2
 -25 57 l 2
 -25 76 -20 94 -9 109 c 2
 380 674 l 1
 32 674 l 2
 14 674 0 688 0 705 c 2
 0 721 l 2
 0 730 7 737 16 737 c 2
 410 737 l 2
 427 737 441 723 441 705 c 2
 441 681 l 2
 441 662 436 644 425 628 c 2
 36 63 l 1
 410 63 l 2
 427 63 441 49 441 31 c 2
 441 16 l 2
 441 7 434 0 425 0 c 2
 -9 0 l 2
EndSplineSet
EndUndoOperation
UndoOperation
Index: 78
Type: 1
WasModified: 1
WasOrder2: 0
Layer: 2
Width: 566
VWidth: 1000
LBearingChange: 0
UnicodeEnc: 0
InstructionsLength: 0
SplineSet
380 344 m 2
 32 344 l 2
 14 344 31 358 31 375 c 6
 31 391 l 6
 31 400 38 407 47 407 c 6
 410 407 l 2
 450 407 441 375 441 375 c 2
 442 393 l 2
 442 393 476.363757305 344 380 344 c 2
-9 0 m 2
 -18 0 -25 7 -25 16 c 2
 -25 57 l 2
 -25 76 -20 94 -9 109 c 2
 380 674 l 1
 32 674 l 2
 14 674 0 688 0 705 c 2
 0 721 l 2
 0 730 7 737 16 737 c 2
 410 737 l 2
 427 737 441 723 441 705 c 2
 441 681 l 2
 441 662 436 644 425 628 c 2
 36 63 l 1
 410 63 l 2
 427 63 441 49 441 31 c 2
 441 16 l 2
 441 7 434 0 425 0 c 2
 -9 0 l 2
EndSplineSet
EndUndoOperation
UndoOperation
Index: 79
Type: 1
WasModified: 1
WasOrder2: 0
Layer: 2
Width: 566
VWidth: 1000
LBearingChange: 0
UnicodeEnc: 0
InstructionsLength: 0
SplineSet
380 344 m 2
 32 344 l 2
 14 344 30 358 30 375 c 6
 30 391 l 6
 30 400 37 407 46 407 c 6
 410 407 l 2
 450 407 441 375 441 375 c 2
 442 393 l 2
 442 393 476.363757305 344 380 344 c 2
-9 0 m 2
 -18 0 -25 7 -25 16 c 2
 -25 57 l 2
 -25 76 -20 94 -9 109 c 2
 380 674 l 1
 32 674 l 2
 14 674 0 688 0 705 c 2
 0 721 l 2
 0 730 7 737 16 737 c 2
 410 737 l 2
 427 737 441 723 441 705 c 2
 441 681 l 2
 441 662 436 644 425 628 c 2
 36 63 l 1
 410 63 l 2
 427 63 441 49 441 31 c 2
 441 16 l 2
 441 7 434 0 425 0 c 2
 -9 0 l 2
EndSplineSet
EndUndoOperation
UndoOperation
Index: 80
Type: 1
WasModified: 1
WasOrder2: 0
Layer: 2
Width: 566
VWidth: 1000
LBearingChange: 0
UnicodeEnc: 0
InstructionsLength: 0
SplineSet
380 344 m 2
 32 344 l 2
 14 344 29 358 29 375 c 6
 29 391 l 6
 29 400 36 407 45 407 c 6
 410 407 l 2
 450 407 441 375 441 375 c 2
 442 393 l 2
 442 393 476.363757305 344 380 344 c 2
-9 0 m 2
 -18 0 -25 7 -25 16 c 2
 -25 57 l 2
 -25 76 -20 94 -9 109 c 2
 380 674 l 1
 32 674 l 2
 14 674 0 688 0 705 c 2
 0 721 l 2
 0 730 7 737 16 737 c 2
 410 737 l 2
 427 737 441 723 441 705 c 2
 441 681 l 2
 441 662 436 644 425 628 c 2
 36 63 l 1
 410 63 l 2
 427 63 441 49 441 31 c 2
 441 16 l 2
 441 7 434 0 425 0 c 2
 -9 0 l 2
EndSplineSet
EndUndoOperation
UndoOperation
Index: 81
Type: 1
WasModified: 1
WasOrder2: 0
Layer: 2
Width: 566
VWidth: 1000
LBearingChange: 0
UnicodeEnc: 0
InstructionsLength: 0
SplineSet
380 344 m 2
 32 344 l 2
 14 344 28 358 28 375 c 6
 28 391 l 6
 28 400 35 407 44 407 c 6
 410 407 l 2
 450 407 441 375 441 375 c 2
 442 393 l 2
 442 393 476.363757305 344 380 344 c 2
-9 0 m 2
 -18 0 -25 7 -25 16 c 2
 -25 57 l 2
 -25 76 -20 94 -9 109 c 2
 380 674 l 1
 32 674 l 2
 14 674 0 688 0 705 c 2
 0 721 l 2
 0 730 7 737 16 737 c 2
 410 737 l 2
 427 737 441 723 441 705 c 2
 441 681 l 2
 441 662 436 644 425 628 c 2
 36 63 l 1
 410 63 l 2
 427 63 441 49 441 31 c 2
 441 16 l 2
 441 7 434 0 425 0 c 2
 -9 0 l 2
EndSplineSet
EndUndoOperation
UndoOperation
Index: 82
Type: 1
WasModified: 1
WasOrder2: 0
Layer: 2
Width: 566
VWidth: 1000
LBearingChange: 0
UnicodeEnc: 0
InstructionsLength: 0
SplineSet
380 344 m 2
 32 344 l 2
 14 344 27 358 27 375 c 6
 27 391 l 6
 27 400 34 407 43 407 c 6
 410 407 l 2
 450 407 441 375 441 375 c 2
 442 393 l 2
 442 393 476.363757305 344 380 344 c 2
-9 0 m 2
 -18 0 -25 7 -25 16 c 2
 -25 57 l 2
 -25 76 -20 94 -9 109 c 2
 380 674 l 1
 32 674 l 2
 14 674 0 688 0 705 c 2
 0 721 l 2
 0 730 7 737 16 737 c 2
 410 737 l 2
 427 737 441 723 441 705 c 2
 441 681 l 2
 441 662 436 644 425 628 c 2
 36 63 l 1
 410 63 l 2
 427 63 441 49 441 31 c 2
 441 16 l 2
 441 7 434 0 425 0 c 2
 -9 0 l 2
EndSplineSet
EndUndoOperation
UndoOperation
Index: 83
Type: 1
WasModified: 1
WasOrder2: 0
Layer: 2
Width: 566
VWidth: 1000
LBearingChange: 0
UnicodeEnc: 0
InstructionsLength: 0
SplineSet
380 344 m 2
 32 344 l 2
 14 344 26 358 26 375 c 6
 26 391 l 6
 26 400 33 407 42 407 c 6
 410 407 l 2
 450 407 441 375 441 375 c 2
 442 393 l 2
 442 393 476.363757305 344 380 344 c 2
-9 0 m 2
 -18 0 -25 7 -25 16 c 2
 -25 57 l 2
 -25 76 -20 94 -9 109 c 2
 380 674 l 1
 32 674 l 2
 14 674 0 688 0 705 c 2
 0 721 l 2
 0 730 7 737 16 737 c 2
 410 737 l 2
 427 737 441 723 441 705 c 2
 441 681 l 2
 441 662 436 644 425 628 c 2
 36 63 l 1
 410 63 l 2
 427 63 441 49 441 31 c 2
 441 16 l 2
 441 7 434 0 425 0 c 2
 -9 0 l 2
EndSplineSet
EndUndoOperation
UndoOperation
Index: 84
Type: 1
WasModified: 1
WasOrder2: 0
Layer: 2
Width: 566
VWidth: 1000
LBearingChange: 0
UnicodeEnc: 0
InstructionsLength: 0
SplineSet
380 344 m 2
 32 344 l 2
 14 344 25 358 25 375 c 6
 25 391 l 6
 25 400 32 407 41 407 c 6
 410 407 l 2
 450 407 441 375 441 375 c 2
 442 393 l 2
 442 393 476.363757305 344 380 344 c 2
-9 0 m 2
 -18 0 -25 7 -25 16 c 2
 -25 57 l 2
 -25 76 -20 94 -9 109 c 2
 380 674 l 1
 32 674 l 2
 14 674 0 688 0 705 c 2
 0 721 l 2
 0 730 7 737 16 737 c 2
 410 737 l 2
 427 737 441 723 441 705 c 2
 441 681 l 2
 441 662 436 644 425 628 c 2
 36 63 l 1
 410 63 l 2
 427 63 441 49 441 31 c 2
 441 16 l 2
 441 7 434 0 425 0 c 2
 -9 0 l 2
EndSplineSet
EndUndoOperation
UndoOperation
Index: 85
Type: 1
WasModified: 1
WasOrder2: 0
Layer: 2
Width: 566
VWidth: 1000
LBearingChange: 0
UnicodeEnc: 0
InstructionsLength: 0
SplineSet
380 344 m 2
 32 344 l 2
 14 344 24 358 24 375 c 6
 24 391 l 6
 24 400 31 407 40 407 c 6
 410 407 l 2
 450 407 441 375 441 375 c 2
 442 393 l 2
 442 393 476.363757305 344 380 344 c 2
-9 0 m 2
 -18 0 -25 7 -25 16 c 2
 -25 57 l 2
 -25 76 -20 94 -9 109 c 2
 380 674 l 1
 32 674 l 2
 14 674 0 688 0 705 c 2
 0 721 l 2
 0 730 7 737 16 737 c 2
 410 737 l 2
 427 737 441 723 441 705 c 2
 441 681 l 2
 441 662 436 644 425 628 c 2
 36 63 l 1
 410 63 l 2
 427 63 441 49 441 31 c 2
 441 16 l 2
 441 7 434 0 425 0 c 2
 -9 0 l 2
EndSplineSet
EndUndoOperation
UndoOperation
Index: 86
Type: 1
WasModified: 1
WasOrder2: 0
Layer: 2
Width: 566
VWidth: 1000
LBearingChange: 0
UnicodeEnc: 0
InstructionsLength: 0
SplineSet
380 344 m 2
 32 344 l 2
 14 344 23 358 23 375 c 6
 23 391 l 6
 23 400 30 407 39 407 c 6
 410 407 l 2
 450 407 441 375 441 375 c 2
 442 393 l 2
 442 393 476.363757305 344 380 344 c 2
-9 0 m 2
 -18 0 -25 7 -25 16 c 2
 -25 57 l 2
 -25 76 -20 94 -9 109 c 2
 380 674 l 1
 32 674 l 2
 14 674 0 688 0 705 c 2
 0 721 l 2
 0 730 7 737 16 737 c 2
 410 737 l 2
 427 737 441 723 441 705 c 2
 441 681 l 2
 441 662 436 644 425 628 c 2
 36 63 l 1
 410 63 l 2
 427 63 441 49 441 31 c 2
 441 16 l 2
 441 7 434 0 425 0 c 2
 -9 0 l 2
EndSplineSet
EndUndoOperation
UndoOperation
Index: 87
Type: 1
WasModified: 1
WasOrder2: 0
Layer: 2
Width: 566
VWidth: 1000
LBearingChange: 0
UnicodeEnc: 0
InstructionsLength: 0
SplineSet
380 344 m 2
 32 344 l 2
 14 344 22 358 22 375 c 6
 22 391 l 6
 22 400 29 407 38 407 c 6
 410 407 l 2
 450 407 441 375 441 375 c 2
 442 393 l 2
 442 393 476.363757305 344 380 344 c 2
-9 0 m 2
 -18 0 -25 7 -25 16 c 2
 -25 57 l 2
 -25 76 -20 94 -9 109 c 2
 380 674 l 1
 32 674 l 2
 14 674 0 688 0 705 c 2
 0 721 l 2
 0 730 7 737 16 737 c 2
 410 737 l 2
 427 737 441 723 441 705 c 2
 441 681 l 2
 441 662 436 644 425 628 c 2
 36 63 l 1
 410 63 l 2
 427 63 441 49 441 31 c 2
 441 16 l 2
 441 7 434 0 425 0 c 2
 -9 0 l 2
EndSplineSet
EndUndoOperation
UndoOperation
Index: 88
Type: 1
WasModified: 1
WasOrder2: 0
Layer: 2
Width: 566
VWidth: 1000
LBearingChange: 0
UnicodeEnc: 0
InstructionsLength: 0
SplineSet
380 344 m 2
 32 344 l 2
 14 344 21 358 21 375 c 6
 21 391 l 6
 21 400 28 407 37 407 c 6
 410 407 l 2
 450 407 441 375 441 375 c 2
 442 393 l 2
 442 393 476.363757305 344 380 344 c 2
-9 0 m 2
 -18 0 -25 7 -25 16 c 2
 -25 57 l 2
 -25 76 -20 94 -9 109 c 2
 380 674 l 1
 32 674 l 2
 14 674 0 688 0 705 c 2
 0 721 l 2
 0 730 7 737 16 737 c 2
 410 737 l 2
 427 737 441 723 441 705 c 2
 441 681 l 2
 441 662 436 644 425 628 c 2
 36 63 l 1
 410 63 l 2
 427 63 441 49 441 31 c 2
 441 16 l 2
 441 7 434 0 425 0 c 2
 -9 0 l 2
EndSplineSet
EndUndoOperation
UndoOperation
Index: 89
Type: 1
WasModified: 1
WasOrder2: 0
Layer: 2
Width: 566
VWidth: 1000
LBearingChange: 0
UnicodeEnc: 0
InstructionsLength: 0
SplineSet
380 344 m 2
 32 344 l 2
 14 344 20 358 20 375 c 6
 20 391 l 6
 20 400 27 407 36 407 c 6
 410 407 l 2
 450 407 441 375 441 375 c 2
 442 393 l 2
 442 393 476.363757305 344 380 344 c 2
-9 0 m 2
 -18 0 -25 7 -25 16 c 2
 -25 57 l 2
 -25 76 -20 94 -9 109 c 2
 380 674 l 1
 32 674 l 2
 14 674 0 688 0 705 c 2
 0 721 l 2
 0 730 7 737 16 737 c 2
 410 737 l 2
 427 737 441 723 441 705 c 2
 441 681 l 2
 441 662 436 644 425 628 c 2
 36 63 l 1
 410 63 l 2
 427 63 441 49 441 31 c 2
 441 16 l 2
 441 7 434 0 425 0 c 2
 -9 0 l 2
EndSplineSet
EndUndoOperation
UndoOperation
Index: 90
Type: 1
WasModified: 1
WasOrder2: 0
Layer: 2
Width: 566
VWidth: 1000
LBearingChange: 0
UnicodeEnc: 0
InstructionsLength: 0
SplineSet
380 344 m 2
 32 344 l 2
 14 344 19 358 19 375 c 6
 19 391 l 6
 19 400 26 407 35 407 c 6
 410 407 l 2
 450 407 441 375 441 375 c 2
 442 393 l 2
 442 393 476.363757305 344 380 344 c 2
-9 0 m 2
 -18 0 -25 7 -25 16 c 2
 -25 57 l 2
 -25 76 -20 94 -9 109 c 2
 380 674 l 1
 32 674 l 2
 14 674 0 688 0 705 c 2
 0 721 l 2
 0 730 7 737 16 737 c 2
 410 737 l 2
 427 737 441 723 441 705 c 2
 441 681 l 2
 441 662 436 644 425 628 c 2
 36 63 l 1
 410 63 l 2
 427 63 441 49 441 31 c 2
 441 16 l 2
 441 7 434 0 425 0 c 2
 -9 0 l 2
EndSplineSet
EndUndoOperation
UndoOperation
Index: 91
Type: 1
WasModified: 1
WasOrder2: 0
Layer: 2
Width: 566
VWidth: 1000
LBearingChange: 0
UnicodeEnc: 0
InstructionsLength: 0
SplineSet
380 344 m 2
 32 344 l 2
 14 344 18 358 18 375 c 6
 18 391 l 6
 18 400 25 407 34 407 c 6
 410 407 l 2
 450 407 441 375 441 375 c 2
 442 393 l 2
 442 393 476.363757305 344 380 344 c 2
-9 0 m 2
 -18 0 -25 7 -25 16 c 2
 -25 57 l 2
 -25 76 -20 94 -9 109 c 2
 380 674 l 1
 32 674 l 2
 14 674 0 688 0 705 c 2
 0 721 l 2
 0 730 7 737 16 737 c 2
 410 737 l 2
 427 737 441 723 441 705 c 2
 441 681 l 2
 441 662 436 644 425 628 c 2
 36 63 l 1
 410 63 l 2
 427 63 441 49 441 31 c 2
 441 16 l 2
 441 7 434 0 425 0 c 2
 -9 0 l 2
EndSplineSet
EndUndoOperation
UndoOperation
Index: 92
Type: 1
WasModified: 1
WasOrder2: 0
Layer: 2
Width: 566
VWidth: 1000
LBearingChange: 0
UnicodeEnc: 0
InstructionsLength: 0
SplineSet
380 344 m 2
 32 344 l 2
 14 344 17 358 17 375 c 6
 17 391 l 6
 17 400 24 407 33 407 c 6
 410 407 l 2
 450 407 441 375 441 375 c 2
 442 393 l 2
 442 393 476.363757305 344 380 344 c 2
-9 0 m 2
 -18 0 -25 7 -25 16 c 2
 -25 57 l 2
 -25 76 -20 94 -9 109 c 2
 380 674 l 1
 32 674 l 2
 14 674 0 688 0 705 c 2
 0 721 l 2
 0 730 7 737 16 737 c 2
 410 737 l 2
 427 737 441 723 441 705 c 2
 441 681 l 2
 441 662 436 644 425 628 c 2
 36 63 l 1
 410 63 l 2
 427 63 441 49 441 31 c 2
 441 16 l 2
 441 7 434 0 425 0 c 2
 -9 0 l 2
EndSplineSet
EndUndoOperation
UndoOperation
Index: 93
Type: 1
WasModified: 1
WasOrder2: 0
Layer: 2
Width: 566
VWidth: 1000
LBearingChange: 0
UnicodeEnc: 0
InstructionsLength: 0
SplineSet
380 344 m 2
 32 344 l 2
 14 344 16 358 16 375 c 6
 16 391 l 6
 16 400 23 407 32 407 c 6
 410 407 l 2
 450 407 441 375 441 375 c 2
 442 393 l 2
 442 393 476.363757305 344 380 344 c 2
-9 0 m 2
 -18 0 -25 7 -25 16 c 2
 -25 57 l 2
 -25 76 -20 94 -9 109 c 2
 380 674 l 1
 32 674 l 2
 14 674 0 688 0 705 c 2
 0 721 l 2
 0 730 7 737 16 737 c 2
 410 737 l 2
 427 737 441 723 441 705 c 2
 441 681 l 2
 441 662 436 644 425 628 c 2
 36 63 l 1
 410 63 l 2
 427 63 441 49 441 31 c 2
 441 16 l 2
 441 7 434 0 425 0 c 2
 -9 0 l 2
EndSplineSet
EndUndoOperation
UndoOperation
Index: 94
Type: 1
WasModified: 1
WasOrder2: 0
Layer: 2
Width: 566
VWidth: 1000
LBearingChange: 0
UnicodeEnc: 0
InstructionsLength: 0
SplineSet
380 344 m 2
 32 344 l 2
 14 344 15 358 15 375 c 6
 15 391 l 6
 15 400 22 407 31 407 c 6
 410 407 l 2
 450 407 441 375 441 375 c 2
 442 393 l 2
 442 393 476.363757305 344 380 344 c 2
-9 0 m 2
 -18 0 -25 7 -25 16 c 2
 -25 57 l 2
 -25 76 -20 94 -9 109 c 2
 380 674 l 1
 32 674 l 2
 14 674 0 688 0 705 c 2
 0 721 l 2
 0 730 7 737 16 737 c 2
 410 737 l 2
 427 737 441 723 441 705 c 2
 441 681 l 2
 441 662 436 644 425 628 c 2
 36 63 l 1
 410 63 l 2
 427 63 441 49 441 31 c 2
 441 16 l 2
 441 7 434 0 425 0 c 2
 -9 0 l 2
EndSplineSet
EndUndoOperation
UndoOperation
Index: 95
Type: 1
WasModified: 1
WasOrder2: 0
Layer: 2
Width: 566
VWidth: 1000
LBearingChange: 0
UnicodeEnc: 0
InstructionsLength: 0
SplineSet
380 344 m 2
 32 344 l 2
 14 344 14 358 14 375 c 6
 14 391 l 6
 14 400 21 407 30 407 c 6
 410 407 l 2
 450 407 441 375 441 375 c 2
 442 393 l 2
 442 393 476.363757305 344 380 344 c 2
-9 0 m 2
 -18 0 -25 7 -25 16 c 2
 -25 57 l 2
 -25 76 -20 94 -9 109 c 2
 380 674 l 1
 32 674 l 2
 14 674 0 688 0 705 c 2
 0 721 l 2
 0 730 7 737 16 737 c 2
 410 737 l 2
 427 737 441 723 441 705 c 2
 441 681 l 2
 441 662 436 644 425 628 c 2
 36 63 l 1
 410 63 l 2
 427 63 441 49 441 31 c 2
 441 16 l 2
 441 7 434 0 425 0 c 2
 -9 0 l 2
EndSplineSet
EndUndoOperation
UndoOperation
Index: 96
Type: 1
WasModified: 1
WasOrder2: 0
Layer: 2
Width: 566
VWidth: 1000
LBearingChange: 0
UnicodeEnc: 0
InstructionsLength: 0
SplineSet
380 344 m 2
 32 344 l 2
 14 344 13 358 13 375 c 6
 13 391 l 6
 13 400 20 407 29 407 c 6
 410 407 l 2
 450 407 441 375 441 375 c 2
 442 393 l 2
 442 393 476.363757305 344 380 344 c 2
-9 0 m 2
 -18 0 -25 7 -25 16 c 2
 -25 57 l 2
 -25 76 -20 94 -9 109 c 2
 380 674 l 1
 32 674 l 2
 14 674 0 688 0 705 c 2
 0 721 l 2
 0 730 7 737 16 737 c 2
 410 737 l 2
 427 737 441 723 441 705 c 2
 441 681 l 2
 441 662 436 644 425 628 c 2
 36 63 l 1
 410 63 l 2
 427 63 441 49 441 31 c 2
 441 16 l 2
 441 7 434 0 425 0 c 2
 -9 0 l 2
EndSplineSet
EndUndoOperation
UndoOperation
Index: 97
Type: 1
WasModified: 1
WasOrder2: 0
Layer: 2
Width: 566
VWidth: 1000
LBearingChange: 0
UnicodeEnc: 0
InstructionsLength: 0
SplineSet
380 344 m 2
 32 344 l 2
 14 344 12 358 12 375 c 6
 12 391 l 6
 12 400 19 407 28 407 c 6
 410 407 l 2
 450 407 441 375 441 375 c 2
 442 393 l 2
 442 393 476.363757305 344 380 344 c 2
-9 0 m 2
 -18 0 -25 7 -25 16 c 2
 -25 57 l 2
 -25 76 -20 94 -9 109 c 2
 380 674 l 1
 32 674 l 2
 14 674 0 688 0 705 c 2
 0 721 l 2
 0 730 7 737 16 737 c 2
 410 737 l 2
 427 737 441 723 441 705 c 2
 441 681 l 2
 441 662 436 644 425 628 c 2
 36 63 l 1
 410 63 l 2
 427 63 441 49 441 31 c 2
 441 16 l 2
 441 7 434 0 425 0 c 2
 -9 0 l 2
EndSplineSet
EndUndoOperation
UndoOperation
Index: 98
Type: 1
WasModified: 1
WasOrder2: 0
Layer: 2
Width: 566
VWidth: 1000
LBearingChange: 0
UnicodeEnc: 0
InstructionsLength: 0
SplineSet
380 344 m 2
 32 344 l 2
 14 344 11 358 11 375 c 6
 11 391 l 6
 11 400 18 407 27 407 c 6
 410 407 l 2
 450 407 441 375 441 375 c 2
 442 393 l 2
 442 393 476.363757305 344 380 344 c 2
-9 0 m 2
 -18 0 -25 7 -25 16 c 2
 -25 57 l 2
 -25 76 -20 94 -9 109 c 2
 380 674 l 1
 32 674 l 2
 14 674 0 688 0 705 c 2
 0 721 l 2
 0 730 7 737 16 737 c 2
 410 737 l 2
 427 737 441 723 441 705 c 2
 441 681 l 2
 441 662 436 644 425 628 c 2
 36 63 l 1
 410 63 l 2
 427 63 441 49 441 31 c 2
 441 16 l 2
 441 7 434 0 425 0 c 2
 -9 0 l 2
EndSplineSet
EndUndoOperation
UndoOperation
Index: 99
Type: 1
WasModified: 1
WasOrder2: 0
Layer: 2
Width: 566
VWidth: 1000
LBearingChange: 0
UnicodeEnc: 0
InstructionsLength: 0
SplineSet
380 344 m 2
 32 344 l 2
 14 344 10 358 10 375 c 6
 10 391 l 6
 10 400 17 407 26 407 c 6
 410 407 l 2
 450 407 441 375 441 375 c 2
 442 393 l 2
 442 393 476.363757305 344 380 344 c 2
-9 0 m 2
 -18 0 -25 7 -25 16 c 2
 -25 57 l 2
 -25 76 -20 94 -9 109 c 2
 380 674 l 1
 32 674 l 2
 14 674 0 688 0 705 c 2
 0 721 l 2
 0 730 7 737 16 737 c 2
 410 737 l 2
 427 737 441 723 441 705 c 2
 441 681 l 2
 441 662 436 644 425 628 c 2
 36 63 l 1
 410 63 l 2
 427 63 441 49 441 31 c 2
 441 16 l 2
 441 7 434 0 425 0 c 2
 -9 0 l 2
EndSplineSet
EndUndoOperation
UndoOperation
Index: 100
Type: 1
WasModified: 1
WasOrder2: 0
Layer: 2
Width: 566
VWidth: 1000
LBearingChange: 0
UnicodeEnc: 0
InstructionsLength: 0
SplineSet
380 344 m 2
 32 344 l 2
 14 344 9 358 9 375 c 6
 9 391 l 6
 9 400 16 407 25 407 c 6
 410 407 l 2
 450 407 441 375 441 375 c 2
 442 393 l 2
 442 393 476.363757305 344 380 344 c 2
-9 0 m 2
 -18 0 -25 7 -25 16 c 2
 -25 57 l 2
 -25 76 -20 94 -9 109 c 2
 380 674 l 1
 32 674 l 2
 14 674 0 688 0 705 c 2
 0 721 l 2
 0 730 7 737 16 737 c 2
 410 737 l 2
 427 737 441 723 441 705 c 2
 441 681 l 2
 441 662 436 644 425 628 c 2
 36 63 l 1
 410 63 l 2
 427 63 441 49 441 31 c 2
 441 16 l 2
 441 7 434 0 425 0 c 2
 -9 0 l 2
EndSplineSet
EndUndoOperation
UndoOperation
Index: 101
Type: 1
WasModified: 1
WasOrder2: 0
Layer: 2
Width: 566
VWidth: 1000
LBearingChange: 0
UnicodeEnc: 0
InstructionsLength: 0
SplineSet
380 344 m 2
 32 344 l 2
 14 344 8 358 8 375 c 6
 8 391 l 6
 8 400 15 407 24 407 c 6
 410 407 l 2
 450 407 441 375 441 375 c 2
 442 393 l 2
 442 393 476.363757305 344 380 344 c 2
-9 0 m 2
 -18 0 -25 7 -25 16 c 2
 -25 57 l 2
 -25 76 -20 94 -9 109 c 2
 380 674 l 1
 32 674 l 2
 14 674 0 688 0 705 c 2
 0 721 l 2
 0 730 7 737 16 737 c 2
 410 737 l 2
 427 737 441 723 441 705 c 2
 441 681 l 2
 441 662 436 644 425 628 c 2
 36 63 l 1
 410 63 l 2
 427 63 441 49 441 31 c 2
 441 16 l 2
 441 7 434 0 425 0 c 2
 -9 0 l 2
EndSplineSet
EndUndoOperation
UndoOperation
Index: 102
Type: 1
WasModified: 1
WasOrder2: 0
Layer: 2
Width: 566
VWidth: 1000
LBearingChange: 0
UnicodeEnc: 0
InstructionsLength: 0
SplineSet
380 344 m 2
 32 344 l 2
 14 344 7 358 7 375 c 6
 7 391 l 6
 7 400 14 407 23 407 c 6
 410 407 l 2
 450 407 441 375 441 375 c 2
 442 393 l 2
 442 393 476.363757305 344 380 344 c 2
-9 0 m 2
 -18 0 -25 7 -25 16 c 2
 -25 57 l 2
 -25 76 -20 94 -9 109 c 2
 380 674 l 1
 32 674 l 2
 14 674 0 688 0 705 c 2
 0 721 l 2
 0 730 7 737 16 737 c 2
 410 737 l 2
 427 737 441 723 441 705 c 2
 441 681 l 2
 441 662 436 644 425 628 c 2
 36 63 l 1
 410 63 l 2
 427 63 441 49 441 31 c 2
 441 16 l 2
 441 7 434 0 425 0 c 2
 -9 0 l 2
EndSplineSet
EndUndoOperation
UndoOperation
Index: 103
Type: 1
WasModified: 1
WasOrder2: 0
Layer: 2
Width: 566
VWidth: 1000
LBearingChange: 0
UnicodeEnc: 0
InstructionsLength: 0
SplineSet
380 344 m 2
 32 344 l 2
 14 344 6 358 6 375 c 6
 6 391 l 6
 6 400 13 407 22 407 c 6
 410 407 l 2
 450 407 441 375 441 375 c 2
 442 393 l 2
 442 393 476.363757305 344 380 344 c 2
-9 0 m 2
 -18 0 -25 7 -25 16 c 2
 -25 57 l 2
 -25 76 -20 94 -9 109 c 2
 380 674 l 1
 32 674 l 2
 14 674 0 688 0 705 c 2
 0 721 l 2
 0 730 7 737 16 737 c 2
 410 737 l 2
 427 737 441 723 441 705 c 2
 441 681 l 2
 441 662 436 644 425 628 c 2
 36 63 l 1
 410 63 l 2
 427 63 441 49 441 31 c 2
 441 16 l 2
 441 7 434 0 425 0 c 2
 -9 0 l 2
EndSplineSet
EndUndoOperation
UndoOperation
Index: 104
Type: 1
WasModified: 1
WasOrder2: 0
Layer: 2
Width: 566
VWidth: 1000
LBearingChange: 0
UnicodeEnc: 0
InstructionsLength: 0
SplineSet
380 344 m 2
 32 344 l 2
 14 344 5 358 5 375 c 6
 5 391 l 6
 5 400 12 407 21 407 c 6
 410 407 l 2
 450 407 441 375 441 375 c 2
 442 393 l 2
 442 393 476.363757305 344 380 344 c 2
-9 0 m 2
 -18 0 -25 7 -25 16 c 2
 -25 57 l 2
 -25 76 -20 94 -9 109 c 2
 380 674 l 1
 32 674 l 2
 14 674 0 688 0 705 c 2
 0 721 l 2
 0 730 7 737 16 737 c 2
 410 737 l 2
 427 737 441 723 441 705 c 2
 441 681 l 2
 441 662 436 644 425 628 c 2
 36 63 l 1
 410 63 l 2
 427 63 441 49 441 31 c 2
 441 16 l 2
 441 7 434 0 425 0 c 2
 -9 0 l 2
EndSplineSet
EndUndoOperation
UndoOperation
Index: 105
Type: 1
WasModified: 1
WasOrder2: 0
Layer: 2
Width: 566
VWidth: 1000
LBearingChange: 0
UnicodeEnc: 0
InstructionsLength: 0
SplineSet
380 344 m 2
 32 344 l 2
 14 344 4 358 4 375 c 6
 4 391 l 6
 4 400 11 407 20 407 c 6
 410 407 l 2
 450 407 441 375 441 375 c 2
 442 393 l 2
 442 393 476.363757305 344 380 344 c 2
-9 0 m 2
 -18 0 -25 7 -25 16 c 2
 -25 57 l 2
 -25 76 -20 94 -9 109 c 2
 380 674 l 1
 32 674 l 2
 14 674 0 688 0 705 c 2
 0 721 l 2
 0 730 7 737 16 737 c 2
 410 737 l 2
 427 737 441 723 441 705 c 2
 441 681 l 2
 441 662 436 644 425 628 c 2
 36 63 l 1
 410 63 l 2
 427 63 441 49 441 31 c 2
 441 16 l 2
 441 7 434 0 425 0 c 2
 -9 0 l 2
EndSplineSet
EndUndoOperation
UndoOperation
Index: 106
Type: 1
WasModified: 1
WasOrder2: 0
Layer: 2
Width: 566
VWidth: 1000
LBearingChange: 0
UnicodeEnc: 0
InstructionsLength: 0
SplineSet
380 344 m 2
 32 344 l 2
 14 344 3 358 3 375 c 6
 3 391 l 6
 3 400 10 407 19 407 c 6
 410 407 l 2
 450 407 441 375 441 375 c 2
 442 393 l 2
 442 393 476.363757305 344 380 344 c 2
-9 0 m 2
 -18 0 -25 7 -25 16 c 2
 -25 57 l 2
 -25 76 -20 94 -9 109 c 2
 380 674 l 1
 32 674 l 2
 14 674 0 688 0 705 c 2
 0 721 l 2
 0 730 7 737 16 737 c 2
 410 737 l 2
 427 737 441 723 441 705 c 2
 441 681 l 2
 441 662 436 644 425 628 c 2
 36 63 l 1
 410 63 l 2
 427 63 441 49 441 31 c 2
 441 16 l 2
 441 7 434 0 425 0 c 2
 -9 0 l 2
EndSplineSet
EndUndoOperation
UndoOperation
Index: 107
Type: 1
WasModified: 1
WasOrder2: 0
Layer: 2
Width: 566
VWidth: 1000
LBearingChange: 0
UnicodeEnc: 0
InstructionsLength: 0
SplineSet
380 344 m 2
 32 344 l 2
 14 344 2 358 2 375 c 6
 2 391 l 6
 2 400 9 407 18 407 c 6
 410 407 l 2
 450 407 441 375 441 375 c 2
 442 393 l 2
 442 393 476.363757305 344 380 344 c 2
-9 0 m 2
 -18 0 -25 7 -25 16 c 2
 -25 57 l 2
 -25 76 -20 94 -9 109 c 2
 380 674 l 1
 32 674 l 2
 14 674 0 688 0 705 c 2
 0 721 l 2
 0 730 7 737 16 737 c 2
 410 737 l 2
 427 737 441 723 441 705 c 2
 441 681 l 2
 441 662 436 644 425 628 c 2
 36 63 l 1
 410 63 l 2
 427 63 441 49 441 31 c 2
 441 16 l 2
 441 7 434 0 425 0 c 2
 -9 0 l 2
EndSplineSet
EndUndoOperation
UndoOperation
Index: 108
Type: 1
WasModified: 1
WasOrder2: 0
Layer: 2
Width: 566
VWidth: 1000
LBearingChange: 0
UnicodeEnc: 0
InstructionsLength: 0
SplineSet
380 344 m 2
 32 344 l 2
 14 344 1 358 1 375 c 6
 1 391 l 6
 1 400 8 407 17 407 c 6
 410 407 l 2
 450 407 441 375 441 375 c 2
 442 393 l 2
 442 393 476.363757305 344 380 344 c 2
-9 0 m 2
 -18 0 -25 7 -25 16 c 2
 -25 57 l 2
 -25 76 -20 94 -9 109 c 2
 380 674 l 1
 32 674 l 2
 14 674 0 688 0 705 c 2
 0 721 l 2
 0 730 7 737 16 737 c 2
 410 737 l 2
 427 737 441 723 441 705 c 2
 441 681 l 2
 441 662 436 644 425 628 c 2
 36 63 l 1
 410 63 l 2
 427 63 441 49 441 31 c 2
 441 16 l 2
 441 7 434 0 425 0 c 2
 -9 0 l 2
EndSplineSet
EndUndoOperation
UndoOperation
Index: 109
Type: 1
WasModified: 0
WasOrder2: 0
Layer: 2
Width: 566
VWidth: 1000
LBearingChange: 0
UnicodeEnc: 0
InstructionsLength: 0
SplineSet
380 344 m 2
 32 344 l 2
 14 344 0 358 0 375 c 6
 0 391 l 6
 0 400 7 407 16 407 c 6
 410 407 l 2
 450 407 441 375 441 375 c 2
 442 393 l 2
 442 393 476.363757305 344 380 344 c 2
-9 0 m 2
 -18 0 -25 7 -25 16 c 2
 -25 57 l 2
 -25 76 -20 94 -9 109 c 2
 380 674 l 1
 32 674 l 2
 14 674 0 688 0 705 c 2
 0 721 l 2
 0 730 7 737 16 737 c 2
 410 737 l 2
 427 737 441 723 441 705 c 2
 441 681 l 2
 441 662 436 644 425 628 c 2
 36 63 l 1
 410 63 l 2
 427 63 441 49 441 31 c 2
 441 16 l 2
 441 7 434 0 425 0 c 2
 -9 0 l 2
EndSplineSet
EndUndoOperation
UndoOperation
Index: 110
Type: 1
WasModified: 1
WasOrder2: 0
Layer: 2
Width: 566
VWidth: 1000
LBearingChange: 0
UnicodeEnc: 0
InstructionsLength: 0
SplineSet
380 344 m 6
 32 344 l 2
 14 344 0 358 0 375 c 2
 0 391 l 2
 0 400 7 407 16 407 c 2
 410 407 l 6
 427 407 441 375 441 375 c 2
 442 393 l 6
 442 393 476.363757305 344 380 344 c 6
-9 0 m 2
 -18 0 -25 7 -25 16 c 2
 -25 57 l 2
 -25 76 -20 94 -9 109 c 2
 380 674 l 1
 32 674 l 2
 14 674 0 688 0 705 c 2
 0 721 l 2
 0 730 7 737 16 737 c 2
 410 737 l 2
 427 737 441 723 441 705 c 2
 441 681 l 2
 441 662 436 644 425 628 c 2
 36 63 l 1
 410 63 l 2
 427 63 441 49 441 31 c 2
 441 16 l 2
 441 7 434 0 425 0 c 2
 -9 0 l 2
EndSplineSet
EndUndoOperation
EndUndoes
Redoes
EndRedoes
EndUndoRedoHistory
Fore
SplineSet
381 344 m 2
 127 344 l 6
 126 344 132 363 135 375 c 6
 139 391 l 6
 141 400 150 407 158 407 c 6
 424 407 l 2
 461 407 445 375 445 375 c 2
 450 393 l 2
 450 393 471 344 381 344 c 2
-8 0 m 2
 -16 0 -21 7 -19 16 c 2
 -10 57 l 2
 -6 76 3 94 17 109 c 2
 510 674 l 1
 186 674 l 2
 169 674 159 688 163 705 c 2
 167 721 l 2
 169 730 178 737 186 737 c 2
 552 737 l 2
 568 737 577 723 573 705 c 2
 568 681 l 2
 564 662 555 644 541 628 c 2
 49 63 l 1
 396 63 l 2
 412 63 422 49 418 31 c 2
 414 16 l 2
 412 7 404 0 396 0 c 2
 -8 0 l 2
EndSplineSet
EndChar

StartChar: bracketleft
Encoding: 91 91 62
Width: 313
Flags: HMW
LayerCount: 2
UndoRedoHistory
Layer: 1
Undoes
UndoOperation
Index: 0
Type: 3
WasModified: 0
WasOrder2: 0
Layer: 2
EndUndoOperation
EndUndoes
Redoes
EndRedoes
EndUndoRedoHistory
Fore
SplineSet
231 745 m 2
 57 -8 l 2
 55 -16 60 -22 67 -22 c 2
 158 -22 l 2
 165 -22 170 -28 168 -36 c 2
 160 -71 l 2
 158 -79 150 -85 143 -85 c 2
 46 -85 l 2
 10 -85 -12 -53 -3 -14 c 2
 173 751 l 2
 182 790 220 822 256 822 c 2
 353 822 l 2
 360 822 365 816 363 808 c 2
 355 773 l 2
 353 765 345 759 338 759 c 2
 247 759 l 2
 240 759 233 753 231 745 c 2
EndSplineSet
EndChar

StartChar: backslash
Encoding: 92 92 63
Width: 438
Flags: HMW
LayerCount: 2
UndoRedoHistory
Layer: 1
Undoes
UndoOperation
Index: 0
Type: 3
WasModified: 0
WasOrder2: 0
Layer: 2
EndUndoOperation
EndUndoes
Redoes
EndRedoes
EndUndoRedoHistory
Fore
SplineSet
288 0 m 2
 254 0 l 2
 248 0 245 4 244 9 c 2
 168 718 l 2
 166 727 175 737 184 737 c 2
 218 737 l 2
 224 737 228 733 229 728 c 2
 305 19 l 2
 307 10 297 0 288 0 c 2
EndSplineSet
EndChar

StartChar: bracketright
Encoding: 93 93 64
Width: 313
Flags: HMW
LayerCount: 2
UndoRedoHistory
Layer: 1
Undoes
UndoOperation
Index: 0
Type: 3
WasModified: 0
WasOrder2: 0
Layer: 2
EndUndoOperation
EndUndoes
Redoes
EndRedoes
EndUndoRedoHistory
Fore
SplineSet
116 -8 m 2
 290 745 l 2
 292 753 287 759 280 759 c 2
 189 759 l 2
 182 759 176 765 178 773 c 2
 187 808 l 2
 189 816 197 822 204 822 c 2
 300 822 l 2
 336 822 359 790 350 751 c 2
 173 -14 l 2
 164 -53 127 -85 91 -85 c 2
 -6 -85 l 2
 -13 -85 -18 -79 -16 -71 c 2
 -8 -36 l 2
 -6 -28 2 -22 9 -22 c 2
 100 -22 l 2
 107 -22 114 -16 116 -8 c 2
EndSplineSet
EndChar

StartChar: asciicircum
Encoding: 94 94 65
Width: 397
Flags: HMW
LayerCount: 2
UndoRedoHistory
Layer: 1
Undoes
UndoOperation
Index: 0
Type: 3
WasModified: 0
WasOrder2: 0
Layer: 2
EndUndoOperation
EndUndoes
Redoes
EndRedoes
EndUndoRedoHistory
Fore
SplineSet
241 776 m 2
 238 773 235 771 231 771 c 2
 184 771 l 2
 179 771 178 778 182 781 c 2
 312 893 l 2
 328 908 351 908 361 893 c 2
 440 781 l 2
 443 778 439 771 434 771 c 2
 386 771 l 2
 382 771 380 773 378 776 c 2
 335 838 l 2
 330 844 320 844 313 838 c 2
 241 776 l 2
EndSplineSet
EndChar

StartChar: underscore
Encoding: 95 95 66
Width: 674
Flags: HMW
LayerCount: 2
UndoRedoHistory
Layer: 1
Undoes
UndoOperation
Index: 0
Type: 3
WasModified: 0
WasOrder2: 0
Layer: 2
EndUndoOperation
EndUndoes
Redoes
EndRedoes
EndUndoRedoHistory
Fore
SplineSet
548 43 m 2
 543 20 l 2
 540 9 530 0 520 0 c 2
 19 0 l 2
 9 0 2 9 5 20 c 2
 10 43 l 2
 13 54 23 63 33 63 c 2
 534 63 l 2
 544 63 551 54 548 43 c 2
EndSplineSet
EndChar

StartChar: grave
Encoding: 96 96 67
Width: 252
Flags: HMW
LayerCount: 2
UndoRedoHistory
Layer: 1
Undoes
UndoOperation
Index: 0
Type: 3
WasModified: 0
WasOrder2: 0
Layer: 2
EndUndoOperation
EndUndoes
Redoes
EndRedoes
EndUndoRedoHistory
Fore
SplineSet
307 670 m 0
 304 667 300 667 298 670 c 2
 193 818 l 2
 189 824 192 834 199 841 c 2
 212 852 l 2
 219 858 228 862 235 862 c 0
 245 862 252 857 256 849 c 2
 319 711 l 2
 325 698 320 681 307 670 c 0
EndSplineSet
EndChar

StartChar: a
Encoding: 97 97 68
Width: 517
Flags: HW
LayerCount: 2
UndoRedoHistory
Layer: 1
Undoes
UndoOperation
Index: 0
Type: 3
WasModified: 0
WasOrder2: 0
Layer: 2
EndUndoOperation
EndUndoes
Redoes
EndRedoes
EndUndoRedoHistory
Fore
SplineSet
136 -1 m 2
 60 -1 15 66 34 149 c 2
 90 389 l 2
 109 472 185 538 261 538 c 2
 450 538 l 1
 506 539 l 0
 385 14 l 2
 383 5 375 -1 367 -1 c 2
 136 -1 l 2
246 475 m 2
 202 475 156 436 145 387 c 2
 91 151 l 2
 80 102 107 62 151 62 c 2
 340 62 l 1
 435 475 l 1
 246 475 l 2
EndSplineSet
EndChar

StartChar: b
Encoding: 98 98 69
Width: 517
Flags: HW
LayerCount: 2
UndoRedoHistory
Layer: 1
Undoes
UndoOperation
Index: 0
Type: 3
WasModified: 0
WasOrder2: 0
Layer: 2
EndUndoOperation
EndUndoes
Redoes
EndRedoes
EndUndoRedoHistory
Fore
SplineSet
3 15 m 2
 166 721 l 2
 168 729 176 736 184 736 c 2
 198 736 l 2
 214 736 223 720 218 700 c 2
 180 538 l 1
 368 538 l 2
 444 538 490 471 471 388 c 2
 416 149 l 2
 397 66 320 -1 244 -1 c 2
 14 -1 l 2
 6 -1 1 6 3 15 c 2
70 62 m 1
 258 62 l 2
 303 62 349 102 360 151 c 2
 415 387 l 2
 426 436 399 475 354 475 c 2
 166 475 l 1
 70 62 l 1
EndSplineSet
EndChar

StartChar: c
Encoding: 99 99 70
Width: 477
Flags: HW
LayerCount: 2
UndoRedoHistory
Layer: 1
Undoes
UndoOperation
Index: 0
Type: 3
WasModified: 0
WasOrder2: 0
Layer: 2
EndUndoOperation
EndUndoes
Redoes
EndRedoes
EndUndoRedoHistory
Fore
SplineSet
135 -1 m 2
 60 -1 16 70 36 157 c 2
 94 409 l 2
 114 496 191 566 266 566 c 2
 374 566 l 2
 407 566 436 553 454 528 c 0
 468 510 476 487 478 461 c 0
 479 451 469 440 460 440 c 2
 432 440 l 2
 426 440 422 444 422 450 c 0
 416 482 392 503 360 503 c 2
 253 503 l 2
 209 503 162 461 150 409 c 2
 92 157 l 2
 80 105 107 62 151 62 c 2
 258 62 l 2
 290 62 323 84 344 116 c 0
 347 122 354 125 359 125 c 2
 388 125 l 2
 397 125 402 115 396 104 c 0
 382 79 363 56 341 38 c 0
 311 13 276 -1 243 -1 c 2
 135 -1 l 2
EndSplineSet
EndChar

StartChar: d
Encoding: 100 100 71
Width: 517
Flags: HW
LayerCount: 2
UndoRedoHistory
Layer: 1
Undoes
UndoOperation
Index: 0
Type: 3
WasModified: 0
WasOrder2: 0
Layer: 2
EndUndoOperation
EndUndoes
Redoes
EndRedoes
EndUndoRedoHistory
Fore
SplineSet
136 -1 m 2
 60 -1 15 66 34 149 c 2
 90 388 l 2
 109 471 184 538 259 538 c 2
 450 538 l 1
 487 700 l 2
 492 720 508 736 523 736 c 2
 537 736 l 2
 545 736 550 729 548 721 c 2
 385 15 l 2
 383 6 375 -1 367 -1 c 2
 136 -1 l 2
246 475 m 2
 202 475 156 436 145 387 c 2
 91 151 l 2
 80 102 107 62 151 62 c 2
 340 62 l 1
 435 475 l 1
 246 475 l 2
EndSplineSet
EndChar

StartChar: e
Encoding: 101 101 72
Width: 517
Flags: HW
CounterMasks: 1 e0
LayerCount: 2
UndoRedoHistory
Layer: 1
Undoes
UndoOperation
Index: 0
Type: 3
WasModified: 0
WasOrder2: 0
Layer: 2
EndUndoOperation
EndUndoes
Redoes
EndRedoes
EndUndoRedoHistory
Fore
SplineSet
136 -1 m 2
 61 -1 16 70 36 157 c 2
 94 409 l 2
 114 496 191 566 267 566 c 2
 375 566 l 2
 451 566 496 496 476 409 c 2
 447 283 l 2
 443 265 427 251 411 251 c 2
 114 251 l 1
 92 157 l 2
 80 105 106 62 151 62 c 2
 260 62 l 2
 292 62 325 84 346 116 c 0
 349 122 355 125 360 125 c 2
 390 125 l 2
 399 125 404 115 398 104 c 0
 384 79 365 56 343 38 c 0
 313 13 278 -1 245 -1 c 2
 136 -1 l 2
253 503 m 2
 209 503 162 461 150 409 c 2
 129 314 l 1
 398 314 l 1
 420 409 l 2
 432 461 405 503 360 503 c 2
 253 503 l 2
EndSplineSet
EndChar

StartChar: f
Encoding: 102 102 73
Width: 351
Flags: W
HStem: 0 21G<10 46> 416 63<167 350.132> 674 63<237.227 419.4>
DStem2: 4 16 60 16 0.224607 0.974449<-8.74769 423.022 487.781 662.969>
LayerCount: 2
UndoRedoHistory
Layer: 1
Undoes
UndoOperation
Index: 0
Type: 3
WasModified: 0
WasOrder2: 0
Layer: 2
EndUndoOperation
EndUndoes
Redoes
EndRedoes
EndUndoRedoHistory
Fore
SplineSet
134 580 m 2
 154 667 231 737 307 737 c 2
 418 737 l 2
 425 737 429 730 427 722 c 2
 423 706 l 2
 419 688 405 674 390 674 c 2
 292 674 l 2
 248 674 202 632 190 580 c 2
 167 479 l 1
 347 479 l 2
 355 479 359 472 357 463 c 2
 354 448 l 2
 350 430 334 416 319 416 c 2
 152 416 l 1
 60 16 l 2
 58 7 50 0 42 0 c 2
 14 0 l 2
 6 0 2 7 4 16 c 2
 134 580 l 2
EndSplineSet
EndChar

StartChar: g
Encoding: 103 103 74
Width: 517
Flags: HW
LayerCount: 2
UndoRedoHistory
Layer: 1
Undoes
UndoOperation
Index: 0
Type: 3
WasModified: 0
WasOrder2: 0
Layer: 2
EndUndoOperation
EndUndoes
Redoes
EndRedoes
EndUndoRedoHistory
Fore
SplineSet
42 -155 m 2
 45 -139 l 2
 49 -122 65 -108 80 -108 c 2
 219 -108 l 2
 264 -108 311 -65 323 -13 c 2
 334 37 l 1
 144 37 l 2
 69 37 25 108 45 195 c 2
 94 409 l 2
 114 496 191 566 267 566 c 2
 498 566 l 2
 506 566 510 559 508 550 c 2
 378 -13 l 2
 358 -100 281 -171 205 -171 c 2
 52 -171 l 2
 44 -171 40 -164 42 -155 c 2
253 503 m 2
 209 503 162 461 150 409 c 2
 101 195 l 2
 89 142 116 100 160 100 c 2
 349 100 l 1
 442 503 l 1
 253 503 l 2
EndSplineSet
EndChar

StartChar: h
Encoding: 104 104 75
Width: 517
Flags: HW
LayerCount: 2
UndoRedoHistory
Layer: 1
Undoes
UndoOperation
Index: 0
Type: 3
WasModified: 0
WasOrder2: 0
Layer: 2
EndUndoOperation
EndUndoes
Redoes
EndRedoes
EndUndoRedoHistory
Fore
SplineSet
329 14 m 2
 415 386 l 2
 426 435 399 475 354 475 c 2
 166 475 l 1
 59 14 l 2
 57 6 50 -1 42 -1 c 2
 14 -1 l 2
 6 -1 1 6 3 15 c 2
 166 721 l 2
 168 729 176 736 184 736 c 2
 198 736 l 2
 214 736 223 720 218 700 c 2
 180 538 l 1
 368 538 l 2
 444 538 490 471 471 388 c 2
 385 14 l 2
 383 5 375 -1 367 -1 c 2
 340 -1 l 2
 332 -1 327 6 329 14 c 2
EndSplineSet
EndChar

StartChar: i
Encoding: 105 105 76
Width: 192
Flags: HW
LayerCount: 2
UndoRedoHistory
Layer: 1
Undoes
UndoOperation
Index: 0
Type: 3
WasModified: 0
WasOrder2: 0
Layer: 2
EndUndoOperation
EndUndoes
Redoes
EndRedoes
EndUndoRedoHistory
Fore
SplineSet
3 15 m 2
 127 550 l 2
 129 559 137 566 145 566 c 2
 173 566 l 2
 181 566 185 559 183 550 c 2
 60 15 l 2
 58 6 50 -1 42 -1 c 2
 14 -1 l 2
 6 -1 1 6 3 15 c 2
158 683 m 2
 165 714 l 2
 167 723 175 730 183 730 c 2
 196 730 l 2
 212 730 221 716 217 699 c 2
 214 683 l 2
 212 674 204 667 196 667 c 2
 168 667 l 2
 160 667 156 674 158 683 c 2
EndSplineSet
EndChar

StartChar: j
Encoding: 106 106 77
Width: 195
Flags: HW
LayerCount: 2
UndoRedoHistory
Layer: 1
Undoes
UndoOperation
Index: 0
Type: 3
WasModified: 0
WasOrder2: 0
Layer: 2
EndUndoOperation
EndUndoes
Redoes
EndRedoes
EndUndoRedoHistory
Fore
SplineSet
-165 -155 m 2
 -162 -139 l 2
 -158 -122 -143 -108 -128 -108 c 2
 -96 -108 l 2
 -52 -108 -4 -65 8 -13 c 2
 138 550 l 2
 140 559 147 566 154 566 c 2
 183 566 l 2
 191 566 196 559 194 550 c 2
 64 -13 l 2
 44 -100 -34 -171 -110 -171 c 2
 -155 -171 l 2
 -163 -171 -167 -164 -165 -155 c 2
168 683 m 2
 175 714 l 2
 177 723 185 730 192 730 c 2
 207 730 l 2
 223 730 232 716 228 699 c 2
 224 683 l 2
 222 674 214 667 206 667 c 2
 178 667 l 2
 171 667 166 674 168 683 c 2
EndSplineSet
EndChar

StartChar: k
Encoding: 107 107 78
Width: 467
Flags: HW
LayerCount: 2
UndoRedoHistory
Layer: 1
Undoes
UndoOperation
Index: 0
Type: 3
WasModified: 0
WasOrder2: 0
Layer: 2
EndUndoOperation
EndUndoes
Redoes
EndRedoes
EndUndoRedoHistory
Fore
SplineSet
374 44 m 2x7c
 377 39 379 33 384 33 c 0
 389 33 405 40 412 50 c 2
 459 124 l 1
 467 113 l 1
 419 21 386 -15 352 -15 c 0xbc
 342 -15 330 -12 326 -2 c 2
 211 237 l 1
 111 237 l 1
 56 0 l 1
 0 0 l 1
 166 721 l 2
 168 729 176 736 184 736 c 2
 198 736 l 2
 214 736 223 722 219 704 c 2
 125 300 l 1
 222 300 l 1
 420 528 l 2
 427 536 l 0
 438 548 450 553 462 553 c 0
 498 553 515 517 521 423 c 1
 507 412 l 1
 494 483 l 2
 491 495 480 503 474 503 c 0
 469 503 464 496 459 490 c 0
 479 513 l 2
 266 268 l 1
 374 44 l 2x7c
EndSplineSet
EndChar

StartChar: l
Encoding: 108 108 79
Width: 192
Flags: HW
LayerCount: 2
UndoRedoHistory
Layer: 1
Undoes
UndoOperation
Index: 0
Type: 3
WasModified: 0
WasOrder2: 0
Layer: 2
EndUndoOperation
EndUndoes
Redoes
EndRedoes
EndUndoRedoHistory
Fore
SplineSet
4 16 m 2
 166 721 l 2
 168 730 176 737 184 737 c 2
 198 737 l 2
 214 737 223 723 219 705 c 2
 60 16 l 2
 58 7 50 0 42 0 c 2
 14 0 l 2
 6 0 2 7 4 16 c 2
EndSplineSet
EndChar

StartChar: m
Encoding: 109 109 80
Width: 842
Flags: HW
CounterMasks: 1 38
LayerCount: 2
UndoRedoHistory
Layer: 1
Undoes
UndoOperation
Index: 0
Type: 3
WasModified: 0
WasOrder2: 0
Layer: 2
EndUndoOperation
EndUndoes
Redoes
EndRedoes
EndUndoRedoHistory
Fore
SplineSet
694 539 m 2
 770 539 816 472 797 389 c 2
 710 15 l 2
 708 6 701 0 693 0 c 2
 665 0 l 2
 657 0 653 7 655 15 c 2
 740 386 l 2
 752 436 724 476 679 476 c 2
 572 476 l 1
 528 476 482 435 471 386 c 1
 385 15 l 2
 383 7 375 0 367 0 c 1
 340 0 l 1
 332 0 327 7 329 15 c 2
 415 386 l 1
 427 436 399 476 354 476 c 2
 166 476 l 1
 60 15 l 2
 58 7 50 0 42 0 c 2
 14 0 l 2
 6 0 2 6 4 15 c 2
 121 523 l 2
 123 532 130 539 138 539 c 2
 369 539 l 2
 414 539 448 514 463 476 c 1
 497 514 541 538 585 539 c 1
 694 539 l 2
EndSplineSet
EndChar

StartChar: n
Encoding: 110 110 81
Width: 517
Flags: HW
LayerCount: 2
UndoRedoHistory
Layer: 1
Undoes
UndoOperation
Index: 0
Type: 3
WasModified: 0
WasOrder2: 0
Layer: 2
EndUndoOperation
EndUndoes
Redoes
EndRedoes
EndUndoRedoHistory
Fore
SplineSet
329 15 m 2
 415 386 l 2
 427 436 399 476 354 476 c 2
 166 476 l 1
 60 15 l 2
 58 7 50 0 42 0 c 2
 14 0 l 2
 6 0 2 6 4 15 c 2
 121 523 l 2
 123 532 131 539 139 539 c 2
 368 539 l 2
 444 539 490 472 471 389 c 2
 385 15 l 2
 383 6 375 0 367 0 c 2
 340 0 l 2
 332 0 327 7 329 15 c 2
EndSplineSet
EndChar

StartChar: o
Encoding: 111 111 82
Width: 517
Flags: HW
LayerCount: 2
UndoRedoHistory
Layer: 1
Undoes
UndoOperation
Index: 0
Type: 3
WasModified: 0
WasOrder2: 0
Layer: 2
EndUndoOperation
EndUndoes
Redoes
EndRedoes
EndUndoRedoHistory
Fore
SplineSet
137 0 m 2
 62 0 16 70 36 157 c 2
 94 409 l 2
 114 496 192 566 267 566 c 2
 375 566 l 2
 451 566 496 496 476 409 c 2
 418 157 l 2
 398 70 320 0 244 0 c 2
 137 0 l 2
253 503 m 2
 209 503 162 461 150 409 c 2
 92 157 l 2
 80 105 107 63 151 63 c 2
 259 63 l 2
 304 63 350 105 362 157 c 2
 420 409 l 2
 432 461 405 503 360 503 c 2
 253 503 l 2
EndSplineSet
EndChar

StartChar: p
Encoding: 112 112 83
Width: 517
Flags: HW
LayerCount: 2
UndoRedoHistory
Layer: 1
Undoes
UndoOperation
Index: 0
Type: 3
WasModified: 0
WasOrder2: 0
Layer: 2
EndUndoOperation
EndUndoes
Redoes
EndRedoes
EndUndoRedoHistory
Fore
SplineSet
-36 -155 m 2
 127 551 l 2
 129 559 137 566 145 566 c 2
 375 566 l 2
 451 566 496 496 476 409 c 2
 418 157 l 2
 398 70 320 0 244 0 c 2
 56 0 l 1
 24 -139 l 2
 20 -156 4 -171 -12 -171 c 2
 -25 -171 l 2
 -33 -171 -38 -164 -36 -155 c 2
71 63 m 1
 259 63 l 2
 304 63 350 105 362 157 c 2
 420 409 l 2
 432 461 405 503 360 503 c 2
 172 503 l 1
 71 63 l 1
EndSplineSet
EndChar

StartChar: q
Encoding: 113 113 84
Width: 517
Flags: HW
LayerCount: 2
UndoRedoHistory
Layer: 1
Undoes
UndoOperation
Index: 0
Type: 3
WasModified: 0
WasOrder2: 0
Layer: 2
EndUndoOperation
EndUndoes
Redoes
EndRedoes
EndUndoRedoHistory
Fore
SplineSet
314 -171 m 2
 299 -171 289 -156 293 -139 c 2
 326 0 l 1
 135 0 l 2
 60 0 16 70 36 157 c 2
 94 409 l 2
 114 496 191 566 267 566 c 2
 498 566 l 2
 506 566 511 559 509 551 c 2
 346 -155 l 2
 344 -164 336 -171 328 -171 c 2
 314 -171 l 2
253 503 m 2
 209 503 162 461 150 409 c 2
 92 157 l 2
 80 105 107 63 151 63 c 2
 340 63 l 1
 442 503 l 1
 253 503 l 2
EndSplineSet
EndChar

StartChar: r
Encoding: 114 114 85
Width: 318
Flags: HW
LayerCount: 2
UndoRedoHistory
Layer: 1
Undoes
UndoOperation
Index: 0
Type: 3
WasModified: 0
WasOrder2: 0
Layer: 2
EndUndoOperation
EndUndoes
Redoes
EndRedoes
EndUndoRedoHistory
Fore
SplineSet
3 15 m 2
 94 409 l 2
 114 496 191 566 267 566 c 2
 346 566 l 2
 353 566 358 559 356 551 c 2
 352 535 l 2
 348 518 333 503 318 503 c 2
 253 503 l 2
 209 503 162 461 150 409 c 2
 60 15 l 2
 58 7 50 0 42 0 c 2
 14 0 l 2
 6 0 1 7 3 15 c 2
EndSplineSet
EndChar

StartChar: s
Encoding: 115 115 86
Width: 464
Flags: HW
LayerCount: 2
UndoRedoHistory
Layer: 1
Undoes
UndoOperation
Index: 0
Type: 3
WasModified: 0
WasOrder2: 0
Layer: 2
EndUndoOperation
EndUndoes
Redoes
EndRedoes
EndUndoRedoHistory
Fore
SplineSet
-18 15 m 2
 -15 31 l 2
 -11 48 6 63 21 63 c 2
 237 63 l 2
 259 63 283 73 303 92 c 0
 323 111 336 136 341 162 c 0
 346 186 341 209 329 226 c 0
 317 242 300 251 279 251 c 2
 171 251 l 2
 136 251 106 268 87 297 c 0
 68 326 63 365 72 406 c 0
 81 448 104 487 138 518 c 0
 172 549 212 566 249 566 c 2
 430 566 l 2
 438 566 443 559 441 551 c 2
 437 535 l 2
 433 518 418 503 402 503 c 2
 231 503 l 2
 210 503 186 493 166 474 c 0
 146 455 133 430 128 404 c 0
 123 380 127 357 139 340 c 0
 151 324 168 314 189 314 c 2
 294 314 l 2
 331 314 362 297 382 266 c 0
 401 235 406 196 395 154 c 0
 385 113 361 74 328 45 c 0
 296 16 258 0 222 0 c 2
 -7 0 l 2
 -15 0 -20 7 -18 15 c 2
EndSplineSet
EndChar

StartChar: t
Encoding: 116 116 87
Width: 318
Flags: HW
LayerCount: 2
UndoRedoHistory
Layer: 1
Undoes
UndoOperation
Index: 0
Type: 3
WasModified: 0
WasOrder2: 0
Layer: 2
EndUndoOperation
EndUndoes
Redoes
EndRedoes
EndUndoRedoHistory
Fore
SplineSet
136 0 m 2
 60 0 16 67 35 151 c 2
 152 657 l 2
 154 667 163 677 171 677 c 2
 198 677 l 2
 206 677 210 667 208 657 c 2
 180 538 l 1
 304 538 l 2
 319 538 328 524 324 507 c 2
 320 491 l 2
 318 483 310 475 303 475 c 2
 166 475 l 1
 91 151 l 2
 80 102 107 63 151 63 c 2
 216 63 l 2
 231 63 240 48 236 31 c 2
 232 15 l 2
 230 7 222 0 215 0 c 2
 136 0 l 2
EndSplineSet
EndChar

StartChar: u
Encoding: 117 117 88
Width: 517
Flags: HW
LayerCount: 2
UndoRedoHistory
Layer: 1
Undoes
UndoOperation
Index: 0
Type: 3
WasModified: 0
WasOrder2: 0
Layer: 2
EndUndoOperation
EndUndoes
Redoes
EndRedoes
EndUndoRedoHistory
Fore
SplineSet
137 0 m 2
 61 0 16 70 36 157 c 2
 127 551 l 2
 129 559 137 566 145 566 c 2
 158 566 l 2
 174 566 184 552 180 535 c 2
 92 157 l 2
 80 105 107 63 151 63 c 2
 259 63 l 2
 304 63 350 105 362 157 c 2
 449 535 l 2
 453 552 469 566 484 566 c 2
 498 566 l 2
 506 566 511 559 509 551 c 2
 418 157 l 2
 398 70 320 0 244 0 c 2
 137 0 l 2
EndSplineSet
EndChar

StartChar: v
Encoding: 118 118 89
Width: 451
Flags: HW
LayerCount: 2
UndoRedoHistory
Layer: 1
Undoes
UndoOperation
Index: 0
Type: 3
WasModified: 0
WasOrder2: 0
Layer: 2
EndUndoOperation
EndUndoes
Redoes
EndRedoes
EndUndoRedoHistory
Fore
SplineSet
148 0 m 2xc0
 137 0 128 8 126 19 c 2
 77 517 l 2
 79 487 l 0
 78 495 75 505 69 505 c 0
 64 505 48 498 41 487 c 2
 -7 409 l 1
 -15 421 l 1
 34 517 68 553 102 553 c 0xa0
 118 553 133 542 135 515 c 0
 135 518 l 2
 179 67 l 1
 432 518 l 2
 416 489 l 0
 446 544 470 555 502 555 c 0
 535 555 558 524 556 479 c 0
 554 439 531 406 503 406 c 0
 492 406 482 410 468 421 c 0
 460 428 456 431 451 431 c 0
 439 431 437 421 425 400 c 0
 489 517 l 2
 210 19 l 2
 203 8 191 0 180 0 c 2
 148 0 l 2xc0
EndSplineSet
EndChar

StartChar: w
Encoding: 119 119 90
Width: 742
Flags: HW
LayerCount: 2
UndoRedoHistory
Layer: 1
Undoes
UndoOperation
Index: 0
Type: 3
WasModified: 0
WasOrder2: 0
Layer: 2
EndUndoOperation
EndUndoes
Redoes
EndRedoes
EndUndoRedoHistory
Fore
SplineSet
781 519 m 2xc0
 502 18 l 2
 496 7 486 0 476 0 c 2
 453 0 l 2
 443 0 435 8 434 19 c 2
 409 413 l 1
 202 19 l 2
 197 8 185 0 174 0 c 2
 152 0 l 2
 142 0 134 7 133 18 c 2
 86 519 l 2
 89 487 l 0
 88 495 84 505 78 505 c 0
 73 505 57 498 50 487 c 2
 2 409 l 1
 -5 421 l 1
 44 516 77 553 111 553 c 0xa0
 128 553 142 541 144 514 c 0
 143 519 l 2
 183 92 l 1
 395 498 l 2
 401 510 413 518 423 518 c 2
 443 518 l 2
 454 518 462 510 462 498 c 2
 487 92 l 1
 724 519 l 2
 707 487 l 0
 737 543 761 555 793 555 c 0
 826 555 849 525 847 480 c 0
 845 440 823 407 795 407 c 0
 784 407 774 412 760 423 c 0
 752 430 748 432 743 432 c 0
 731 432 729 423 717 401 c 0
 781 519 l 2xc0
EndSplineSet
EndChar

StartChar: x
Encoding: 120 120 91
Width: 472
Flags: HW
LayerCount: 2
UndoRedoHistory
Layer: 1
Undoes
UndoOperation
Index: 0
Type: 3
WasModified: 0
WasOrder2: 0
Layer: 2
EndUndoOperation
EndUndoes
Redoes
EndRedoes
EndUndoRedoHistory
Fore
SplineSet
375 45 m 2xa0
 377 39 380 33 385 33 c 0
 390 33 406 41 413 52 c 2
 462 129 l 1
 469 118 l 1
 420 23 387 -15 353 -15 c 0x60
 342 -15 331 -12 326 -1 c 2
 231 222 l 1
 41 9 l 2
 24 -10 11 -17 -10 -17 c 0
 -43 -17 -66 14 -64 59 c 0
 -62 99 -40 132 -12 132 c 0
 -1 132 9 127 23 116 c 0
 31 109 35 107 40 107 c 0
 48 107 57 106 64 113 c 2
 209 271 l 1
 99 513 l 2
 108 494 l 0
 106 499 102 505 97 505 c 0
 92 505 77 498 70 488 c 2
 22 414 l 1
 15 426 l 1
 63 518 96 553 130 553 c 0
 141 553 151 551 156 540 c 0
 162 527 l 2
 254 321 l 1
 446 552 l 2
 449 555 l 0
 466 575 480 584 501 584 c 0
 534 584 555 548 552 496 c 0
 548 449 525 411 497 411 c 0
 486 411 476 416 462 427 c 0
 454 434 450 436 445 436 c 0
 437 436 428 437 421 430 c 0
 496 513 l 2
 275 271 l 1
 375 45 l 2xa0
EndSplineSet
EndChar

StartChar: y
Encoding: 121 121 92
Width: 483
Flags: HW
LayerCount: 2
UndoRedoHistory
Layer: 1
Undoes
UndoOperation
Index: 0
Type: 3
WasModified: 0
WasOrder2: 0
Layer: 2
EndUndoOperation
EndUndoes
Redoes
EndRedoes
EndUndoRedoHistory
Fore
SplineSet
82 -150 m 2xc0
 150 -27 l 1
 99 517 l 2
 101 487 l 0
 100 495 96 505 90 505 c 0
 85 505 70 498 63 487 c 2
 14 409 l 1
 7 421 l 1
 56 516 89 553 123 553 c 0xa0
 139 553 154 542 156 515 c 0
 156 518 l 2
 199 60 l 1
 454 518 l 2
 438 489 l 0
 468 543 491 555 523 555 c 0
 556 555 579 524 577 479 c 0
 575 439 552 406 524 406 c 0
 513 406 503 411 489 422 c 0
 481 429 478 431 473 431 c 0
 461 431 459 421 447 400 c 0
 511 517 l 2
 139 -151 l 2
 132 -163 119 -171 108 -171 c 2
 89 -171 l 2
 80 -171 76 -161 82 -150 c 2xc0
EndSplineSet
EndChar

